<?xml version="1.0" standalone="no"?>
<!DOCTYPE svg PUBLIC "-//W3C//DTD SVG 1.1//EN" "http://www.w3.org/Graphics/SVG/1.1/DTD/svg11.dtd" >
<svg xmlns="http://www.w3.org/2000/svg">
<metadata>
Created by FontPrep 20130207 at Thu Sep 24 14:08:53 2015
 By Brian Stephens
Esphimere (c)Dichi. 2015. All Rights Reserved
</metadata>
<defs>
<font id="a88b21f5c88a5696e1d1798f6aa82a75" horiz-adv-x='1024' >
  <font-face 
    font-family="Esphimere-BoldItalic"
    font-weight="700"
    font-style="italic"
    font-stretch="normal"
    units-per-em="2048"
    panose-1="2 11 8 3 3 0 0 9 0 4"
    ascent="1638"
    descent="-410"
    x-height="1106"
    cap-height="1522"
    bbox="-59 -471 2427.63 2013"
    underline-thickness="102"
    underline-position="-102"
    slope="-7.5"
    unicode-range="U+001D-FFFD"
  />
<missing-glyph horiz-adv-x="1198" 
d="M561 1292l-133 -1009h416l133 1009h-416zM1294 1540l-198 -1505h-985l198 1505h985z" />
    <glyph glyph-name="uniF001" unicode="fi" horiz-adv-x="1341" 
d="M182 4l119 903h-137l29 219h137l12 88q45 348 457 349l217 -29l-29 -205l-217 8q-129 0 -145 -127l-13 -84h721l-147 -1122h-281l119 903h-440l-119 -903q-55 -317 -524 -317l28 215q201 0 213 102zM1391 1563l-31 -246h-281l31 246h281z" />
    <glyph glyph-name="uniF002" unicode="fl" horiz-adv-x="1409" 
d="M182 4l119 903h-137l29 219h137l12 88q45 348 473 349l516 -45l-153 -1162q-14 -111 32 -110l207 10l-28 -227l-205 -27q-334 0 -287 358l125 953l-236 24q-147 0 -163 -127l-13 -84h283l-29 -219h-282l-119 -903q-55 -317 -522 -317l28 215q201 0 213 102z" />
    <glyph glyph-name="uniFB00" unicode="ff" horiz-adv-x="1603" 
d="M483 4q-55 -317 -524 -317l29 215q201 0 213 102l118 903h-137l29 219h137l12 88q45 348 457 349l217 -29l-28 -205l-218 8q-129 0 -145 -127l-12 -84h538l13 88q45 348 456 349l217 -29l-28 -205l-217 8q-129 0 -146 -127l-12 -84h281l-29 -219h-281l-118 -903
q-55 -317 -525 -317l29 215q201 0 213 102l119 903h-539z" />
    <glyph glyph-name="uniFB03" unicode="ffi" horiz-adv-x="2119" 
d="M483 4q-55 -317 -524 -317l29 215q201 0 213 102l118 903h-137l29 219h137l12 88q45 348 457 349l217 -29l-28 -205l-218 8q-129 0 -145 -127l-12 -84h538l13 88q45 348 456 349l217 -29l-28 -205l-217 8q-131 0 -148 -127l-12 -84h702l-147 -1122h-281l119 903h-422
l-118 -903q-55 -317 -523 -317l29 215q201 0 213 102l119 903h-539zM2210 1563l-31 -246h-281l31 246h281z" />
    <glyph glyph-name="uniFB04" unicode="ffl" horiz-adv-x="2250" 
d="M1612 1337q-131 0 -148 -127l-12 -84h281l-29 -219h-281l-118 -903q-55 -317 -525 -317l29 215q201 0 213 102l119 903h-539l-119 -903q-55 -317 -524 -317l29 215q201 0 213 102l118 903h-137l29 219h137l12 88q45 348 457 349l217 -29l-28 -205l-218 8
q-129 0 -145 -127l-12 -84h538l13 88q45 348 450 349h23l516 -45l-154 -1162q-14 -111 33 -110l209 10l-29 -227l-207 -27q-334 0 -286 358l127 955l-230 22h-22z" />
    <glyph glyph-name=".notdef" horiz-adv-x="1198" 
d="M561 1292l-133 -1009h416l133 1009h-416zM1294 1540l-198 -1505h-985l198 1505h985z" />
    <glyph glyph-name=".null" horiz-adv-x="0" 
 />
    <glyph glyph-name=".null" horiz-adv-x="0" 
 />
    <glyph glyph-name="nonmarkingreturn" horiz-adv-x="1091" 
 />
    <glyph glyph-name="space" unicode=" " horiz-adv-x="464" 
 />
    <glyph glyph-name="space" unicode="&#xa0;" horiz-adv-x="464" 
 />
    <glyph glyph-name="exclam" unicode="!" horiz-adv-x="628" 
d="M682 1528l-158 -1110h-276l133 1110h301zM516 264l-35 -260h-299l35 260h299z" />
    <glyph glyph-name="quotedbl" unicode="&#x22;" horiz-adv-x="913" 
d="M725 1577h289l-35 -274l-88 -312h-195l-6 312zM311 1577h289l-35 -274l-86 -312h-196l-7 312z" />
    <glyph glyph-name="numbersign" unicode="#" horiz-adv-x="1492" 
d="M365 412h-246l35 221h262l59 278h-246l29 222h264l70 325l278 2l-69 -327h241l70 325l281 2l-72 -327h229l-28 -222h-248l-60 -278h230l-31 -221h-248l-78 -371h-274l74 371h-240l-76 -371h-284zM938 653l59 277h-241l-60 -277h242z" />
    <glyph glyph-name="dollar" unicode="$" horiz-adv-x="1290" 
d="M895 850q365 -137 336 -369l-17 -121q-43 -344 -432 -358l-14 -108h-256l14 110l-368 14l30 230l371 -4l55 430l-45 14q-313 100 -299 346l21 152q41 307 434 330l14 102h256l-14 -102l332 -17l-29 -227l-334 4zM649 934l45 336q-111 -6 -121 -84l-18 -150
q-2 -61 94 -102zM860 592l-45 -342q96 10 111 112l16 119q10 82 -82 111z" />
    <glyph glyph-name="percent" unicode="%" horiz-adv-x="1740" 
d="M1298 201q121 0 138 118l12 101q18 147 -102 147q-104 0 -123 -147l-13 -101q-16 -118 88 -118zM1381 772q359 0 313 -348l-13 -100q-43 -330 -402 -330t-316 330l12 100q47 348 406 348zM217 -2l1202 1524h281l-1200 -1524h-283zM580 942q121 0 135 123l14 96
q18 150 -102 150q-104 0 -123 -150l-15 -96q-13 -123 91 -123zM558 737q-360 0 -314 332l12 96q47 352 406 353q360 0 313 -353l-12 -96q-45 -332 -405 -332z" />
    <glyph glyph-name="ampersand" unicode="&#x26;" horiz-adv-x="1439" 
d="M721 883h274l29 221h279l-29 -221h211l-33 -240h-211l-43 -328q-4 -84 27 -86l178 9l-27 -207l-207 -27q-90 0 -159 78q-111 -70 -281 -82q-385 -2 -463 106q-72 84 -61 263q55 317 274 399q-162 70 -137 387q35 170 131 260q109 111 461 109l233 -39l-30 -236l-246 23
q-141 0 -180 -27q-115 -76 -101 -282q23 -80 111 -80zM918 301l40 299h-270q-129 -4 -170 -86q-51 -156 8 -231q57 -31 234 -31q109 4 158 49z" />
    <glyph glyph-name="quotesingle" unicode="'" horiz-adv-x="505" 
d="M315 1577h289l-35 -274l-86 -312h-196l-6 312z" />
    <glyph glyph-name="parenleft" unicode="(" horiz-adv-x="724" 
d="M868 1683q-250 -499 -311 -967t59 -978h-280q-135 502 -73 974t339 971h266z" />
    <glyph glyph-name="parenright" unicode=")" horiz-adv-x="749" 
d="M59 -262q251 479 313 957t-59 988h281q135 -503 72 -983t-338 -962h-269z" />
    <glyph glyph-name="asterisk" unicode="*" horiz-adv-x="851" 
d="M473 1235l31 225h223l-31 -225l222 78l36 -180l-217 -80l103 -193l-185 -131l-106 203l-168 -201l-150 127l164 193l-205 82l82 180z" />
    <glyph glyph-name="plus" unicode="+" horiz-adv-x="1040" 
d="M446 621h-329l30 241h330l51 375h279l-51 -375h329l-30 -241h-330l-49 -371h-279z" />
    <glyph glyph-name="comma" unicode="," horiz-adv-x="520" 
d="M190 262h281l-197 -489h-276z" />
    <glyph glyph-name="hyphen" unicode="-" horiz-adv-x="737" 
d="M750 709l-33 -246h-617l33 246h617z" />
    <glyph glyph-name="hyphen" unicode="&#xad;" horiz-adv-x="737" 
d="M750 709l-33 -246h-617l33 246h617z" />
    <glyph glyph-name="period" unicode="." horiz-adv-x="444" 
d="M379 248l-33 -244h-278l32 244h279z" />
    <glyph glyph-name="slash" unicode="/" horiz-adv-x="886" 
d="M770 1540h293l-709 -1536h-293z" />
    <glyph glyph-name="zero" unicode="0" horiz-adv-x="1310" 
d="M797 1262q-186 0 -256 -355l-37 -289q-25 -356 162 -356h69q162 0 232 356l37 289q25 354 -138 355h-69zM702 8h-69q-498 0 -438 608l38 295q100 608 598 609h70q477 -1 418 -609l-39 -295q-100 -608 -578 -608z" />
    <glyph glyph-name="one" unicode="1" horiz-adv-x="747" 
d="M637 8h-299l164 1254l-232 -64l33 254l369 66h164z" />
    <glyph glyph-name="two" unicode="2" horiz-adv-x="1222" 
d="M1110 -4h-997l20 160q41 207 203 356l446 360q139 104 160 179l6 47q4 98 -78 143q-51 23 -112 27q-190 0 -443 -11l31 232q246 27 445 29q119 0 227 -50q250 -113 225 -368l-6 -49q-35 -154 -270 -346l-377 -299q-96 -74 -154 -168h705z" />
    <glyph glyph-name="three" unicode="3" horiz-adv-x="1210" 
d="M725 883q90 0 127 61q72 223 -23 299q-31 27 -174 27l-399 -17l29 232l399 35q346 2 426 -109q70 -88 59 -260q-25 -352 -229 -389q233 -33 160 -408q-33 -160 -129 -241q-104 -111 -488 -109l-426 37l31 231l430 -18q166 0 225 29q100 55 84 258q-20 98 -139 104h-375
l33 238h379z" />
    <glyph glyph-name="four" unicode="4" horiz-adv-x="1290" 
d="M915 1118l-421 -581h344zM1047 1518h178l-129 -971h153l-26 -211h-154l-45 -336h-258l45 336h-653l18 141q6 57 37 96l688 877q63 68 146 68z" />
    <glyph glyph-name="five" unicode="5" horiz-adv-x="1230" 
d="M1239 1276h-670l-41 -318l224 13q494 0 436 -436l-10 -78q-59 -457 -553 -457l-506 47l31 236l509 -29q211 0 238 203l10 78q27 197 -182 196l-412 -33q-102 0 -98 76l98 744h959z" />
    <glyph glyph-name="six" unicode="6" horiz-adv-x="1230" 
d="M780 752q-123 0 -301 -76l-22 -174q-18 -258 147 -260h107q160 2 194 260l2 10q29 240 -127 240zM813 995q434 0 373 -481l-2 -12q-68 -502 -506 -504h-107q-457 2 -393 504l70 532q68 483 526 484q193 -10 424 -52l-29 -227q-248 33 -430 35q-178 0 -213 -240l-12 -96
q145 57 299 57z" />
    <glyph glyph-name="seven" unicode="7" horiz-adv-x="1290" 
d="M1292 1380l-706 -1380h-301l651 1274h-655l32 244h852q201 -1 127 -138z" />
    <glyph glyph-name="eight" unicode="8" horiz-adv-x="1220" 
d="M823 1518q463 0 412 -390l-8 -57q-29 -217 -189 -260l-6 -49q174 -18 142 -258l-13 -98q-53 -406 -538 -406h-25q-485 0 -432 406l12 98q33 240 211 260l6 47q-143 45 -112 279l6 38q51 389 510 390h24zM793 1290h-25q-180 0 -197 -121l-18 -135q-18 -143 162 -143h24
q181 0 199 143l18 135q16 121 -163 121zM715 700h-25q-199 0 -221 -161l-25 -174q-14 -154 183 -154h24q199 0 217 154l25 176q21 159 -178 159z" />
    <glyph glyph-name="nine" unicode="9" horiz-adv-x="1228" 
d="M936 838l22 176q20 258 -145 260h-106q-160 -2 -197 -262l-2 -11q-29 -240 127 -239q123 0 301 76zM248 274q248 -31 430 -32q178 0 211 239l12 97q-145 -59 -299 -60q-434 0 -373 483l2 13q68 502 508 504h107q455 -2 391 -504l-70 -531q-66 -485 -524 -485
q-195 8 -426 49z" />
    <glyph glyph-name="colon" unicode=":" horiz-adv-x="546" 
d="M446 248l-32 -244h-281l33 244h280zM549 1028l-33 -248h-280l32 248h281z" />
    <glyph glyph-name="semicolon" unicode=";" horiz-adv-x="616" 
d="M240 262h282l-196 -489h-277zM616 1040l-32 -247h-281l33 247h280z" />
    <glyph glyph-name="semicolon" unicode="&#x37e;" horiz-adv-x="616" 
d="M240 262h282l-196 -489h-277zM616 1040l-32 -247h-281l33 247h280z" />
    <glyph glyph-name="less" unicode="&#x3c;" horiz-adv-x="1069" 
d="M1141 1239l-33 -268l-649 -244l588 -233l-41 -277l-879 385l33 252z" />
    <glyph glyph-name="equal" unicode="=" horiz-adv-x="1173" 
d="M1188 1047l-33 -246h-948l33 246h948zM1137 655l-33 -245h-948l32 245h949z" />
    <glyph glyph-name="greater" unicode="&#x3e;" horiz-adv-x="1105" 
d="M1176 854l-33 -252l-981 -385l33 277l649 233l-588 244l41 268z" />
    <glyph glyph-name="question" unicode="?" horiz-adv-x="1122" 
d="M684 244l-33 -244h-280l32 244h281zM731 1264q-201 0 -469 -27l31 240q266 45 483 45q446 -4 398 -367l-9 -68q-27 -199 -274 -327q-145 -66 -166 -215l-20 -158h-287l20 164q33 236 291 385q139 68 150 151l8 68q14 109 -156 109z" />
    <glyph glyph-name="at" unicode="@" horiz-adv-x="2148" 
d="M1495 387q0 -4 33 -12q207 0 260 280q53 395 -66 527q-120 132 -496 131q-376 0 -528 -131q-152 -132 -204 -526t66 -525t495 -131h75l-32 -246h-76q-506 0 -692 209t-123 693t305 694t748 209q506 0 692 -209t123 -697q-100 -502 -566 -501h-30q-285 27 -273 124l2 13
l-104 -78q-51 -39 -154 -39q-289 31 -254 301q20 150 43 301q68 338 410 361q168 0 203 -56l14 51h264l-135 -741v-2zM1286 764q-78 111 -166 106q-86 -6 -110 -116q-25 -156 -41 -287q-8 -80 94 -82q106 39 190 188z" />
    <glyph glyph-name="A" unicode="A" horiz-adv-x="1468" 
d="M1026 592l-119 614h-26l-287 -614h432zM844 1522h176q109 0 131 -119l281 -1403h-281l-78 346h-592l-170 -346h-280l649 1403q55 119 164 119z" />
    <glyph glyph-name="B" unicode="B" horiz-adv-x="1392" 
d="M758 248q213 0 239 207q29 211 -149 211h-318l-55 -418h283zM870 1278h-260l-49 -381h260q207 2 230 180q27 201 -181 201zM162 4l200 1520h564q479 -2 424 -441q-51 -244 -326 -307q293 -53 276 -319q-68 -434 -581 -453h-557z" />
    <glyph glyph-name="C" unicode="C" horiz-adv-x="1226" 
d="M1153 51q-260 -39 -532 -47q-549 0 -449 760t649 760q268 -8 522 -45l-30 -232q-262 31 -518 33q-274 0 -342 -518t206 -518q256 4 525 35z" />
    <glyph glyph-name="D" unicode="D" horiz-adv-x="1464" 
d="M797 242q257 0 325 519t-190 519h-316l-135 -1038h316zM965 1528q551 0 451 -766t-652 -766h-602l200 1532h603z" />
    <glyph glyph-name="E" unicode="E" horiz-adv-x="1257" 
d="M604 1276q-29 0 -35 -51l-47 -348h596l-31 -232h-595l-46 -352q-6 -49 23 -49h739l-30 -228l-742 -16q-311 0 -272 293l123 932q41 297 350 297l741 -17l-30 -229h-744z" />
    <glyph glyph-name="F" unicode="F" horiz-adv-x="1333" 
d="M639 1276q-29 0 -35 -51l-45 -344h596l-33 -248h-596l-84 -633h-280l162 1225q39 297 348 297l741 -17l-31 -229h-743z" />
    <glyph glyph-name="G" unicode="G" horiz-adv-x="1345" 
d="M825 1290q-274 0 -368 -463l-21 -163q-53 -406 242 -435h283l55 420h-260l28 217h533l-115 -866h-559q-571 0 -483 664l20 163q131 694 682 695l498 -19l-29 -213h-506z" />
    <glyph glyph-name="H" unicode="H" horiz-adv-x="1404" 
d="M643 1522l-84 -635h506l84 635h278l-200 -1522h-279l84 643h-508l-82 -639h-280l200 1518h281z" />
    <glyph glyph-name="I" unicode="I" horiz-adv-x="620" 
d="M643 1522l-201 -1522h-280l200 1522h281z" />
    <glyph glyph-name="J" unicode="J" horiz-adv-x="897" 
d="M920 1524l-142 -1075q-84 -428 -520 -445l-203 -2l33 246h201q168 2 209 201l141 1075h281z" />
    <glyph glyph-name="K" unicode="K" horiz-adv-x="1419" 
d="M707 1540l-97 -727l619 727h295l-504 -590q90 -545 364 -962h-305q-209 307 -260 702l-264 -289l-53 -413h-281l205 1552h281z" />
    <glyph glyph-name="L" unicode="L" horiz-adv-x="1177" 
d="M446 4q-295 0 -241 397l147 1123h289l-147 -1123q-20 -152 -15 -151h682l-33 -246h-682z" />
    <glyph glyph-name="M" unicode="M" horiz-adv-x="1814" 
d="M469 1526h281q86 0 106 -76l115 -911h18l338 909q41 76 125 76h287q98 0 88 -84l-191 -1436h-280l155 1182l-24 -4l-357 -846q-47 -92 -131 -92h-110q-86 0 -117 90l-145 848h-29l-156 -1178h-280l190 1436q10 86 117 86z" />
    <glyph glyph-name="N" unicode="N" horiz-adv-x="1523" 
d="M467 1526h283q84 0 106 -78l236 -1198h26l164 1272h281l-193 -1438q-10 -80 -113 -80h-278q-86 0 -113 88l-233 1129h-31l-160 -1217h-280l190 1436q10 86 115 86z" />
    <glyph glyph-name="O" unicode="O" horiz-adv-x="1392" 
d="M760 1286q-229 0 -287 -432l-24 -186q-57 -432 172 -432h141q221 0 278 432l25 186q57 432 -164 432h-141zM592 4q-520 0 -432 660l24 196q88 664 609 664h131q520 0 432 -664l-25 -196q-88 -659 -608 -660h-131z" />
    <glyph glyph-name="P" unicode="P" horiz-adv-x="1392" 
d="M893 817q211 -1 242 235t-197 236h-326l-61 -471h342zM1028 1524q448 0 386 -471t-511 -471h-385l-76 -578h-280l200 1520h666z" />
    <glyph glyph-name="Q" unicode="Q" horiz-adv-x="1411" 
d="M592 4q-520 0 -432 660l24 196q88 664 609 664h131q520 0 432 -664l-25 -196q-37 -279 -137 -422l106 -99l-172 -186l-116 109q-86 -61 -289 -62h-131zM901 1286h-141q-231 0 -289 -432l-25 -186q-57 -432 175 -432h141q16 0 45 18l-221 213l166 186l241 -223
q18 43 45 238l25 186q57 432 -162 432z" />
    <glyph glyph-name="R" unicode="R" horiz-adv-x="1423" 
d="M741 582h-223l-76 -582h-280l200 1524h666q449 -2 387 -471q-72 -436 -368 -453q57 -299 239 -600h-311q-179 291 -234 582zM901 817q203 -1 234 235t-187 236h-336l-61 -471h350z" />
    <glyph glyph-name="S" unicode="S" horiz-adv-x="1226" 
d="M1268 1499l-29 -227l-455 4q-242 0 -254 -90l-18 -150q-2 -78 158 -123l182 -57q369 -98 334 -375l-17 -121q-45 -362 -536 -362l-518 20l30 230l508 -6q211 0 230 118l16 121q10 84 -162 135l-211 72q-315 100 -301 346l21 152q45 336 571 336z" />
    <glyph glyph-name="T" unicode="T" horiz-adv-x="1265" 
d="M1413 1524l-33 -246h-419l-168 -1278h-285l168 1278h-453l33 246h1157z" />
    <glyph glyph-name="U" unicode="U" horiz-adv-x="1429" 
d="M717 248h37q260 0 297 289l131 987h282l-131 -987q-70 -532 -612 -533h-37q-532 0 -463 533l131 987h285l-131 -987q-37 -289 211 -289z" />
    <glyph glyph-name="V" unicode="V" horiz-adv-x="1398" 
d="M799 0h-197q-109 0 -127 94q-168 715 -213 1428h295q25 -623 172 -1246h8q317 623 512 1246h301q-242 -715 -604 -1430q-43 -92 -147 -92z" />
    <glyph glyph-name="W" unicode="W" horiz-adv-x="1998" 
d="M645 0h-196q-109 0 -127 94q-90 715 -56 1428h295q-53 -623 17 -1246h4q250 586 379 1170q29 76 114 76h242q88 0 94 -76q-31 -584 62 -1170h24q229 623 336 1246h301q-152 -715 -426 -1430q-45 -92 -149 -92h-216q-111 0 -126 94q-93 538 -64 1077h-4
q-115 -539 -354 -1079q-45 -92 -150 -92z" />
    <glyph glyph-name="X" unicode="X" horiz-adv-x="1480" 
d="M816 543l-417 -539h-329l598 760l-398 758h330l274 -539l404 539h334l-598 -758l397 -760h-334z" />
    <glyph glyph-name="Y" unicode="Y" horiz-adv-x="1368" 
d="M797 804l415 716h304l-623 -1022l-66 -498h-292l65 498l-332 1022h316z" />
    <glyph glyph-name="Z" unicode="Z" horiz-adv-x="1208" 
d="M1386 1522l-12 -90q-8 -63 -55 -125l-805 -1057h705l-33 -246h-1092l12 90q8 63 54 127l805 1057h-707l33 244h1095z" />
    <glyph glyph-name="bracketleft" unicode="[" horiz-adv-x="743" 
d="M317 1602h531l-31 -228h-235l-193 -1472h236l-31 -228h-531z" />
    <glyph glyph-name="backslash" unicode="\" horiz-adv-x="1034" 
d="M918 4h-293l-306 1536h295z" />
    <glyph glyph-name="bracketright" unicode="]" horiz-adv-x="743" 
d="M594 -326h-531l31 228h234l192 1472h-233l30 228h531z" />
    <glyph glyph-name="asciicircum" unicode="^" horiz-adv-x="1230" 
d="M739 1503h150q74 0 94 -59l223 -719l-288 -2l-150 474l-260 -474l-291 2l416 717q34 61 106 61z" />
    <glyph glyph-name="underscore" unicode="_" horiz-adv-x="1300" 
d="M1200 41l-29 -209h-1087l29 209h1087z" />
    <glyph glyph-name="grave" unicode="`" horiz-adv-x="950" 
d="M358 1548h373l238 -319h-301z" />
    <glyph glyph-name="a" unicode="a" horiz-adv-x="1081" 
d="M1130 1090l-143 -1086l-254 -2l10 148q-129 -143 -319 -146q-348 0 -277 545q80 553 484 565l321 -20zM819 852l-203 16q-139 -2 -208 -360q-45 -250 84 -260q147 16 270 176z" />
    <glyph glyph-name="b" unicode="b" horiz-adv-x="1220" 
d="M815 1116q436 0 371 -498l-17 -116q-66 -502 -501 -502l-514 20l200 1518h279l-58 -440q43 10 160 18h80zM709 895q-92 0 -164 -25l-82 -624l233 -21q160 0 197 277l16 116q37 276 -123 277h-77z" />
    <glyph glyph-name="c" unicode="c" horiz-adv-x="1015" 
d="M942 14l-424 -24q-449 0 -374 567t524 567l417 -24l-28 -219l-418 6q-170 0 -214 -332t126 -332l420 6z" />
    <glyph glyph-name="d" unicode="d" horiz-adv-x="1171" 
d="M657 1116h78q115 -8 158 -18l57 440h279l-201 -1518l-518 -20q-438 0 -373 502l17 116q66 498 503 498zM705 895h-76q-160 0 -197 -277l-16 -116q-37 -276 123 -277l241 21l82 624q-63 25 -157 25z" />
    <glyph glyph-name="e" unicode="e" horiz-adv-x="1107" 
d="M797 657q22 0 28 39q25 197 -98 199h-133q-109 -2 -160 -238h363zM608 219q98 0 371 27v-209q-193 -43 -406 -43q-497 0 -423 563t462 563h166q371 0 322 -444q-43 -246 -238 -246h-454q-8 -211 200 -211z" />
    <glyph glyph-name="f" unicode="f" horiz-adv-x="827" 
d="M479 -33q-51 -279 -479 -278l29 215q160 0 172 100l118 903h-137l29 219h137l12 88q45 348 457 349l217 -29l-28 -205l-218 8q-129 0 -145 -127l-12 -84h280l-28 -219h-281z" />
    <glyph glyph-name="g" unicode="g" horiz-adv-x="1232" 
d="M852 276l72 555q-25 39 -174 48h-56q-115 -2 -135 -162l-45 -340q-14 -111 98 -127h41zM727 1118h53q180 -2 457 -49l-154 -1159q-27 -199 -182 -272q-127 -59 -356 -60q-117 0 -318 21l62 239q160 -20 256 -20t168 22q88 33 92 84l16 115l-198 -29h-41q-395 0 -353 334
l50 371q53 403 448 403z" />
    <glyph glyph-name="h" unicode="h" horiz-adv-x="1245" 
d="M840 887q-174 0 -297 -47l-111 -836h-280l204 1559h281l-62 -467q84 27 281 30q387 -4 346 -346l-102 -776h-281l86 647q31 236 -65 236z" />
    <glyph glyph-name="i" unicode="i" horiz-adv-x="577" 
d="M637 1563l-31 -246h-280l30 246h281zM580 1126l-148 -1122h-280l147 1122h281z" />
    <glyph glyph-name="j" unicode="j" horiz-adv-x="684" 
d="M715 1585l-33 -246h-281l33 246h281zM657 1145l-153 -1168q-51 -381 -506 -397l33 242q172 0 192 155l154 1168h280z" />
    <glyph glyph-name="k" unicode="k" horiz-adv-x="1198" 
d="M670 1554l-117 -876l393 418h291l-369 -398q55 -336 287 -698h-283q-186 264 -196 502l-170 -189l-41 -313h-281l205 1554h281z" />
    <glyph glyph-name="l" unicode="l" horiz-adv-x="684" 
d="M629 1563l-158 -1205q-16 -129 31 -129l209 9l-27 -207l-205 -27q-334 0 -286 358l157 1201h279z" />
    <glyph glyph-name="m" unicode="m" horiz-adv-x="1751" 
d="M786 899h-114q-53 -2 -162 -111l-98 -788h-281l148 1126h260l-7 -69q76 70 168 69h115q205 0 244 -108q78 84 233 108h101q362 0 297 -501l-82 -625h-279l82 625q37 274 -47 274h-94q-51 -2 -154 -98q8 -72 -6 -176l-82 -625h-276l82 625q37 274 -48 274z" />
    <glyph glyph-name="n" unicode="n" horiz-adv-x="1181" 
d="M698 1126h133q381 0 316 -501l-82 -625h-277l82 625q37 274 -67 274h-131q-96 -2 -164 -141l-96 -758h-281l148 1126h258l-7 -100q57 100 168 100z" />
    <glyph glyph-name="o" unicode="o" horiz-adv-x="1173" 
d="M623 895q-160 0 -197 -277l-16 -116q-37 -276 122 -277h115q160 0 197 277l16 116q37 276 -123 277h-114zM618 4h-114q-432 0 -367 498l17 116q66 502 497 502h115q439 0 373 -502l-17 -116q-66 -498 -504 -498z" />
    <glyph glyph-name="p" unicode="p" horiz-adv-x="1202" 
d="M739 1126h56q438 0 372 -501l-14 -117q-66 -500 -504 -500h-78q-118 9 -155 21l-60 -443h-280l203 1540h258l-11 -125q84 125 213 125zM602 231h76q160 0 196 277l15 117q37 274 -123 274h-55q-98 -2 -207 -160l-60 -485q63 -23 158 -23z" />
    <glyph glyph-name="q" unicode="q" horiz-adv-x="1177" 
d="M512 8q-438 0 -373 500l15 117q66 502 503 501l514 -20l-200 -1520h-279l60 443q-43 -13 -160 -21h-80zM618 231q94 0 162 23l82 625l-233 20q-160 0 -197 -274l-14 -117q-37 -276 123 -277h77z" />
    <glyph glyph-name="r" unicode="r" horiz-adv-x="866" 
d="M698 1126q110 0 260 -30l-26 -205q-160 8 -260 8q-55 -2 -156 -86l-106 -813h-279l148 1126h258l4 -45q47 45 157 45z" />
    <glyph glyph-name="s" unicode="s" horiz-adv-x="1073" 
d="M1069 1110l-29 -219l-462 2q-123 0 -125 -29l-15 -108q-2 -39 74 -54l236 -45q291 -53 260 -282l-13 -101q-37 -272 -409 -272l-504 14l29 224l499 -4q106 0 113 38l12 101q6 41 -78 57l-260 49q-248 66 -233 267l18 116q33 262 428 262z" />
    <glyph glyph-name="t" unicode="t" horiz-adv-x="835" 
d="M649 1376l-33 -250h285l-29 -219h-284l-78 -592q-8 -84 27 -86l254 9l-27 -207l-287 -27q-289 0 -244 332l74 571h-151l28 219h152l33 250h280z" />
    <glyph glyph-name="u" unicode="u" horiz-adv-x="1150" 
d="M883 1104h280l-139 -1059q-289 -37 -459 -41q-430 0 -366 485l82 615l280 2l-82 -614q-33 -246 117 -248q111 2 178 39z" />
    <glyph glyph-name="v" unicode="v" horiz-adv-x="1118" 
d="M641 4h-188q-123 0 -144 111q-129 506 -135 1011h289q-10 -424 102 -850h33q227 426 330 850h293q-141 -506 -406 -1013q-53 -109 -174 -109z" />
    <glyph glyph-name="w" unicode="w" horiz-adv-x="1644" 
d="M1305 0h-285q-76 0 -92 70q-43 393 -6 786h-11q-57 -391 -196 -784q-27 -72 -107 -72h-293q-82 0 -84 72q-53 528 -26 1054h278q-33 -440 17 -880h6q141 408 203 815q23 66 104 65h262q80 0 88 -63q-31 -412 19 -823h8q162 444 242 886h264q-100 -526 -285 -1054
q-23 -72 -106 -72z" />
    <glyph glyph-name="x" unicode="x" horiz-adv-x="1185" 
d="M717 764q199 182 272 362h305q-156 -279 -434 -559q205 -281 287 -563h-305q-27 180 -178 358h-2q-207 -178 -291 -358h-305q168 283 456 563q-215 281 -309 559h305q37 -180 197 -362h2z" />
    <glyph glyph-name="y" unicode="y" horiz-adv-x="1234" 
d="M682 293l362 833h289l-508 -1097q-184 -408 -618 -412l26 197q215 20 275 182q-41 0 -49 39q-178 547 -236 1091h299q6 -416 133 -833h27z" />
    <glyph glyph-name="z" unicode="z" horiz-adv-x="1017" 
d="M1090 1126l-11 -82q-6 -53 -49 -110l-534 -686h479l-33 -244h-870l12 82q6 51 45 102l535 691h-476l33 247h869z" />
    <glyph glyph-name="braceleft" unicode="{" horiz-adv-x="929" 
d="M965 1651h75l-28 -219q-113 0 -146 -12t-53 -43q-41 -61 -61 -232l-2 -12q-29 -237 -86 -319q-33 -48 -152 -155q102 -78 116 -134q25 -98 -3 -343q-25 -174 1 -227q13 -29 43 -41t142 -12l-31 -224q-180 0 -267 29q-169 56 -189 230q-10 83 5 197t21 196t-4 137t-39 88
t-121 55l15 111q77 10 111 37q34 26 62 62q54 69 72 212t43 254t75 194q103 171 401 171z" />
    <glyph glyph-name="bar" unicode="|" horiz-adv-x="505" 
d="M326 1669q99 12 150 12t142 -12l-262 -1988q-102 -13 -151 -13t-142 13z" />
    <glyph glyph-name="braceright" unicode="}" horiz-adv-x="929" 
d="M401 1651q291 0 355 -171q32 -83 26 -194q-6 -112 -20 -220t-10 -159q8 -97 64 -149q28 -27 102 -37l-15 -111q-98 -24 -134 -56q-37 -32 -63 -87t-40 -137t-30 -196t-46 -197q-64 -174 -251 -230q-95 -29 -276 -29l31 224q113 0 145 12q31 12 53 40q43 56 62 207
q18 151 36 229t48 135q29 56 185 137q-133 88 -148 143q-29 116 8 340q10 86 11 144q0 106 -58 130q-29 12 -141 13l29 219h77z" />
    <glyph glyph-name="asciitilde" unicode="~" horiz-adv-x="1300" 
d="M532 655q-61 0 -83 -176h-279q55 422 397 422q211 -4 295 -151q25 -53 84 -54q68 0 92 185h273q-57 -428 -400 -428q-221 18 -295 149q-29 53 -84 53z" />
    <glyph glyph-name="exclamdown" unicode="&#xa1;" horiz-adv-x="512" 
d="M49 -438l158 1112h274l-133 -1112h-299zM221 870l33 256h299l-33 -256h-299z" />
    <glyph glyph-name="cent" unicode="&#xa2;" horiz-adv-x="1157" 
d="M520 227l86 658q-119 -6 -161 -330t75 -328zM637 1124l14 111h256l-14 -121l213 -14l-29 -219l-215 4l-86 -658l215 2l-28 -215l-218 -14l-14 -106h-256l12 96q-395 6 -321 567t471 567z" />
    <glyph glyph-name="sterling" unicode="&#xa3;" horiz-adv-x="1171" 
d="M920 1516h315l-29 -222h-305q-147 0 -180 -247l-21 -164h347l-29 -207h-346l-25 -201q-27 -150 -211 -235h651l-28 -230h-942l28 217q178 117 213 252l25 197h-174l29 207h174l20 164q61 469 488 469z" />
    <glyph glyph-name="currency" unicode="&#xa4;" horiz-adv-x="995" 
d="M612 901q47 0 88 -14q94 -25 58 18l88 80l135 -160l-92 -86q-10 23 -2 -39q13 -96 -19 -180q-31 -84 -14 -61l66 -86l-177 -158l-65 78q49 43 -49 18q-43 -16 -92 -16t-88 16q-109 29 -58 -20l-88 -76l-131 156l90 84q16 -20 4 44t-7 101t24 74q32 90 12 74l-64 75
l172 160l68 -76q-55 -43 53 -22q41 16 88 16zM637 678q-16 24 -46 24q-53 0 -87 -65q-8 -36 -8 -70q15 -71 67 -71q26 0 60 29t34 73q2 16 2 33q-6 29 -22 47z" />
    <glyph glyph-name="yen" unicode="&#xa5;" horiz-adv-x="1427" 
d="M567 774l-241 785h315l195 -687l372 687h303l-442 -785h272l-26 -201h-363l-22 -38l-8 -68h378l-26 -203h-379l-35 -264h-291l35 264h-368l26 203h369l8 68l-10 38h-353l27 201h264z" />
    <glyph glyph-name="brokenbar" unicode="&#xa6;" horiz-adv-x="505" 
d="M162 418h293l-99 -744h-293zM328 1673h293l-99 -743h-293z" />
    <glyph glyph-name="section" unicode="&#xa7;" horiz-adv-x="1105" 
d="M145 23l31 221l461 -2q125 0 127 26l14 109q2 43 -73 55l-242 37q-285 59 -254 289l14 119l269 -33l-11 -86q-6 -41 78 -56l262 -51q246 -66 230 -266l-17 -117q-35 -262 -430 -262zM1169 1534l-28 -219l-465 2q-123 0 -127 -27l-14 -110q2 -41 75 -54l240 -39
q285 -57 254 -286l-14 -119l-269 31l10 88q6 41 -77 53l-260 51q-246 68 -234 269l19 116q35 260 430 260z" />
    <glyph glyph-name="dieresis" unicode="&#xa8;" horiz-adv-x="923" 
d="M678 1247l35 266h303l-35 -266h-303zM270 1247l35 266h303l-35 -266h-303z" />
    <glyph glyph-name="copyright" unicode="&#xa9;" horiz-adv-x="1810" 
d="M975 379q-311 0 -260 377q49 377 360 377q168 0 248 -136l-127 -125q-86 100 -137 101q-129 0 -159 -218t99 -218q51 0 162 96l96 -127q-119 -127 -282 -127zM903 -16q-178 0 -317 63q-273 124 -349 420q-38 143 -16 305q20 162 95 305q152 290 460 419q156 65 334 65
q178 1 316 -63q270 -124 349 -419q38 -141 16 -305t-96 -307q-153 -293 -459 -419q-154 -64 -333 -64zM1085 1378q-250 0 -424 -172t-208 -436t94 -435t376 -171t422 167q175 167 214 441q33 274 -96 440q-128 166 -378 166z" />
    <glyph glyph-name="ordfeminine" unicode="&#xaa;" horiz-adv-x="878" 
d="M561 1167h-227l22 174q154 19 254 19q330 -12 293 -289l-67 -504h-226l2 35q-61 -33 -163 -35q-258 0 -224 264q37 240 277 250h160l2 25q6 51 -31 57q-39 4 -72 4zM485 885q-6 0 -16 -67t2 -66q55 4 154 59l10 74h-150z" />
    <glyph glyph-name="guillemotleft" unicode="&#xab;" horiz-adv-x="1427" 
d="M193 578l415 483h320l-412 -481l283 -490h-314zM698 578l416 483h318l-412 -481l285 -490h-314z" />
    <glyph glyph-name="logicalnot" unicode="&#xac;" horiz-adv-x="1146" 
d="M1151 846l-82 -633h-285l50 383h-650l33 250h934z" />
    <glyph glyph-name="registered" unicode="&#xae;" horiz-adv-x="1796" 
d="M1552 772q33 275 -95 440q-128 166 -377 166t-424 -171q-174 -171 -209 -436q-34 -264 94 -436q128 -171 377 -171q248 0 423 169q174 168 211 439zM969 662h-66l-31 -232h-192l90 690h277q299 -2 268 -227q-25 -190 -137 -209l122 -254h-237zM1008 782q121 0 133 90
t-117 91h-84l-25 -181h93zM897 -16q-178 0 -317 63q-272 123 -350 420q-38 143 -15 305q20 162 95 305q152 290 460 419q156 65 334 65q178 1 316 -63q272 -125 348 -419q38 -141 16 -305t-95 -307q-153 -293 -459 -419q-154 -64 -333 -64z" />
    <glyph glyph-name="macron" unicode="&#xaf;" horiz-adv-x="851" 
d="M942 1493l-29 -213h-639l29 213h639z" />
    <glyph glyph-name="degree" unicode="&#xb0;" horiz-adv-x="897" 
d="M622 1315q-36 0 -73 -34q-37 -35 -45 -99t20 -97t64 -33q37 0 74 34q37 32 45 98t-20 98q-29 32 -65 33zM560 854q-139 0 -227 98t-71 228q16 130 125 228q49 44 118 74t143 30q140 -1 227 -99q87 -97 71 -229q-8 -63 -42 -123q-70 -121 -201 -177q-69 -30 -143 -30z" />
    <glyph glyph-name="plusminus" unicode="&#xb1;" horiz-adv-x="1159" 
d="M1085 250l-32 -246h-947l33 246h946zM526 633h-331l30 246h332l37 266h278l-36 -266h327l-30 -246h-328l-35 -266h-278z" />
    <glyph glyph-name="uni00B2" unicode="&#xb2;" horiz-adv-x="880" 
d="M854 604h-668l17 127q29 135 131 232l264 211q74 53 78 86l2 22q6 41 -20 53t-54 15q-109 0 -299 -9l27 199q182 20 280 22t172 -32q166 -74 152 -244l-4 -33q-23 -102 -174 -223l-242 -196q-15 -14 -24 -21h389z" />
    <glyph glyph-name="uni00B3" unicode="&#xb3;" horiz-adv-x="1056" 
d="M633 1184q25 0 31 6q37 119 -7 147q-6 10 -71 11l-281 -13l27 201l274 25q227 2 283 -78q47 -61 43 -172q-4 -219 -189 -236q154 -14 146 -237q-23 -106 -84 -160q-78 -80 -328 -80l-289 25l27 202l297 -12q86 0 111 10q33 20 24 117q-4 35 -45 37h-262l27 207h266z" />
    <glyph glyph-name="acute" unicode="&#xb4;" horiz-adv-x="948" 
d="M608 1229h-303l326 319h368z" />
    <glyph glyph-name="mu" unicode="&#xb5;" horiz-adv-x="1206" 
d="M622 233q89 0 159 62t87 203l84 641h297l-145 -1110h-281l13 90q-8 -21 -74 -69t-199 -48q-150 43 -151 96l-72 -557h-293l209 1598h295l-76 -580q-45 -326 147 -326z" />
    <glyph glyph-name="paragraph" unicode="&#xb6;" horiz-adv-x="1230" 
d="M995 1313l-172 -1309h-245l79 602q-71 43 -159 68q-183 52 -238 216q-28 82 -12 196q33 245 212 356q95 59 224 88q115 20 264 22h381l-205 -1548h-247l172 1309h-54z" />
    <glyph glyph-name="periodcentered" unicode="&#xb7;" horiz-adv-x="528" 
d="M164 436l37 283h315l-37 -283h-315z" />
    <glyph glyph-name="periodcentered" unicode="&#x2219;" horiz-adv-x="528" 
d="M164 436l37 283h315l-37 -283h-315z" />
    <glyph glyph-name="cedilla" unicode="&#xb8;" horiz-adv-x="757" 
d="M274 -289q88 -1 94 51q2 26 -14 37q-48 29 -198 -20l-35 55l151 301h230l-53 -102q-236 -61 -52 -62q121 0 177 -60t44 -160t-114 -160q-104 -60 -252 -60q-31 0 -79 4t-122 35q10 45 21 80q10 35 61 92q86 -31 141 -31z" />
    <glyph glyph-name="uni00B9" unicode="&#xb9;" horiz-adv-x="647" 
d="M618 598h-245l98 745l-192 -36l26 204l270 50h170z" />
    <glyph glyph-name="ordmasculine" unicode="&#xba;" horiz-adv-x="909" 
d="M623 1380q-70 0 -107 -206l-20 -160q-18 -207 51 -207h39q57 0 92 207l20 160q20 207 -36 206h-39zM559 600h-39q-319 0 -280 410l22 170q68 412 387 411h39q309 1 270 -411l-22 -170q-68 -410 -377 -410z" />
    <glyph glyph-name="guillemotright" unicode="&#xbb;" horiz-adv-x="1427" 
d="M969 90h-316l412 490l-285 481h318l288 -483zM465 90h-315l409 490l-285 481h320l289 -483z" />
    <glyph glyph-name="onequarter" unicode="&#xbc;" horiz-adv-x="1675" 
d="M221 -2l1200 1524h262l-1200 -1524h-262zM1319 520l-96 -127h80zM1548 393h92l-26 -203h-92l-27 -200h-246l27 200h-379l16 117q4 41 27 74l414 520q51 59 125 60h145zM594 559h-246l98 744l-194 -35l29 207l270 47h170z" />
    <glyph glyph-name="onehalf" unicode="&#xbd;" horiz-adv-x="1845" 
d="M1759 4h-667l16 125q29 135 133 231l264 213q72 51 76 86l4 23q4 41 -26 55q-20 8 -52 13q-106 0 -295 -9l27 201q181 18 281 20t172 -32q164 -76 149 -246l-4 -31q-23 -102 -172 -221l-244 -201q-13 -12 -21 -18h388zM594 559h-246l98 744l-194 -35l29 207l270 47h170z
M221 -2l1200 1524h262l-1200 -1524h-262z" />
    <glyph glyph-name="threequarters" unicode="&#xbe;" horiz-adv-x="1771" 
d="M1419 522l-100 -129h82zM1647 393h90l-27 -203h-90l-27 -200h-245l26 200h-379l17 117q4 41 26 74l414 520q51 59 123 60h147zM317 -2l1203 1524h262l-1202 -1524h-263zM575 936h-262l27 207h266q25 0 33 6q35 119 -6 151q-8 6 -74 7l-280 -13l26 203l277 25
q227 2 282 -76q27 -61 23 -174q-47 -231 -170 -236q170 -8 145 -239q-23 -104 -84 -160q-76 -78 -325 -78l-289 25l24 200l299 -12q86 0 111 14q33 16 25 115q-7 35 -48 35z" />
    <glyph glyph-name="questiondown" unicode="&#xbf;" horiz-adv-x="1136" 
d="M594 885l33 245h280l-33 -245h-280zM985 -344q-266 -45 -481 -47q-449 4 -402 366l11 66q27 203 276 330q145 63 166 213l20 159h285l-22 -165q-31 -236 -287 -381q-139 -70 -150 -156l-10 -66q-14 -109 154 -108q203 0 471 27z" />
    <glyph glyph-name="Agrave" unicode="&#xc0;" horiz-adv-x="1316" 
d="M1198 592l-119 614h-26l-287 -614h432zM1016 1522h176q109 0 131 -119l281 -1403h-281l-78 346h-592l-170 -346h-280l649 1403q55 119 164 119zM510 1937h373l237 -319h-301z" />
    <glyph glyph-name="Aacute" unicode="&#xc1;" horiz-adv-x="1316" 
d="M1198 592l-119 614h-26l-287 -614h432zM1016 1522h176q109 0 131 -119l281 -1403h-281l-78 346h-592l-170 -346h-280l649 1403q55 119 164 119zM1049 1618h-304l326 319h369z" />
    <glyph glyph-name="Acircumflex" unicode="&#xc2;" horiz-adv-x="1316" 
d="M1198 592l-119 614h-26l-287 -614h432zM1016 1522h176q109 0 131 -119l281 -1403h-281l-78 346h-592l-170 -346h-280l649 1403q55 119 164 119zM1305 1618h-312l-84 127l-114 -127h-314l312 319l288 -2z" />
    <glyph glyph-name="Atilde" unicode="&#xc3;" horiz-adv-x="1316" 
d="M1198 592l-119 614h-26l-287 -614h432zM1016 1522h176q109 0 131 -119l281 -1403h-281l-78 346h-592l-170 -346h-280l649 1403q55 119 164 119zM1319 1755q-143 -127 -255 -127q-68 0 -114 18t-105 50q-58 31 -94 32q-37 0 -57 -10t-116 -98l-82 190q132 132 270 132
q71 0 173 -52q101 -52 131 -53q30 0 48 10t119 105z" />
    <glyph glyph-name="Adieresis" unicode="&#xc4;" horiz-adv-x="1316" 
d="M1198 592l-119 614h-26l-287 -614h432zM1016 1522h176q109 0 131 -119l281 -1403h-281l-78 346h-592l-170 -346h-280l649 1403q55 119 164 119zM897 1636l35 267h303l-35 -267h-303zM489 1636l35 267h303l-34 -267h-304z" />
    <glyph glyph-name="Aring" unicode="&#xc5;" 
d="M854 1608q-10 -84 40 -84q49 0 60 84q14 84 -38 86q-46 2 -62 -86zM937 1860q122 0 184 -73t49 -177t-94 -178q-8 13 -7 -7q-122 -110 4 -31l279 -1394h-283l-76 346h-510l-172 -346h-280l647 1399q113 -90 14 27q24 48 -6 7q-62 62 -49 172q14 109 96 182t204 73z
M686 1433q3 -4 6 -7l-14 -27l-10 8q10 16 18 26zM1073 1394q-7 33 3 38q5 -8 14 -27q-9 -6 -17 -11zM842 1120l-246 -528h348z" />
    <glyph glyph-name="AE" unicode="&#xc6;" horiz-adv-x="1943" 
d="M1063 1116l-358 -485h294zM967 389h-406l-276 -385h-305l1083 1559h1014l-33 -256h-662l-53 -404h529l-31 -237h-529l-57 -426h657l-30 -236h-953z" />
    <glyph glyph-name="Ccedilla" unicode="&#xc7;" horiz-adv-x="1234" 
d="M581 -176q-50 0 -135 -29l-34 55l84 162q-418 39 -324 750q100 762 649 762q268 -8 522 -45l-30 -232q-262 31 -518 33q-274 0 -342 -518t206 -518q256 4 525 35l-31 -228q-240 -35 -428 -43l18 41q-260 -61 -53 -61q119 0 175 -62t46 -145q-14 -113 -117 -173t-251 -61
q-31 0 -79 3t-120 36q8 45 18 79t62 93q146 -48 212 -18q22 10 26 39t-14 37t-67 8z" />
    <glyph glyph-name="Egrave" unicode="&#xc8;" horiz-adv-x="1212" 
d="M604 1276q-29 0 -35 -51l-47 -348h596l-31 -232h-595l-46 -352q-6 -49 23 -49h739l-30 -228l-742 -16q-311 0 -272 293l123 932q41 297 350 297l741 -17l-30 -229h-744zM655 1896h373l238 -319h-301z" />
    <glyph glyph-name="Eacute" unicode="&#xc9;" horiz-adv-x="1212" 
d="M604 1276q-29 0 -35 -51l-47 -348h596l-31 -232h-595l-46 -352q-6 -49 23 -49h739l-30 -228l-742 -16q-311 0 -272 293l123 932q41 297 350 297l741 -17l-30 -229h-744zM907 1577h-303l326 319h368z" />
    <glyph glyph-name="Ecircumflex" unicode="&#xca;" horiz-adv-x="1212" 
d="M604 1276q-29 0 -35 -51l-47 -348h596l-31 -232h-595l-46 -352q-6 -49 23 -49h739l-30 -228l-742 -16q-311 0 -272 293l123 932q41 297 350 297l741 -17l-30 -229h-744zM1325 1597h-311l-84 127l-115 -127h-313l311 320l289 -2z" />
    <glyph glyph-name="Edieresis" unicode="&#xcb;" horiz-adv-x="1212" 
d="M604 1276q-29 0 -35 -51l-47 -348h596l-31 -232h-595l-46 -352q-6 -49 23 -49h739l-30 -228l-742 -16q-311 0 -272 293l123 932q41 297 350 297l741 -17l-30 -229h-744zM883 1636l35 267h303l-35 -267h-303zM475 1636l35 267h303l-35 -267h-303z" />
    <glyph glyph-name="Igrave" unicode="&#xcc;" horiz-adv-x="546" 
d="M676 1522l-201 -1522h-280l200 1522h281zM213 1958h373l237 -320h-301z" />
    <glyph glyph-name="Iacute" unicode="&#xcd;" horiz-adv-x="509" 
d="M664 1522l-201 -1522h-281l201 1522h281zM592 1638h-303l325 320h369z" />
    <glyph glyph-name="Icircumflex" unicode="&#xce;" horiz-adv-x="634" 
d="M715 1522l-201 -1522h-281l201 1522h281zM1006 1624h-312l-84 127l-114 -127h-314l312 320l288 -2z" />
    <glyph glyph-name="Idieresis" unicode="&#xcf;" horiz-adv-x="595" 
d="M688 1522l-201 -1522h-280l201 1522h280zM563 1657l35 266h303l-35 -266h-303zM156 1657l34 266h304l-35 -266h-303z" />
    <glyph glyph-name="Eth" unicode="&#xd0;" horiz-adv-x="1490" 
d="M809 1569q739 0 635 -787q-102 -786 -830 -786h-426l86 657h-151l31 232h151l90 684h414zM629 242q455 0 525 538t-392 539h-111l-57 -434h260l-31 -232h-260l-53 -411h119z" />
    <glyph glyph-name="Ntilde" unicode="&#xd1;" horiz-adv-x="1495" 
d="M487 1526h283q84 0 107 -78l235 -1198h27l164 1272h280l-192 -1438q-10 -80 -113 -80h-279q-86 0 -112 88l-234 1129h-30l-160 -1217h-281l191 1436q10 86 114 86zM1425 1796q-143 -127 -255 -127q-68 1 -114 19t-106 50t-94 31q-35 0 -55 -10t-117 -98l-82 190
q133 133 270 131q74 0 175 -52t131 -52t47 10q18 10 118 105z" />
    <glyph glyph-name="Ograve" unicode="&#xd2;" horiz-adv-x="1357" 
d="M760 1286q-229 0 -287 -432l-24 -186q-57 -432 172 -432h141q221 0 278 432l25 186q57 432 -164 432h-141zM592 4q-520 0 -432 660l24 196q88 664 609 664h131q520 0 432 -664l-25 -196q-88 -659 -608 -660h-131zM545 1958h373l237 -320h-301z" />
    <glyph glyph-name="Oacute" unicode="&#xd3;" horiz-adv-x="1357" 
d="M760 1286q-229 0 -287 -432l-24 -186q-57 -432 172 -432h141q221 0 278 432l25 186q57 432 -164 432h-141zM592 4q-520 0 -432 660l24 196q88 664 609 664h131q520 0 432 -664l-25 -196q-88 -659 -608 -660h-131zM961 1638h-304l326 320h369z" />
    <glyph glyph-name="Ocircumflex" unicode="&#xd4;" horiz-adv-x="1357" 
d="M760 1286q-229 0 -287 -432l-24 -186q-57 -432 172 -432h141q221 0 278 432l25 186q57 432 -164 432h-141zM592 4q-520 0 -432 660l24 196q88 664 609 664h131q520 0 432 -664l-25 -196q-88 -659 -608 -660h-131zM1317 1638h-311l-84 127l-115 -127h-313l311 320l289 -2z
" />
    <glyph glyph-name="Otilde" unicode="&#xd5;" horiz-adv-x="1357" 
d="M760 1286q-229 0 -287 -432l-24 -186q-57 -432 172 -432h141q221 0 278 432l25 186q57 432 -164 432h-141zM592 4q-520 0 -432 660l24 196q88 664 609 664h131q520 0 432 -664l-25 -196q-88 -659 -608 -660h-131zM1341 1817q-143 -127 -255 -127q-68 0 -114 18t-105 50
t-95 32q-35 0 -55 -10t-117 -99l-82 191q131 131 270 131q54 1 100 -19t111 -52t94 -33q30 -1 48 9t119 105z" />
    <glyph glyph-name="Odieresis" unicode="&#xd6;" horiz-adv-x="1357" 
d="M760 1286q-229 0 -287 -432l-24 -186q-57 -432 172 -432h141q221 0 278 432l25 186q57 432 -164 432h-141zM592 4q-520 0 -432 660l24 196q88 664 609 664h131q520 0 432 -664l-25 -196q-88 -659 -608 -660h-131zM895 1657l35 266h303l-35 -266h-303zM487 1657l35 266
h303l-34 -266h-304z" />
    <glyph glyph-name="multiply" unicode="&#xd7;" horiz-adv-x="1148" 
d="M645 535l-319 -291l-146 176l320 289l-246 290l192 172l246 -290l322 290l143 -174l-319 -288l243 -289l-190 -176z" />
    <glyph glyph-name="Oslash" unicode="&#xd8;" horiz-adv-x="1431" 
d="M614 4q-137 0 -231 45l-31 -41h-233l123 166q-102 166 -60 490l25 196q88 664 608 664h131q158 0 258 -62l45 60h234l-150 -199q86 -164 45 -463l-24 -196q-88 -659 -609 -660h-131zM784 236q221 0 279 432l24 186q10 86 13 154l-557 -744q41 -29 100 -28h141zM924 1286
h-142q-229 0 -286 -432l-25 -186q-16 -115 -10 -201l577 772q-43 47 -114 47z" />
    <glyph glyph-name="Ugrave" unicode="&#xd9;" 
d="M717 248h37q260 0 297 289l131 987h282l-131 -987q-70 -532 -612 -533h-37q-532 0 -463 533l131 987h285l-131 -987q-37 -289 211 -289zM623 1958h372l238 -320h-301z" />
    <glyph glyph-name="Uacute" unicode="&#xda;" 
d="M717 248h37q260 0 297 289l131 987h282l-131 -987q-70 -532 -612 -533h-37q-532 0 -463 533l131 987h285l-131 -987q-37 -289 211 -289zM1018 1638h-303l325 320h369z" />
    <glyph glyph-name="Ucircumflex" unicode="&#xdb;" 
d="M717 248h37q260 0 297 289l131 987h282l-131 -987q-70 -532 -612 -533h-37q-532 0 -463 533l131 987h285l-131 -987q-37 -289 211 -289zM1354 1638h-312l-84 127l-114 -127h-314l312 320l288 -2z" />
    <glyph glyph-name="Udieresis" unicode="&#xdc;" 
d="M717 248h37q260 0 297 289l131 987h282l-131 -987q-70 -532 -612 -533h-37q-532 0 -463 533l131 987h285l-131 -987q-37 -289 211 -289zM952 1677l35 267h303l-35 -267h-303zM545 1677l35 267h303l-35 -267h-303z" />
    <glyph glyph-name="Yacute" unicode="&#xdd;" horiz-adv-x="1146" 
d="M934 1638h-303l325 320h369zM797 804l415 716h304l-623 -1022l-66 -498h-292l65 498l-332 1022h316z" />
    <glyph glyph-name="Thorn" unicode="&#xde;" horiz-adv-x="1253" 
d="M606 483q303 0 342 287q37 289 -266 289h-88l-76 -576h88zM711 1278q590 0 522 -510q-66 -504 -655 -504h-89l-34 -268h-281l199 1513h280l-30 -231h88z" />
    <glyph glyph-name="germandbls" unicode="&#xdf;" horiz-adv-x="1241" 
d="M782 1530h39q399 0 353 -363q-12 -98 -118 -222t-114 -183q-8 -58 133 -192t125 -259q-45 -336 -463 -336h-172l31 232h172q119 0 133 110q12 82 -129 208t-129 229q11 74 117 202t114 201q20 147 -81 148h-39q-137 0 -164 -201l-146 -1100h-292l145 1102q55 424 485 424
z" />
    <glyph glyph-name="agrave" unicode="&#xe0;" horiz-adv-x="1060" 
d="M1196 1090l-143 -1086l-254 -2l10 148q-129 -143 -320 -146q-348 0 -276 545q80 553 483 565l322 -20zM885 852l-203 16q-139 -2 -209 -360q-45 -250 84 -260q147 16 270 176zM463 1548h373l237 -319h-301z" />
    <glyph glyph-name="aacute" unicode="&#xe1;" horiz-adv-x="1030" 
d="M1163 1090l-143 -1086l-254 -2l10 148q-129 -143 -319 -146q-348 0 -277 545q80 553 484 565l321 -20zM852 852l-203 16q-139 -2 -209 -360q-45 -250 84 -260q147 16 271 176zM887 1229h-303l325 319h369z" />
    <glyph glyph-name="acircumflex" unicode="&#xe2;" horiz-adv-x="1028" 
d="M1161 1090l-143 -1086l-254 -2l10 148q-129 -143 -319 -146q-348 0 -277 545q80 553 484 565l321 -20zM850 852l-203 16q-139 -2 -209 -360q-45 -250 84 -260q147 16 271 176zM1200 1229h-311l-84 127l-115 -127h-313l311 319l289 -2z" />
    <glyph glyph-name="atilde" unicode="&#xe3;" horiz-adv-x="1060" 
d="M1196 1090l-143 -1086l-254 -2l10 148q-129 -143 -320 -146q-348 0 -276 545q80 553 483 565l322 -20zM885 852l-203 16q-139 -2 -209 -360q-45 -250 84 -260q147 16 270 176zM1260 1366q-144 -127 -256 -127q-68 0 -114 18t-105 50t-95 32q-35 0 -55 -10t-117 -98
l-82 190q131 131 271 131q73 0 174 -52t131 -52t47 10q18 10 119 105z" />
    <glyph glyph-name="adieresis" unicode="&#xe4;" horiz-adv-x="1060" 
d="M1196 1090l-143 -1086l-254 -2l10 148q-129 -143 -320 -146q-348 0 -276 545q80 553 483 565l322 -20zM885 852l-203 16q-139 -2 -209 -360q-45 -250 84 -260q147 16 270 176zM813 1247l35 266h303l-35 -266h-303zM406 1247l34 266h303l-34 -266h-303z" />
    <glyph glyph-name="aring" unicode="&#xe5;" horiz-adv-x="1028" 
d="M1161 1090l-143 -1086l-254 -2l10 148q-129 -143 -319 -146q-348 0 -277 545q80 553 484 565l321 -20zM850 852l-203 16q-139 -2 -209 -360q-45 -250 84 -260q147 16 271 176zM750 1376q48 0 61 86q11 86 -39 86q-49 0 -59 -86q-11 -86 37 -86zM794 1714q122 0 185 -74
t49 -177t-96 -176t-204 -73t-184 73t-48 177t95 177t203 73z" />
    <glyph glyph-name="ae" unicode="&#xe6;" horiz-adv-x="1699" 
d="M1389 657q23 0 28 39q23 197 -98 199h-133q-99 -2 -156 -229l-2 -9h361zM567 901h-301l27 199q193 27 340 26q262 -10 311 -84q61 78 260 78h166q371 0 322 -444q-43 -246 -240 -246h-438l-8 -53q27 -158 194 -158q98 0 371 27v-209q-193 -43 -427 -43t-302 98
q-117 -102 -447 -92q-342 0 -295 362q53 346 369 363h287l6 51q14 106 -80 123q-63 2 -115 2zM731 498h-280q-45 -10 -70 -148q-18 -137 43 -137q109 3 212 25t95 260z" />
    <glyph glyph-name="ccedilla" unicode="&#xe7;" horiz-adv-x="1017" 
d="M436 -469q-31 0 -80 4t-120 35q10 45 20 80t61 92q87 -31 137 -31q92 0 99 53q2 25 -14 35q-48 30 -199 -20l-35 55l84 168q-311 39 -244 553q74 569 523 569l417 -24l-28 -219l-418 6q-170 0 -214 -332t126 -332l420 6l-29 -215l-321 -18l18 39q-242 -63 -57 -64
q121 0 177 -60t44 -160q-11 -100 -115 -160t-252 -60z" />
    <glyph glyph-name="egrave" unicode="&#xe8;" horiz-adv-x="1075" 
d="M817 657q23 0 29 39q25 197 -98 199h-134q-109 -2 -159 -238h362zM629 219q98 0 370 27v-209q-193 -43 -405 -43q-498 0 -424 563t463 563h166q371 0 321 -444q-43 -246 -237 -246h-455q-8 -211 201 -211zM399 1548h373l238 -319h-301z" />
    <glyph glyph-name="eacute" unicode="&#xe9;" horiz-adv-x="1054" 
d="M797 657q22 0 28 39q25 197 -98 199h-133q-109 -2 -160 -238h363zM608 219q98 0 371 27v-209q-193 -43 -406 -43q-497 0 -423 563t462 563h166q371 0 322 -444q-43 -246 -238 -246h-454q-8 -211 200 -211zM815 1229h-303l326 319h368z" />
    <glyph glyph-name="ecircumflex" unicode="&#xea;" horiz-adv-x="1071" 
d="M813 657q23 0 29 39q25 197 -99 199h-133q-109 -2 -159 -238h362zM625 219q98 0 370 27v-209q-193 -43 -405 -43q-498 0 -424 563t463 563h166q371 0 321 -444q-43 -246 -237 -246h-455q-8 -211 201 -211zM1208 1229h-311l-84 127l-115 -127h-313l311 319l289 -2z" />
    <glyph glyph-name="edieresis" unicode="&#xeb;" horiz-adv-x="1071" 
d="M813 657q23 0 29 39q25 197 -99 199h-133q-109 -2 -159 -238h362zM625 219q98 0 370 27v-209q-193 -43 -405 -43q-498 0 -424 563t463 563h166q371 0 321 -444q-43 -246 -237 -246h-455q-8 -211 201 -211zM786 1247l35 266h303l-34 -266h-304zM379 1247l35 266h303
l-35 -266h-303z" />
    <glyph glyph-name="igrave" unicode="&#xec;" horiz-adv-x="784" 
d="M211 1608h371l241 -320h-303zM707 1128l-150 -1132h-293l150 1132h293z" />
    <glyph glyph-name="iacute" unicode="&#xed;" horiz-adv-x="755" 
d="M573 1288h-303l324 320h369zM625 1120l-148 -1116h-276l147 1116h277z" />
    <glyph glyph-name="icircumflex" unicode="&#xee;" horiz-adv-x="755" 
d="M991 1288h-311l-84 127l-117 -127h-311l309 320l291 -2zM696 1120l-147 -1116h-277l148 1116h276z" />
    <glyph glyph-name="idieresis" unicode="&#xef;" horiz-adv-x="681" 
d="M588 1307l35 266h303l-35 -266h-303zM180 1307l35 266h303l-35 -266h-303zM649 1120l-147 -1116h-279l148 1116h278z" />
    <glyph glyph-name="eth" unicode="&#xf0;" horiz-adv-x="1304" 
d="M487 0q-418 0 -352 496l4 36q66 492 484 492h223q76 -6 158 -27q16 117 -17 193l-151 -129l-131 162l118 102q-57 14 -133 14l35 260q211 0 342 -65l131 111l133 -160l-106 -92q90 -147 57 -398l-25 -190q-106 -805 -770 -805zM811 764h-164q-195 0 -227 -229l-4 -37
q-27 -238 168 -238q324 0 385 471q-90 33 -158 33z" />
    <glyph glyph-name="ntilde" unicode="&#xf1;" horiz-adv-x="1165" 
d="M707 1126h133q381 0 315 -501l-82 -625h-276l82 625q37 274 -68 274h-131q-96 -2 -164 -141l-96 -758h-281l148 1126h258l-6 -100q57 100 168 100zM664 1573q71 0 172 -52t131 -52q31 -1 49 9t119 105l82 -197q-143 -126 -255 -126q-68 0 -115 18q-46 18 -105 50t-95 32
q-35 0 -55 -10t-117 -99l-82 191q131 131 271 131z" />
    <glyph glyph-name="ograve" unicode="&#xf2;" horiz-adv-x="1144" 
d="M643 895q-160 0 -197 -277l-16 -116q-37 -276 123 -277h115q160 0 196 277l17 116q37 276 -123 277h-115zM639 4h-115q-432 0 -366 498l16 116q66 502 498 502h114q439 0 373 -502l-16 -116q-66 -498 -504 -498zM436 1548h373l238 -319h-302z" />
    <glyph glyph-name="oacute" unicode="&#xf3;" horiz-adv-x="1124" 
d="M623 895q-160 0 -197 -277l-16 -116q-37 -276 122 -277h115q160 0 197 277l16 116q37 276 -123 277h-114zM618 4h-114q-432 0 -367 498l17 116q66 502 497 502h115q439 0 373 -502l-17 -116q-66 -498 -504 -498zM831 1229h-303l326 319h369z" />
    <glyph glyph-name="ocircumflex" unicode="&#xf4;" horiz-adv-x="1140" 
d="M639 895q-160 0 -197 -277l-16 -116q-37 -276 123 -277h115q160 0 196 277l17 116q37 276 -123 277h-115zM635 4h-115q-432 0 -366 498l16 116q66 502 498 502h114q439 0 373 -502l-16 -116q-66 -498 -504 -498zM1225 1229h-312l-84 127l-114 -127h-314l312 319l288 -2z
" />
    <glyph glyph-name="otilde" unicode="&#xf5;" horiz-adv-x="1140" 
d="M639 895q-160 0 -197 -277l-16 -116q-37 -276 123 -277h115q160 0 196 277l17 116q37 276 -123 277h-115zM635 4h-115q-432 0 -366 498l16 116q66 502 498 502h114q439 0 373 -502l-16 -116q-66 -498 -504 -498zM1243 1378q-143 -127 -247 -127t-194 50t-127 50
q-37 1 -57 -9t-116 -99l-82 191q131 131 270 131q74 0 173 -52t130 -52q31 -1 49 9t119 105z" />
    <glyph glyph-name="odieresis" unicode="&#xf6;" horiz-adv-x="1140" 
d="M639 895q-160 0 -197 -277l-16 -116q-37 -276 123 -277h115q160 0 196 277l17 116q37 276 -123 277h-115zM635 4h-115q-432 0 -366 498l16 116q66 502 498 502h114q439 0 373 -502l-16 -116q-66 -498 -504 -498zM803 1247l35 266h303l-35 -266h-303zM395 1247l35 266h303
l-35 -266h-303z" />
    <glyph glyph-name="divide" unicode="&#xf7;" horiz-adv-x="1159" 
d="M451 209l38 285h318l-39 -285h-317zM555 989l37 285h317l-37 -285h-317zM1167 870l-32 -247h-947l33 247h946z" />
    <glyph glyph-name="oslash" unicode="&#xf8;" horiz-adv-x="1261" 
d="M672 4h-115q-104 0 -182 31l-25 -31h-235l121 146q-74 123 -46 352l17 116q66 502 498 502h114q115 0 197 -35l20 27h236l-121 -147q70 -123 41 -347l-16 -116q-66 -498 -504 -498zM586 225h114q160 0 197 277l16 116q4 37 7 68l-379 -455q20 -6 45 -6zM791 895h-115
q-160 0 -197 -277l-16 -116q-6 -47 -6 -88l391 469q-25 12 -57 12z" />
    <glyph glyph-name="ugrave" unicode="&#xf9;" horiz-adv-x="1140" 
d="M915 1104h281l-139 -1059q-289 -37 -459 -41q-430 0 -367 485l82 615l281 2l-82 -614q-33 -246 117 -248q111 2 178 39zM440 1548h373l238 -319h-301z" />
    <glyph glyph-name="uacute" unicode="&#xfa;" horiz-adv-x="1136" 
d="M911 1104h281l-139 -1059q-289 -37 -459 -41q-430 0 -367 485l82 615l281 2l-82 -614q-33 -246 117 -248q111 2 178 39zM872 1229h-303l326 319h369z" />
    <glyph glyph-name="ucircumflex" unicode="&#xfb;" horiz-adv-x="1114" 
d="M920 1104h280l-139 -1059q-289 -37 -459 -41q-430 0 -366 485l81 615l281 2l-82 -614q-33 -246 117 -248q111 2 178 39zM1237 1229h-311l-84 127l-115 -127h-313l311 319l289 -2z" />
    <glyph glyph-name="udieresis" unicode="&#xfc;" horiz-adv-x="1144" 
d="M920 1104h280l-139 -1059q-289 -37 -459 -41q-430 0 -366 485l81 615l281 2l-82 -614q-33 -246 117 -248q111 2 178 39zM815 1247l35 266h303l-35 -266h-303zM408 1247l34 266h303l-34 -266h-303z" />
    <glyph glyph-name="yacute" unicode="&#xfd;" horiz-adv-x="1081" 
d="M682 293l362 833h289l-508 -1097q-184 -408 -618 -412l26 197q215 20 275 182q-41 0 -49 39q-178 547 -236 1091h299q6 -416 133 -833h27zM831 1229h-303l326 319h369z" />
    <glyph glyph-name="thorn" unicode="&#xfe;" horiz-adv-x="1298" 
d="M623 233q289 0 335 353q41 313 -247 313h-142l-88 -666h142zM741 1139q580 0 508 -553q-78 -592 -657 -592h-141l-62 -463h-278l266 2032h278l-55 -424h141z" />
    <glyph glyph-name="ydieresis" unicode="&#xff;" horiz-adv-x="1087" 
d="M688 293l363 833h288l-508 -1097q-184 -408 -618 -412l27 197q215 20 274 182q-41 0 -49 39q-178 547 -236 1091h299q6 -416 134 -833h26zM813 1247l35 266h303l-35 -266h-303zM406 1247l34 266h303l-34 -266h-303z" />
    <glyph glyph-name="Amacron" unicode="&#x100;" horiz-adv-x="1316" 
d="M1198 592l-119 614h-26l-287 -614h432zM1016 1522h176q109 0 131 -119l281 -1403h-281l-78 346h-592l-170 -346h-280l649 1403q55 119 164 119zM1192 1903l-29 -213h-639l29 213h639z" />
    <glyph glyph-name="amacron" unicode="&#x101;" horiz-adv-x="1060" 
d="M1196 1090l-143 -1086l-254 -2l10 148q-129 -143 -320 -146q-348 0 -276 545q80 553 483 565l322 -20zM885 852l-203 16q-139 -2 -209 -360q-45 -250 84 -260q147 16 270 176zM1073 1493l-29 -213h-638l28 213h639z" />
    <glyph glyph-name="Emacron" unicode="&#x112;" horiz-adv-x="1212" 
d="M604 1276q-29 0 -35 -51l-47 -348h596l-31 -232h-595l-46 -352q-6 -49 23 -49h739l-30 -228l-742 -16q-311 0 -272 293l123 932q41 297 350 297l741 -17l-30 -229h-744zM1167 1903l-28 -213h-639l28 213h639z" />
    <glyph glyph-name="emacron" unicode="&#x113;" horiz-adv-x="1071" 
d="M813 657q23 0 29 39q25 197 -99 199h-133q-109 -2 -159 -238h362zM625 219q98 0 370 27v-209q-193 -43 -405 -43q-498 0 -424 563t463 563h166q371 0 321 -444q-43 -246 -237 -246h-455q-8 -211 201 -211zM1087 1493l-28 -213h-639l29 213h638z" />
    <glyph glyph-name="Imacron" unicode="&#x12a;" horiz-adv-x="526" 
d="M666 1522l-201 -1522h-281l201 1522h281zM836 1903l-29 -213h-639l29 213h639z" />
    <glyph glyph-name="imacron" unicode="&#x12b;" horiz-adv-x="548" 
d="M616 1120l-147 -1116h-276l147 1116h276zM844 1493l-29 -213h-639l29 213h639z" />
    <glyph glyph-name="dotlessi" unicode="&#x131;" horiz-adv-x="552" 
d="M555 1120l-147 -1116h-277l148 1116h276z" />
    <glyph glyph-name="Omacron" unicode="&#x14c;" horiz-adv-x="1357" 
d="M760 1286q-229 0 -287 -432l-24 -186q-57 -432 172 -432h141q221 0 278 432l25 186q57 432 -164 432h-141zM592 4q-520 0 -432 660l24 196q88 664 609 664h131q520 0 432 -664l-25 -196q-88 -659 -608 -660h-131zM1194 1903l-29 -213h-639l29 213h639z" />
    <glyph glyph-name="omacron" unicode="&#x14d;" horiz-adv-x="1140" 
d="M639 895q-160 0 -197 -277l-16 -116q-37 -276 123 -277h115q160 0 196 277l17 116q37 276 -123 277h-115zM635 4h-115q-432 0 -366 498l16 116q66 502 498 502h114q439 0 373 -502l-16 -116q-66 -498 -504 -498zM1108 1493l-29 -213h-639l29 213h639z" />
    <glyph glyph-name="Umacron" unicode="&#x16a;" 
d="M717 248h37q260 0 297 289l131 987h282l-131 -987q-70 -532 -612 -533h-37q-532 0 -463 533l131 987h285l-131 -987q-37 -289 211 -289zM1247 1903l-28 -213h-639l28 213h639z" />
    <glyph glyph-name="umacron" unicode="&#x16b;" horiz-adv-x="1140" 
d="M915 1104h281l-139 -1059q-289 -37 -459 -41q-430 0 -367 485l82 615l281 2l-82 -614q-33 -246 117 -248q111 2 178 39zM1055 1493l-29 -213h-639l29 213h639z" />
    <glyph glyph-name="florin" unicode="&#x192;" horiz-adv-x="884" 
d="M631 1126h280l-28 -219h-281l-117 -887q-45 -346 -508 -346l21 228q190 0 207 127l114 878h-137l29 219h137l12 88q45 348 457 349l217 -29l-28 -205l-218 8q-129 0 -145 -127z" />
    <glyph glyph-name="circumflex" unicode="&#x2c6;" horiz-adv-x="1103" 
d="M1126 1229h-311l-84 127l-115 -127h-313l311 319l289 -2z" />
    <glyph glyph-name="caron" unicode="&#x2c7;" horiz-adv-x="1103" 
d="M862 1231l-291 -2l-225 319h313l80 -127l119 127h311z" />
    <glyph glyph-name="uni02C9" unicode="&#x2c9;" horiz-adv-x="776" 
d="M942 1554l-29 -213h-639l29 213h639z" />
    <glyph glyph-name="breve" unicode="&#x2d8;" horiz-adv-x="983" 
d="M654 1214q-133 0 -227 62q-52 35 -83 95t-29 177h277q-6 -74 13 -97t33 -31t41 -7q74 0 102 63q9 19 22 72h276q-27 -117 -75 -177q-128 -157 -350 -157z" />
    <glyph glyph-name="dotaccent" unicode="&#x2d9;" horiz-adv-x="526" 
 />
    <glyph glyph-name="ring" unicode="&#x2da;" horiz-adv-x="745" 
d="M614 1462q11 86 -38 86q-48 0 -59 -86t37 -86q50 0 60 86zM597 1714q122 0 185 -74t49 -177t-96 -176t-204 -73t-184 73t-48 177t95 177t203 73z" />
    <glyph glyph-name="ogonek" unicode="&#x2db;" horiz-adv-x="751" 
d="M573 -432q-106 -39 -194 -39q-145 0 -233 59q-87 60 -70 176q10 74 71 161t170 161h291q-232 -156 -246 -271q-11 -89 50 -89q39 0 145 24z" />
    <glyph glyph-name="tilde" unicode="&#x2dc;" horiz-adv-x="1064" 
d="M1184 1796q-144 -127 -256 -127q-68 1 -114 19t-106 50q-60 31 -94 31q-35 0 -55 -10t-117 -98l-82 190q133 133 271 131q73 0 174 -52t131 -52t47 10q18 10 119 105z" />
    <glyph glyph-name="hungarumlaut" unicode="&#x2dd;" 
d="M1065 1165h-301l319 322h351zM600 1165h-303l317 322h355z" />
    <glyph glyph-name="endash" unicode="&#x2013;" horiz-adv-x="1312" 
d="M1300 709l-32 -246h-1100l33 246h1099z" />
    <glyph glyph-name="emdash" unicode="&#x2014;" horiz-adv-x="2312" 
d="M2300 709l-33 -246h-2099l33 246h2099z" />
    <glyph glyph-name="quoteleft" unicode="&#x2018;" horiz-adv-x="634" 
d="M647 967h-276l-58 536h283z" />
    <glyph glyph-name="quoteright" unicode="&#x2019;" horiz-adv-x="634" 
d="M436 1503h283l-201 -536h-276z" />
    <glyph glyph-name="quotesinglbase" unicode="&#x201a;" horiz-adv-x="634" 
d="M279 309h282l-201 -536h-276z" />
    <glyph glyph-name="quotedblleft" unicode="&#x201c;" horiz-adv-x="1021" 
d="M647 967h-276l-58 536h283zM1034 967h-276l-58 536h283z" />
    <glyph glyph-name="quotedblright" unicode="&#x201d;" horiz-adv-x="937" 
d="M823 1503h281l-199 -536h-276zM436 1503h283l-201 -536h-276z" />
    <glyph glyph-name="quotedblbase" unicode="&#x201e;" horiz-adv-x="937" 
d="M670 336h280l-198 -537h-277zM283 336h282l-200 -537h-277z" />
    <glyph glyph-name="dagger" unicode="&#x2020;" horiz-adv-x="1077" 
d="M498 778h-289l31 240h288l72 536h291l-72 -536h285l-31 -240h-285l-145 -1108h-291z" />
    <glyph glyph-name="daggerdbl" unicode="&#x2021;" horiz-adv-x="1077" 
d="M418 170h-289l31 242h289l59 444h-289l33 244h289l59 454h291l-60 -454h285l-33 -244h-284l-60 -444h285l-31 -242h-284l-66 -500h-291z" />
    <glyph glyph-name="bullet" unicode="&#x2022;" horiz-adv-x="827" 
d="M713 575q-103 -94 -236 -94t-209 92q-75 92 -59 207q16 114 115 204q99 91 233 90q135 -1 208 -92t58 -204q-16 -113 -110 -203z" />
    <glyph glyph-name="ellipsis" unicode="&#x2026;" horiz-adv-x="1210" 
d="M418 248l-33 -244h-279l33 244h279zM827 248l-32 -244h-279l33 244h278zM1237 248l-33 -244h-278l32 244h279z" />
    <glyph glyph-name="perthousand" unicode="&#x2030;" horiz-adv-x="2369" 
d="M1278 -6q-358 0 -315 330l12 100q47 348 405 348q240 0 297 -141q94 141 332 141q360 0 313 -348l-12 -100q-43 -330 -403 -330q-238 0 -297 137q-92 -137 -332 -137zM1927 201q121 0 137 118l13 101q18 147 -103 147q-104 0 -123 -147l-12 -101q-16 -118 88 -118z
M1298 201q121 0 138 118l12 101q18 147 -102 147q-104 0 -123 -147l-13 -101q-16 -118 88 -118zM217 -2l1202 1524h301l-1202 -1524h-301zM580 942q121 0 135 123l14 96q18 150 -102 150q-104 0 -123 -150l-15 -96q-13 -123 91 -123zM558 737q-360 0 -314 332l12 96
q47 352 406 353q360 0 313 -353l-12 -96q-45 -332 -405 -332z" />
    <glyph glyph-name="guilsinglleft" unicode="&#x2039;" horiz-adv-x="923" 
d="M193 578l415 483h320l-412 -481l283 -490h-314z" />
    <glyph glyph-name="guilsinglright" unicode="&#x203a;" horiz-adv-x="923" 
d="M465 90h-315l409 490l-285 481h320l289 -483z" />
    <glyph glyph-name="exclamdbl" unicode="&#x203c;" horiz-adv-x="970" 
d="M1065 1528l-160 -1110h-274l133 1110h301zM897 264l-35 -260h-299l35 260h299zM606 1528l-157 -1110h-275l133 1110h299zM440 264l-34 -260h-300l35 260h299z" />
    <glyph glyph-name="fraction" unicode="&#x2044;" horiz-adv-x="1542" 
d="M127 -2l1200 1524h283l-1202 -1524h-281z" />
    <glyph glyph-name="fraction" unicode="&#x2215;" horiz-adv-x="1542" 
d="M127 -2l1200 1524h283l-1202 -1524h-281z" />
    <glyph glyph-name="franc" unicode="&#x20a3;" horiz-adv-x="1312" 
d="M631 1276q-29 0 -35 -51l-45 -344h596l-33 -248h-596l-31 -221h279l-18 -148h-279l-35 -264h-280l34 264h-108l18 148h109l108 813q39 297 349 297l741 -17l-31 -229h-743z" />
    <glyph glyph-name="lira" unicode="&#x20a4;" horiz-adv-x="1183" 
d="M920 1516h315l-29 -222h-303q-150 0 -182 -247l-8 -68h346l-17 -121h-346l-24 -196h346l-17 -123h-346l-8 -64q-31 -174 -115 -235h555l-28 -230h-942l28 217q178 117 213 252l9 60h-174l16 123h174l25 196h-175l17 121h174l8 68q61 469 488 469z" />
    <glyph glyph-name="peseta" unicode="&#x20a7;" horiz-adv-x="1966" 
d="M844 541h-385l-72 -537h-281l201 1520h666q408 0 390 -406h73l32 250h279l-33 -250h287l-29 -219h-286l-78 -590q-6 -86 24 -88l258 8l-28 -209l-287 -24q-287 0 -244 330l76 573h-78q-103 -358 -485 -358zM831 786q203 0 235 246t-185 246h-326l-63 -492h339z" />
    <glyph glyph-name="Euro" unicode="&#x20ac;" horiz-adv-x="1433" 
d="M616 655h603l-17 -131h-581q4 -281 217 -280q256 4 524 35l-31 -228q-260 -39 -532 -47q-471 0 -461 520h-162l17 131h145l31 242h-144l17 129h166q133 498 591 498q268 -8 523 -45l-31 -232q-262 31 -518 33q-203 0 -283 -254h578l-17 -129h-602z" />
    <glyph glyph-name="uni2116" unicode="&#x2116;" horiz-adv-x="2392" 
d="M1903 1290q-160 0 -197 -276l-14 -117q-37 -276 123 -276h114q160 0 197 276l14 117q37 276 -123 276h-114zM1901 397h-115q-390 0 -375 407l-96 -720q-10 -80 -113 -80h-176q-86 0 -115 90l-381 987l-143 -1077h-281l191 1436q10 86 115 86h180q84 0 108 -80l383 -1045
l144 1121h280l-53 -396q96 390 477 390h115q439 0 373 -502l-15 -117q-66 -500 -503 -500zM2290 340l-31 -236h-895l31 236h895z" />
    <glyph glyph-name="trademark" unicode="&#x2122;" horiz-adv-x="1867" 
d="M1128 1530h117q70 0 90 -57l109 -398l215 395q29 57 96 58h121q86 0 78 -66l-107 -803h-217l60 449l-138 -252q-33 -68 -102 -68h-78q-72 0 -94 68l-76 256l-59 -453h-217l106 803q8 68 96 68zM999 1528l-22 -178h-229l-93 -693h-217l92 693h-245l22 178h692z" />
    <glyph glyph-name="estimated" unicode="&#x212e;" horiz-adv-x="1263" 
d="M769 936q-57 0 -115 -25t-91 -53l-22 -174h381l24 182q-20 26 -70 48t-107 22zM1059 125q-219 -131 -401 -131q-239 0 -374 170q-134 170 -105 398t217 400q187 172 401 173q214 2 340 -160t98 -391l-14 -101h-707l-29 -219q21 -26 73 -48q110 -47 270 3q79 25 257 141z
" />
    <glyph glyph-name="partialdiff" unicode="&#x2202;" horiz-adv-x="1957" 
d="M748 1294h-379l28 209q235 6 428 6q477 -14 432 -503q-16 -123 -75 -365q-60 -242 -200 -419t-472 -210q-440 0 -379 473q80 545 483 564q211 0 369 -99q18 72 -4 194q-23 122 -152 148q-14 2 -79 2zM938 723q-170 86 -348 86q-127 -20 -182 -338q-29 -223 131 -223
q166 2 261 148t138 327z" />
    <glyph glyph-name="Delta" unicode="&#x2206;" horiz-adv-x="1521" 
d="M1053 244l-152 862l-373 -862h525zM805 1516h313l287 -1512h-1288z" />
    <glyph glyph-name="product" unicode="&#x220f;" horiz-adv-x="1695" 
d="M508 1290h-232l31 242h1483l-31 -242h-227l-215 -1638h-303l215 1638h-418l-215 -1638h-303z" />
    <glyph glyph-name="summation" unicode="&#x2211;" horiz-adv-x="1337" 
d="M688 625l-336 907h1073l-30 -242h-633l252 -669l-469 -727h672l-31 -242h-1108z" />
    <glyph glyph-name="minus" unicode="&#x2212;" horiz-adv-x="1159" 
d="M1165 850l-32 -246h-947l33 246h946z" />
    <glyph glyph-name="radical" unicode="&#x221a;" horiz-adv-x="1458" 
d="M408 598l-230 -70l29 226l428 176l100 -524l537 1290h293l-736 -1692h-297z" />
    <glyph glyph-name="infinity" unicode="&#x221e;" horiz-adv-x="1689" 
d="M628 981q90 0 184 -61t138 -140q72 82 178 140t198 59q180 0 268 -118q89 -118 65 -281q-19 -158 -139 -280q-118 -120 -302 -120q-90 0 -186 62q-94 62 -141 139q-72 -84 -178 -141q-107 -58 -197 -58q-184 -1 -268 117q-85 118 -66 283q24 167 146 283t300 116z
M1251 414q43 0 84 42t51 124q12 82 -18 122t-60 41q-56 0 -83 -20q-71 -53 -150 -143q61 -96 96 -127t49 -35t31 -4zM536 418q30 0 57 5q28 5 78 56q50 52 97 105q-101 159 -176 164q-43 0 -84 -43t-52 -125q-10 -82 20 -122t60 -40z" />
    <glyph glyph-name="integral" unicode="&#x222b;" horiz-adv-x="1177" 
d="M1071 1565h209l-31 -230h-190q-73 0 -102 -25q-53 -45 -66 -149l-160 -1200q0 -100 -43 -186q-123 -246 -452 -246h-191l31 233h190q77 0 103 24q50 48 63 146l160 1205l4 34q25 180 133 281q135 113 342 113z" />
    <glyph glyph-name="approxequal" unicode="&#x2248;" horiz-adv-x="1222" 
d="M850 395q-53 -1 -102 15t-124 42t-114 27q-39 0 -73 -11t-138 -108l-104 201q63 70 154 111t165 41q74 1 122 -15t123 -42q75 -25 114 -25t69 10t135 107l97 -213q-144 -140 -324 -140zM895 760q-72 0 -190 41t-155 42q-38 1 -70 -10t-136 -108l-104 201q61 66 152 108
t165 43q74 0 122 -16t118 -40t114 -25q43 0 73 10t134 106l103 -217q-155 -135 -326 -135z" />
    <glyph glyph-name="notequal" unicode="&#x2260;" horiz-adv-x="1173" 
d="M768 655h369l-33 -245h-475l-170 -297l-207 102l108 195h-204l32 245h312l82 146h-375l33 246h481l162 282l209 -100l-103 -182h199l-33 -246h-305z" />
    <glyph glyph-name="lessequal" unicode="&#x2264;" horiz-adv-x="1159" 
d="M1085 250l-32 -246h-947l33 246h946zM1210 1300l-32 -266l-650 -246l588 -233l-41 -279l-878 390l32 249z" />
    <glyph glyph-name="greaterequal" unicode="&#x2265;" horiz-adv-x="1159" 
d="M1085 250l-32 -246h-947l33 246h946zM1171 915l-32 -249l-981 -390l32 279l650 233l-588 246l41 266z" />
    <glyph glyph-name="lozenge" unicode="&#x25ca;" horiz-adv-x="1259" 
d="M782 1167l-266 -409l162 -410l264 410zM721 1522h215l311 -764l-508 -762h-215l-311 762z" />
    <glyph glyph-name="uniFFFC" unicode="&#xfffc;" horiz-adv-x="2074" 
d="M1526 393q98 0 119 101l57 444h74l-58 -444q-33 -168 -200 -175h-64l8 74h64zM1198 399q119 0 131 105q14 106 -90 106h-164l-26 -211h149zM1225 678q117 0 129 92q12 102 -105 102h-139l-25 -194h140zM1270 946q186 0 164 -172q-14 -111 -121 -129q117 -20 102 -139
q-29 -172 -231 -178h-219l82 618h223zM715 870q-127 0 -154 -200l-10 -82q-27 -201 100 -201h62q123 0 149 201l10 82q27 201 -96 200h-61zM645 319q-205 0 -170 269l10 84q35 268 240 268h57q203 0 168 -268l-10 -84q-35 -268 -238 -269h-57zM1999 156h-127l35 258h127z
M2093 879h-127l35 260h127zM2046 516h-127l35 262h127zM246 156h-129l35 258h129zM340 879h-129l35 260h129zM293 516h-129l35 262h129zM475 -266l17 129h286l-16 -129h-287zM858 -266l16 129h287l-16 -129h-287zM1241 -266l16 129h289l-16 -129h-289zM694 1401l17 131h286
l-16 -131h-287zM1077 1401l17 131h286l-16 -131h-287zM1460 1401l17 131h288l-16 -131h-289zM1843 1401l17 131h319l-37 -295h-127l21 164h-193zM260 1237l37 295h317l-16 -131h-188l-21 -164h-129zM1624 -266l16 129h193l27 194h127l-43 -323h-320zM61 -266l43 323h129
l-26 -194h188l-16 -129h-318z" />
    <glyph glyph-name="uniFFFD" unicode="&#xfffd;" horiz-adv-x="2170" 
d="M1315 1755l850 -997l-1112 -998l-846 998zM1053 424l-21 -162h162l20 162h-161zM1240 1024q118 0 110 -57l-4 -41q-6 -43 -93 -84q-162 -90 -180 -240l-14 -106h166l12 102q12 84 100 121q156 78 174 207l5 41q31 225 -242 227q-131 0 -293 -27l-20 -157q161 14 279 14z
" />
    <glyph glyph-name="alt.g" horiz-adv-x="1214" 
d="M666 872q-135 0 -156 -151l-45 -348q-12 -92 123 -92h35l227 36l59 467q-76 80 -192 88h-51zM702 1149h54q184 -12 213 -49l12 43h256l-154 -1174q-29 -221 -209 -305q-129 -61 -356 -61q-113 0 -342 26l82 267q180 -27 284 -27t179 19q76 19 86 94l8 59l-221 -37h-43
q-424 0 -375 369l45 344q57 432 481 432z" />
    </font>
</defs>
</svg>
