<?xml version="1.0" standalone="no"?>
<!DOCTYPE svg PUBLIC "-//W3C//DTD SVG 1.1//EN" "http://www.w3.org/Graphics/SVG/1.1/DTD/svg11.dtd" >
<svg xmlns="http://www.w3.org/2000/svg">
<metadata>
Created by FontPrep 20130207 at Thu Sep 24 14:08:56 2015
 By Brian Stephens
Esphimere (c)Dichi. 2015. All Rights Reserved
</metadata>
<defs>
<font id="88b88a7367b524fd31d588b639594135" horiz-adv-x='1024' >
  <font-face 
    font-family="Esphimere-Light"
    font-weight="300"
    font-stretch="normal"
    units-per-em="2048"
    panose-1="2 11 4 3 3 0 0 2 0 4"
    ascent="1638"
    descent="-410"
    x-height="1114"
    cap-height="1520"
    bbox="-82 -475 2308 1896.06"
    underline-thickness="102"
    underline-position="-102"
    unicode-range="U+001D-FFFD"
  />
<missing-glyph horiz-adv-x="1173" 
d="M221 1423v-1273h731v1273h-731zM1067 1538v-1503h-961v1503h961z" />
    <glyph glyph-name="uniF001" unicode="fi" horiz-adv-x="1159" 
d="M1004 1120v-1118h-113v1012h-588v-1012h-115v1012h-143v106h143v99q0 342 400 342q86 0 194 -29v-111q-117 35 -194 37q-285 0 -285 -246v-92h701zM1004 1561v-232h-113v232h113z" />
    <glyph glyph-name="uniF002" unicode="fl" horiz-adv-x="1376" 
d="M969 350q0 -238 196 -237l187 8v-94l-183 -27q-313 0 -313 354v1069q-150 33 -268 35q-285 0 -285 -246v-92h412v-106h-412v-1012h-115v1012h-143v106h143v99q0 342 400 342q123 0 297 -27l84 -18v-1166z" />
    <glyph glyph-name="uniFB00" unicode="ff" horiz-adv-x="1517" 
d="M319 1014v-1012h-114v1012h-142v106h142v99q0 342 399 342q86 0 197 -29v-111q-119 35 -197 37q-285 0 -285 -246v-92h652v99q0 342 399 342q88 0 197 -29v-111q-117 35 -197 37q-285 0 -285 -246v-92h412v-106h-412v-1012h-114v1012h-652z" />
    <glyph glyph-name="uniFB03" unicode="ffi" horiz-adv-x="1902" 
d="M1788 1120v-1118h-113v1012h-588v-1012h-114v1012h-654v-1012h-114v1012h-142v106h142v99q0 342 399 342q88 0 197 -29v-111q-117 35 -197 37q-285 0 -285 -246v-92h654v99q0 342 399 342q86 0 195 -29v-111q-117 35 -195 37q-285 0 -285 -246v-92h701zM1788 1561v-232
h-113v232h113z" />
    <glyph glyph-name="uniFB04" unicode="ffl" horiz-adv-x="2160" 
d="M973 1014h-651v-1012h-115v1012h-144v106h144v99q0 342 399 342q86 0 195 -29v-111q-117 35 -197 37q-283 0 -282 -246v-92h651v99q0 342 399 342q123 0 299 -27l82 -18v-1166q0 -238 197 -237l186 8v-94l-182 -27q-313 0 -314 354v1069q-150 33 -268 35
q-285 0 -285 -246v-92h412v-106h-412v-1012h-114v1012z" />
    <glyph glyph-name=".notdef" horiz-adv-x="1173" 
d="M221 1423v-1273h731v1273h-731zM1067 1538v-1503h-961v1503h961z" />
    <glyph glyph-name=".null" horiz-adv-x="0" 
 />
    <glyph glyph-name=".null" horiz-adv-x="0" 
 />
    <glyph glyph-name="nonmarkingreturn" horiz-adv-x="1091" 
 />
    <glyph glyph-name="space" unicode=" " horiz-adv-x="464" 
 />
    <glyph glyph-name="space" unicode="&#xa0;" horiz-adv-x="464" 
 />
    <glyph glyph-name="exclam" unicode="!" horiz-adv-x="460" 
d="M313 1524l-12 -1104h-108l-13 1104h133zM313 248v-246h-133v246h133z" />
    <glyph glyph-name="quotedbl" unicode="&#x22;" horiz-adv-x="636" 
d="M410 1575h120v-268l-24 -306h-72l-24 306v268zM104 1575h121v-268l-22 -306h-76l-23 306v268z" />
    <glyph glyph-name="numbersign" unicode="#" horiz-adv-x="1486" 
d="M127 473v109h272l29 376h-258v109h268l29 328l108 4l-26 -332h430l27 328l112 4l-31 -332h246v-109h-252l-32 -376h241v-109h-254l-30 -373h-107l27 373h-426l-29 -373h-117l33 373h-260zM938 582l33 376h-430l-33 -376h430z" />
    <glyph glyph-name="dollar" unicode="$" horiz-adv-x="1206" 
d="M653 -4v-205h-112v207l-430 4v113l430 -4v598l-72 22q-362 96 -379 303v154q0 319 451 330v182h112v-182l396 -11v-106l-396 4v-614l47 -15q399 -100 402 -299v-123q-20 -358 -449 -358zM207 1188v-150q8 -123 293 -198l41 -13v578q-334 -8 -334 -217zM981 477
q0 106 -317 191l-11 4v-561q322 2 328 243v123z" />
    <glyph glyph-name="percent" unicode="%" horiz-adv-x="1736" 
d="M1067 315q0 -209 225 -209t226 209v99q0 238 -232 237q-219 0 -219 -237v-99zM950 418q0 346 342 346t342 -346v-99q0 -325 -342 -325t-342 325v99zM272 -4l1028 1524h140l-1028 -1524h-140zM219 1067q0 -211 225 -211t226 211v98q0 238 -232 238q-219 0 -219 -238v-98z
M102 1169q0 346 340 347q344 0 344 -347v-100q0 -326 -342 -326t-342 326v100z" />
    <glyph glyph-name="ampersand" unicode="&#x26;" horiz-adv-x="1355" 
d="M911 815v246h113v-246h258v-113h-258v-393q6 -190 145 -194l119 8v-92l-106 -29q-134 0 -189 68q-143 -59 -313 -68q-317 2 -426 96q-86 72 -100 271q-20 318 118 393q-139 76 -118 393q14 199 100 270q109 92 426 95l254 -23l45 -108l-301 18q-266 0 -344 -66
q-104 -88 -55 -399q23 -106 161 -127h471zM911 702h-473q-137 -14 -159 -120q-49 -311 55 -400q78 -66 344 -67q143 4 252 53q-18 35 -19 162v372z" />
    <glyph glyph-name="quotesingle" unicode="'" horiz-adv-x="460" 
d="M109 1575h120v-268l-22 -306h-76l-22 306v268z" />
    <glyph glyph-name="parenleft" unicode="(" horiz-adv-x="550" 
d="M293 714q0 -470 194 -980h-114q-203 496 -203 974t213 975h100q-190 -499 -190 -969z" />
    <glyph glyph-name="parenright" unicode=")" horiz-adv-x="575" 
d="M274 693q0 480 -192 990h115q412 -1010 -13 -1949h-100q190 479 190 959z" />
    <glyph glyph-name="asterisk" unicode="*" horiz-adv-x="821" 
d="M322 1458h120v-282l217 79l58 -96l-232 -98l152 -223l-94 -62l-160 217l-168 -217l-88 66l156 219l-242 100l59 92l222 -77v282z" />
    <glyph glyph-name="plus" unicode="+" horiz-adv-x="1017" 
d="M438 686h-403v109h403v438h111v-438h401v-109h-401v-434h-111v434z" />
    <glyph glyph-name="comma" unicode="," horiz-adv-x="339" 
d="M147 246h117l-131 -475h-110z" />
    <glyph glyph-name="hyphen" unicode="-" horiz-adv-x="702" 
d="M621 639v-113h-582v113h582z" />
    <glyph glyph-name="hyphen" unicode="&#xad;" horiz-adv-x="702" 
d="M621 639v-113h-582v113h582z" />
    <glyph glyph-name="period" unicode="." horiz-adv-x="309" 
d="M211 233v-231h-113v231h113z" />
    <glyph glyph-name="slash" unicode="/" horiz-adv-x="716" 
d="M569 1538h129l-518 -1536h-127z" />
    <glyph glyph-name="zero" unicode="0" 
d="M582 1407q-356 0 -357 -514v-266q0 -512 357 -512h67q338 0 338 512v266q0 514 -338 514h-67zM1100 901v-280q0 -618 -451 -619h-67q-469 0 -469 619v280q0 618 469 619h67q451 -1 451 -619z" />
    <glyph glyph-name="one" unicode="1" horiz-adv-x="688" 
d="M575 2h-112v1401l-350 -60v109l379 68h83v-1518z" />
    <glyph glyph-name="two" unicode="2" 
d="M1100 -2h-987v57q16 315 204 467l467 332q156 104 170 215v47q-25 219 -188 273q-104 35 -176 36q-205 -10 -438 -18v102q229 25 432 27q113 0 229 -47q223 -84 254 -371v-51q-8 -156 -211 -299l-467 -334q-158 -133 -158 -323h869v-113z" />
    <glyph glyph-name="three" unicode="3" horiz-adv-x="1236" 
d="M295 702v113h481q141 20 160 127q49 311 -53 399q-80 66 -344 66l-385 -16v106l383 23q315 -2 424 -95q88 -72 102 -270q19 -318 -121 -393q139 -76 121 -393q-14 -199 -102 -271q-109 -94 -424 -96l-422 25v106l424 -18q264 2 344 67q102 88 53 400q-19 106 -160 120
h-481z" />
    <glyph glyph-name="four" unicode="4" horiz-adv-x="1312" 
d="M928 1397h-21l-663 -854h684v854zM1040 543h160v-113h-160v-428h-112v428h-815v70q0 49 16 69l709 928q16 23 43 23h159v-977z" />
    <glyph glyph-name="five" unicode="5" 
d="M1051 1407h-826v-477l391 14q483 0 484 -434v-59q0 -455 -484 -455l-503 27v116l503 -26q371 0 371 338v59q0 313 -373 324l-421 -21q-74 0 -80 70v637h938v-113z" />
    <glyph glyph-name="six" unicode="6" horiz-adv-x="1214" 
d="M676 885q-138 0 -451 -88v-293q16 -389 336 -391h111q315 2 317 391v10q-2 371 -313 371zM561 1411q-334 0 -336 -369v-127q305 82 451 82q424 0 426 -483v-12q-2 -500 -430 -502h-111q-446 2 -448 502v540q2 481 450 482q188 -6 402 -35v-107q-217 29 -404 29z" />
    <glyph glyph-name="seven" unicode="7" horiz-adv-x="1255" 
d="M113 1407v113h895q135 0 88 -119l-547 -1399h-117l541 1405h-860z" />
    <glyph glyph-name="eight" unicode="8" 
d="M139 1102v39q0 391 453 391h26q457 0 457 -391v-60q0 -223 -201 -284v-19q225 -33 226 -276v-101q0 -406 -482 -405h-26q-479 0 -479 405v101q0 243 225 272v23q-199 61 -199 305zM956 1081v60q0 270 -338 270h-26q-336 0 -336 -270v-60q0 -254 336 -254h26
q338 0 338 254zM618 715h-26q-356 0 -359 -215v-101q4 -283 359 -282h26q356 0 357 284v101q-1 213 -357 213z" />
    <glyph glyph-name="nine" unicode="9" 
d="M651 1411h-110q-315 0 -316 -389v-10q0 -371 312 -371q139 0 450 88v293q-14 389 -336 389zM537 528q-422 0 -424 482v12q2 500 428 502h110q446 -2 449 -502v-539q-2 -483 -449 -483q-199 10 -424 35v108q229 -29 424 -30q334 0 336 370v127q-303 -82 -450 -82z" />
    <glyph glyph-name="colon" unicode=":" horiz-adv-x="378" 
d="M246 233v-231h-113v231h113zM246 1020v-234h-113v234h113z" />
    <glyph glyph-name="semicolon" unicode=";" horiz-adv-x="438" 
d="M199 246h116l-131 -475h-110zM307 1032v-233h-112v233h112z" />
    <glyph glyph-name="semicolon" unicode="&#x37e;" horiz-adv-x="438" 
d="M199 246h116l-131 -475h-110zM307 1032v-233h-112v233h112z" />
    <glyph glyph-name="less" unicode="&#x3c;" horiz-adv-x="1044" 
d="M956 1223v-129l-720 -367l720 -358v-140l-909 451v92z" />
    <glyph glyph-name="equal" unicode="=" horiz-adv-x="1146" 
d="M1024 920v-113h-922v113h922zM1024 643v-113h-922v113h922z" />
    <glyph glyph-name="greater" unicode="&#x3e;" horiz-adv-x="1081" 
d="M1038 772v-92l-909 -451v140l721 358l-721 367v129z" />
    <glyph glyph-name="question" unicode="?" horiz-adv-x="1097" 
d="M553 229v-231h-113v231h113zM997 1157v-67q0 -207 -276 -302q-166 -94 -166 -245v-152h-119v158q0 240 234 346q207 111 207 195v67q0 236 -324 236q-211 0 -455 -23v107q244 43 463 43q436 -6 436 -363z" />
    <glyph glyph-name="at" unicode="@" horiz-adv-x="2160" 
d="M1061 -135h47v-113h-47q-508 0 -724 215t-216 687t226 687q225 215 713 215t714 -215t227 -690q-37 -498 -492 -497h-30q-147 27 -152 172q-223 -141 -397 -146q-276 20 -277 289q0 152 2 305q27 332 351 352q147 0 350 -131l8 125l111 4l-39 -741q2 -121 53 -121
q369 14 391 391q0 416 -194 603q-195 188 -625 188t-625 -188q-194 -188 -194 -602q0 -415 194 -602t625 -187zM778 442q0 -139 150 -139l6 2q162 0 401 166l8 387q-229 145 -323 146q-4 0 -12 -3q-211 -10 -226 -245q-4 -160 -4 -314z" />
    <glyph glyph-name="A" unicode="A" horiz-adv-x="1275" 
d="M928 580l-293 815h-12l-279 -815h584zM625 1520h20q86 0 113 -78l489 -1444h-114l-172 467h-650l-174 -467h-114l489 1444q27 78 113 78z" />
    <glyph glyph-name="B" unicode="B" horiz-adv-x="1370" 
d="M719 115q391 0 391 295q-14 293 -356 301h-480v-596h445zM717 1409h-443v-580h480q315 12 317 293q0 287 -354 287zM162 2v1518h557q467 -2 469 -398q-20 -322 -246 -348q260 -35 283 -358q0 -414 -508 -414h-555z" />
    <glyph glyph-name="C" unicode="C" horiz-adv-x="1206" 
d="M184 760q0 -649 432 -649q268 4 510 30v-94q-242 -35 -518 -45q-536 0 -536 759t536 759q276 -6 520 -41v-99q-244 27 -512 29q-432 0 -432 -649z" />
    <glyph glyph-name="D" unicode="D" horiz-adv-x="1447" 
d="M758 98q426 0 426 660t-426 661h-486v-1321h486zM162 -4v1530h596q540 0 540 -765t-540 -765h-596z" />
    <glyph glyph-name="E" unicode="E" horiz-adv-x="1236" 
d="M1159 1407h-741q-178 0 -178 -178v-416h737v-111h-737v-415q0 -176 178 -176h737v-97l-737 -16q-293 0 -293 289v942q2 291 293 291l741 -19v-94z" />
    <glyph glyph-name="F" unicode="F" horiz-adv-x="1314" 
d="M1196 1407h-741q-178 0 -179 -178v-416h738v-111h-738v-704h-114v1231q2 291 293 291l741 -19v-94z" />
    <glyph glyph-name="G" unicode="G" horiz-adv-x="1327" 
d="M1143 1407h-492q-432 0 -465 -580v-165q0 -551 449 -551h436v575h-485v113h598v-801h-549q-563 0 -563 664v165q39 692 581 693l490 -19v-94z" />
    <glyph glyph-name="H" unicode="H" horiz-adv-x="1384" 
d="M274 1520v-701h820v701h112v-1522h-112v709h-822v-705h-110v1518h112z" />
    <glyph glyph-name="I" unicode="I" horiz-adv-x="452" 
d="M274 1520v-1522h-112v1522h112z" />
    <glyph glyph-name="J" unicode="J" horiz-adv-x="864" 
d="M686 1520v-1078q-29 -422 -450 -438l-181 -2v113h181q322 2 337 329v1076h113z" />
    <glyph glyph-name="K" unicode="K" horiz-adv-x="1353" 
d="M283 1520v-732h61l655 732h160l-707 -788l709 -734h-160l-657 676h-61v-676h-121v1522h121z" />
    <glyph glyph-name="L" unicode="L" horiz-adv-x="1155" 
d="M272 1520v-1123q0 -281 154 -280h680v-115h-680q-274 0 -274 395v1123h120z" />
    <glyph glyph-name="M" unicode="M" horiz-adv-x="1611" 
d="M162 2v1444q0 76 78 76h41q61 0 92 -66l446 -1055l408 1053q27 66 88 66h45q74 0 74 -74v-1444h-113v1390l-420 -1064q-27 -61 -65 -62h-35q-39 0 -72 60l-455 1077v-1401h-112z" />
    <glyph glyph-name="N" unicode="N" horiz-adv-x="1351" 
d="M162 2v1444q0 76 98 76h39q63 0 92 -66l676 -1339h10v1403h113v-1444q0 -74 -98 -74h-35q-55 0 -92 80l-674 1331h-17v-1411h-112z" />
    <glyph glyph-name="O" unicode="O" horiz-adv-x="1378" 
d="M580 1407q-397 0 -398 -553v-188q0 -555 398 -555h147q387 0 387 555v188q0 553 -387 553h-147zM1229 860v-198q0 -659 -510 -660h-137q-510 0 -510 660v198q0 659 510 660h137q510 -1 510 -660z" />
    <glyph glyph-name="P" unicode="P" horiz-adv-x="1376" 
d="M776 688q371 0 371 367q0 362 -371 362h-502v-729h502zM162 2v1518h614q483 0 484 -465q0 -469 -484 -469h-502v-584h-112z" />
    <glyph glyph-name="Q" unicode="Q" horiz-adv-x="1388" 
d="M719 2h-137q-510 0 -510 660v198q0 659 510 660h137q510 0 510 -660v-198q-1 -314 -101 -453l127 -105l-71 -79l-123 100q-109 -123 -342 -123zM1114 666v188q0 553 -389 553h-145q-397 0 -398 -553v-188q0 -555 398 -555h145q176 0 248 84l-402 321l72 80l395 -317
q76 113 76 387z" />
    <glyph glyph-name="R" unicode="R" horiz-adv-x="1386" 
d="M274 586v-588h-112v1522h614q483 -2 484 -467q-14 -410 -320 -457l326 -598h-129l-320 588h-543zM776 688q371 0 371 367q-2 362 -371 362h-502v-729h502z" />
    <glyph glyph-name="S" unicode="S" horiz-adv-x="1206" 
d="M207 1188v-150q8 -123 295 -198l198 -64q399 -100 402 -299v-123q-20 -358 -479 -358l-512 6v113l499 -6q365 0 371 245v123q0 106 -317 191l-195 63q-362 96 -379 303v154q0 332 514 332l445 -13v-106l-445 6q-397 0 -397 -219z" />
    <glyph glyph-name="T" unicode="T" horiz-adv-x="1247" 
d="M1194 1520v-113h-496v-1409h-112v1409h-531v113h1139z" />
    <glyph glyph-name="U" unicode="U" horiz-adv-x="1409" 
d="M264 1520v-988q0 -416 408 -415h41q418 0 417 415v988h113v-988q0 -528 -530 -528h-41q-520 0 -520 528v988h112z" />
    <glyph glyph-name="V" unicode="V" horiz-adv-x="1372" 
d="M707 -2h-39q-68 0 -95 84l-520 1438h131l494 -1397h18l498 1397h137l-532 -1438q-29 -84 -92 -84z" />
    <glyph glyph-name="W" unicode="W" horiz-adv-x="1996" 
d="M612 -2h-59q-70 0 -82 63l-410 1459h129l373 -1397h33l297 1329q16 68 80 68h86q63 0 78 -68l288 -1329h31l326 1397h133l-352 -1461q-29 -61 -88 -61h-60q-66 0 -90 61l-301 1342h-12l-318 -1344q-18 -59 -82 -59z" />
    <glyph glyph-name="X" unicode="X" horiz-adv-x="1323" 
d="M662 825h8l452 695h152l-510 -758l510 -760h-152l-452 694h-8l-463 -694h-150l510 760l-510 758h150z" />
    <glyph glyph-name="Y" unicode="Y" horiz-adv-x="1327" 
d="M723 -2h-125v491l-545 1029h144l465 -899l483 899h143l-565 -1029v-491z" />
    <glyph glyph-name="Z" unicode="Z" horiz-adv-x="1189" 
d="M1167 1520v-45q0 -45 -18 -78l-900 -1280h918v-115h-1073v47q0 45 19 76l900 1282h-923v113h1077z" />
    <glyph glyph-name="bracketleft" unicode="[" horiz-adv-x="702" 
d="M106 1599h490v-112h-363v-1704h363v-113h-490v1929z" />
    <glyph glyph-name="backslash" unicode="\" horiz-adv-x="862" 
d="M754 2h-125l-520 1536h129z" />
    <glyph glyph-name="bracketright" unicode="]" horiz-adv-x="702" 
d="M596 -330h-490v113h361v1704h-361v112h490v-1929z" />
    <glyph glyph-name="asciicircum" unicode="^" horiz-adv-x="1183" 
d="M575 1501h35q51 0 76 -47l389 -723l-123 -4l-365 645l-351 -645l-127 4l395 721q22 49 71 49z" />
    <glyph glyph-name="underscore" unicode="_" horiz-adv-x="1282" 
d="M1176 -57v-115h-1070v115h1070z" />
    <glyph glyph-name="grave" unicode="`" horiz-adv-x="710" 
d="M113 1483h206l279 -305h-164z" />
    <glyph glyph-name="a" unicode="a" horiz-adv-x="1079" 
d="M934 721v-723h-92l-15 164q-295 -162 -446 -164q-328 0 -328 358q8 305 305 318h465v96q-20 227 -334 242q-166 0 -329 -21l-10 105q174 24 342 24q442 -20 442 -399zM823 567h-465q-188 -14 -192 -213q-4 -256 213 -250q133 4 444 177v286z" />
    <glyph glyph-name="b" unicode="b" horiz-adv-x="1200" 
d="M657 1110q426 0 426 -494v-118q0 -500 -426 -500h-77q-92 0 -316 102l-8 -102h-104v1538h112v-461q201 27 314 35h79zM657 111q315 0 316 387v118q0 385 -316 385h-77q-109 0 -316 -34v-750q236 -102 316 -106h77z" />
    <glyph glyph-name="c" unicode="c" horiz-adv-x="989" 
d="M72 554q0 564 432 564l409 -6v-106l-403 6q-326 0 -326 -461t326 -461l403 6v-100l-409 -6q-432 0 -432 564z" />
    <glyph glyph-name="d" unicode="d" horiz-adv-x="1148" 
d="M891 1536h113v-1538h-109l-4 102q-223 -102 -316 -102h-77q-426 0 -426 500v118q0 494 426 494h80q112 -8 313 -35v461zM498 1001q-315 0 -316 -385v-118q0 -387 316 -387h77q80 4 316 106v750q-207 35 -316 34h-77z" />
    <glyph glyph-name="e" unicode="e" horiz-adv-x="1083" 
d="M877 694q-4 311 -259 314h-174q-254 -2 -258 -469h613q78 5 78 155zM567 106q102 0 346 21l45 -94q-182 -39 -397 -39q-485 0 -485 559q20 561 373 561h172q354 0 366 -420q-12 -260 -186 -260h-608q23 -328 374 -328z" />
    <glyph glyph-name="f" unicode="f" horiz-adv-x="796" 
d="M205 2v1012h-142v106h142v99q0 342 399 342q88 0 197 -29v-111q-117 35 -197 37q-285 0 -285 -246v-92h412v-106h-412v-1012h-114z" />
    <glyph glyph-name="g" unicode="g" horiz-adv-x="1216" 
d="M682 213q426 0 426 -299v-29q0 -358 -426 -358h-168q-440 0 -440 319v48q0 158 200 245q-35 29 -36 113v53q0 68 36 109q-137 68 -137 278v88q0 340 406 340h84q166 0 207 -20h325v-103h-170q39 -29 43 -217v-88q0 -340 -405 -340h-70q-104 4 -176 19q-33 -45 -35 -68
v-49q2 -29 45 -66q39 18 127 25h164zM188 -154q0 -211 332 -211h162q309 0 309 250v29q0 193 -309 192h-162q-322 -44 -332 -212v-48zM252 780v-88q0 -231 291 -231h84q289 0 288 231v88q0 231 -288 232h-84q-291 -1 -291 -232z" />
    <glyph glyph-name="h" unicode="h" horiz-adv-x="1222" 
d="M264 1561v-521q180 76 438 80q371 -4 375 -340v-778h-112v776q0 234 -249 234t-452 -92v-918h-112v1559h112z" />
    <glyph glyph-name="i" unicode="i" horiz-adv-x="409" 
d="M264 1561v-232h-112v232h112zM264 1120v-1118h-112v1118h112z" />
    <glyph glyph-name="j" unicode="j" horiz-adv-x="643" 
d="M465 1581v-229h-113v229h113zM465 1139v-1172q0 -377 -412 -393v109q297 0 299 284v1172h113z" />
    <glyph glyph-name="k" unicode="k" horiz-adv-x="1036" 
d="M266 592h33l541 524h157l-605 -577l609 -541h-159l-545 487h-31v-487h-114v1558h114v-964z" />
    <glyph glyph-name="l" unicode="l" horiz-adv-x="647" 
d="M258 1561v-1209q0 -219 195 -235q76 0 190 35v-119q-104 -31 -186 -31q-311 0 -312 354v1205h113z" />
    <glyph glyph-name="m" unicode="m" horiz-adv-x="1746" 
d="M831 -2v623q-6 336 -180 387h-112q-80 -4 -295 -107v-903h-113v1122h98l11 -102q207 102 297 102h118q129 0 207 -149q158 127 293 149h102q346 0 347 -499v-623h-111v623q0 387 -236 387h-98q-78 -4 -252 -131q35 -150 35 -256v-623h-111z" />
    <glyph glyph-name="n" unicode="n" horiz-adv-x="1159" 
d="M244 -2h-113v1122h102l9 -133q203 133 297 133h139q365 0 364 -499v-623h-110v623q0 387 -254 387h-137q-80 -4 -297 -144v-866z" />
    <glyph glyph-name="o" unicode="o" horiz-adv-x="1150" 
d="M489 1001q-297 0 -296 -385v-118q0 -387 296 -387h119q315 0 316 387v118q0 385 -316 385h-119zM1034 616v-118q0 -496 -426 -496h-119q-418 0 -417 496v118q0 498 417 498h119q426 0 426 -498z" />
    <glyph glyph-name="p" unicode="p" horiz-adv-x="1179" 
d="M244 -418h-113v1538h107l6 -102q223 102 315 102h78q426 0 426 -499v-117q0 -496 -426 -496h-80q-112 8 -313 35v-461zM559 117h78q315 0 315 387v117q0 387 -315 387h-78q-79 -5 -315 -107v-749q207 -35 315 -35z" />
    <glyph glyph-name="q" unicode="q" horiz-adv-x="1155" 
d="M498 8q-426 0 -426 496v117q0 500 426 499h77q92 0 316 -102l8 102h105v-1538h-113v461q-200 -27 -313 -35h-80zM498 1008q-315 0 -316 -387v-117q0 -387 316 -387h77q109 0 316 35v749q-236 103 -316 107h-77z" />
    <glyph glyph-name="r" unicode="r" horiz-adv-x="831" 
d="M244 -2h-113v1122h102l9 -125q141 125 297 125q106 0 241 -10v-111q-137 8 -241 9q-135 -4 -295 -142v-868z" />
    <glyph glyph-name="s" unicode="s" horiz-adv-x="1048" 
d="M178 864v-114q8 -98 166 -113l299 -29q287 -41 291 -237v-103q0 -268 -356 -268l-496 16v99l487 -6q252 8 252 159v103q-2 92 -194 127l-297 28q-250 16 -264 222v116q2 256 380 256l451 -16v-96l-451 4q-268 0 -268 -148z" />
    <glyph glyph-name="t" unicode="t" horiz-adv-x="804" 
d="M307 1372v-252h416v-106h-416v-705q6 -190 146 -194l276 8v-96l-266 -25q-268 0 -268 328v684h-158v106h158v252h112z" />
    <glyph glyph-name="u" unicode="u" horiz-adv-x="1165" 
d="M907 1120h113v-1122h-100l-11 166q-201 -166 -297 -166h-139q-365 0 -364 500v622h110v-622q0 -387 254 -387h139q76 4 295 200v809z" />
    <glyph glyph-name="v" unicode="v" horiz-adv-x="1083" 
d="M545 2h-33q-80 0 -113 102l-379 1016h121l387 -997h4l386 997h126l-385 -1020q-35 -98 -114 -98z" />
    <glyph glyph-name="w" unicode="w" horiz-adv-x="1513" 
d="M1155 -2h-70q-55 0 -75 61l-268 943l-236 -941q-16 -63 -74 -63h-78q-59 0 -71 63l-230 1059h119l223 -1011h2l244 954q12 57 76 57h51q57 0 72 -55l274 -956h2l191 1011h114l-194 -1059q-12 -63 -72 -63z" />
    <glyph glyph-name="x" unicode="x" horiz-adv-x="1017" 
d="M539 614l327 506h133l-368 -559l368 -559h-133l-327 504h-7l-356 -504h-133l393 559l-393 559h133l356 -506h7z" />
    <glyph glyph-name="y" unicode="y" horiz-adv-x="1134" 
d="M621 109l350 1011h125l-377 -1106q-133 -397 -526 -401v104q317 20 393 279q-39 0 -66 67l-454 1057h133z" />
    <glyph glyph-name="z" unicode="z" horiz-adv-x="991" 
d="M915 1120v-37q0 -55 -38 -114l-658 -854h696v-113h-843v55q0 35 34 90l658 859h-690v114h841z" />
    <glyph glyph-name="braceleft" unicode="{" horiz-adv-x="894" 
d="M315 1028q-1 150 9 264t52 195q83 162 361 162h51v-107q-118 0 -168 -16q-112 -36 -157 -143q-25 -56 -25 -236v-12q0 -238 -39 -333q-23 -56 -59 -94t-53 -46q16 -8 53 -44q38 -36 60 -94q38 -98 38 -334v-16q0 -176 25 -232q46 -103 158 -142q51 -17 167 -17v-109
q-150 0 -236 27t-138 82q-97 101 -97 349t-22 315q-21 67 -61 105t-128 56v107q209 31 209 313z" />
    <glyph glyph-name="bar" unicode="|" horiz-adv-x="337" 
d="M106 1675h125v-2007h-125v2007z" />
    <glyph glyph-name="braceright" unicode="}" horiz-adv-x="894" 
d="M106 -326v109q117 0 168 17q113 38 158 142q25 56 25 232v16q0 237 39 334q23 57 59 93q37 36 53 45q-16 8 -53 46q-75 77 -90 231q-8 81 -8 196v12q0 180 -25 236q-49 109 -158 143q-51 16 -168 16v107h52q278 0 361 -162q42 -82 51 -196q10 -115 10 -223t11 -158
q21 -97 93 -155q37 -30 104 -40v-107q-90 -18 -128 -56t-60 -105t-22 -253t-23 -271t-75 -140t-138 -82t-236 -27z" />
    <glyph glyph-name="asciitilde" unicode="~" horiz-adv-x="1282" 
d="M1176 870q0 -416 -285 -415q-184 2 -293 163q-90 162 -227 162q-154 0 -154 -295h-111q0 408 265 408q203 0 291 -166q90 -160 229 -160q178 0 178 303h107z" />
    <glyph glyph-name="exclamdown" unicode="&#xa1;" horiz-adv-x="346" 
d="M106 -442l13 1106h108l13 -1106h-134zM109 877v243h131v-243h-131z" />
    <glyph glyph-name="cent" unicode="&#xa2;" horiz-adv-x="1130" 
d="M184 552q0 -436 256 -458v914q-256 -20 -256 -456zM549 -246h-109v236q-368 22 -368 562t368 564v203h109v-203l364 -4v-106l-364 6v-922l364 6v-100l-364 -6v-236z" />
    <glyph glyph-name="sterling" unicode="&#xa3;" horiz-adv-x="1144" 
d="M299 762h-180v110h180v175q0 467 414 466h299v-106h-287q-303 0 -303 -360v-175h479v-110h-479v-291q-6 -174 -148 -346h756v-115h-915v107q168 217 184 360v285z" />
    <glyph glyph-name="currency" unicode="&#xa4;" horiz-adv-x="829" 
d="M420 852q83 0 131 -41l90 92l80 -80l-88 -90q39 -58 39 -141t-37 -131l86 -94l-80 -78l-90 90q-25 -20 -70 -31q-31 -12 -67 -12t-66 12q-45 10 -69 31l-95 -90l-75 78l90 92q-43 60 -43 137q0 34 12 74t31 63l-90 90l77 78l95 -88q56 39 139 39zM262 596q0 -66 47 -107
q33 -41 105 -45q20 0 41 2q41 12 67 43q47 44 47 107t-45 106q-29 31 -69 43q-104 10 -146 -45q-47 -38 -47 -104z" />
    <glyph glyph-name="yen" unicode="&#xa5;" horiz-adv-x="1388" 
d="M1126 547v-109h-403v-69h403v-109h-403v-262h-123v262h-385v109h385v69h-385v109h354l-516 971h146l464 -901l484 901h143l-534 -971h370z" />
    <glyph glyph-name="brokenbar" unicode="&#xa6;" horiz-adv-x="337" 
d="M106 403h125v-733h-125v733zM106 1673h125v-733h-125v733z" />
    <glyph glyph-name="section" unicode="&#xa7;" horiz-adv-x="1079" 
d="M229 1294v-112q8 -84 160 -109l283 -51q301 -76 301 -223v-240l-125 33v207q0 49 -209 104l-274 49q-246 41 -256 224v118q0 254 378 254l451 -14v-109l-449 2q-260 0 -260 -133zM850 262v111q-6 84 -158 108l-282 51q-301 76 -301 224v239l122 -32v-207q0 -49 211 -103
l273 -49q248 -43 258 -225v-117q0 -256 -379 -256l-451 17v106l449 -2q258 0 258 135z" />
    <glyph glyph-name="dieresis" unicode="&#xa8;" horiz-adv-x="892" 
d="M569 1237v170h176v-170h-176zM147 1237v170h175v-170h-175z" />
    <glyph glyph-name="copyright" unicode="&#xa9;" horiz-adv-x="1810" 
d="M922 334q-344 0 -344 434t344 434q182 0 282 -135l-88 -102q-98 98 -188 98q-213 0 -213 -296t213 -296q90 0 182 90l94 -100q-109 -127 -282 -127zM904 2q-171 0 -312 60q-280 119 -395 405q-57 141 -57 303t57 303q117 288 395 406q141 59 312 59q170 0 312 -58
q274 -112 396 -405q57 -139 57 -303t-57 -305q-58 -141 -156 -243t-240 -162t-312 -60zM904 129q286 0 454 183t168 457q0 275 -167 459q-167 183 -455 183q-289 0 -456 -184t-167 -456q0 -273 169 -458q168 -184 454 -184z" />
    <glyph glyph-name="ordfeminine" unicode="&#xaa;" horiz-adv-x="868" 
d="M752 565h-105l-8 99q-174 -96 -283 -99q-240 0 -239 266q4 225 225 236h291v41q-8 133 -201 141q-111 0 -242 -14l-12 111q141 20 254 20q319 -14 320 -291v-510zM633 952h-291q-106 -10 -109 -125q-2 -150 123 -147q84 4 277 111v161z" />
    <glyph glyph-name="guillemotleft" unicode="&#xab;" horiz-adv-x="1198" 
d="M109 573l358 482h156l-355 -480l355 -483h-154zM573 573l359 482h155l-356 -480l356 -483h-153z" />
    <glyph glyph-name="logicalnot" unicode="&#xac;" horiz-adv-x="1120" 
d="M1014 838v-623h-117v506h-791v117h908z" />
    <glyph glyph-name="registered" unicode="&#xae;" horiz-adv-x="1796" 
d="M760 678v-330h-133v838h282q309 -2 310 -252q0 -209 -170 -244l178 -342h-164l-150 330h-153zM905 815q174 0 174 119t-182 119h-137v-238h145zM898 2q-171 0 -312 60q-279 119 -396 405q-57 141 -57 303t57 303q116 288 396 406q141 59 312 59t312 -58
q275 -113 396 -405q57 -139 57 -303t-57 -305q-58 -141 -156 -243t-240 -162t-312 -60zM1520 769q0 275 -167 459q-167 183 -455 183q-289 0 -456 -184q-168 -184 -168 -458q0 -273 169 -456q169 -184 455 -184t454 183q168 182 168 457z" />
    <glyph glyph-name="macron" unicode="&#xaf;" horiz-adv-x="815" 
d="M709 1348v-101h-603v101h603z" />
    <glyph glyph-name="degree" unicode="&#xb0;" horiz-adv-x="862" 
d="M645 1185q0 83 -59 149q-60 66 -156 67q-96 -1 -154 -67t-57 -149q0 -83 57 -149q58 -66 154 -66t156 66q59 66 59 149zM106 1186q0 137 99 231t228 93t226 -96t97 -229t-98 -229q-98 -94 -226 -94t-227 93q-99 94 -99 231z" />
    <glyph glyph-name="plusminus" unicode="&#xb1;" horiz-adv-x="1134" 
d="M1028 117v-113h-922v113h922zM512 698h-403v111h403v436h111v-436h401v-111h-401v-434h-111v434z" />
    <glyph glyph-name="uni00B2" unicode="&#xb2;" horiz-adv-x="860" 
d="M754 596h-648v61q10 203 134 301l282 199q82 55 88 109v24q-12 113 -92 140q-59 20 -98 20q-121 -6 -291 -10v112q165 18 263 20t171 -30q152 -55 170 -248v-30q-4 -109 -137 -203l-281 -201q-82 -70 -82 -141h521v-123z" />
    <glyph glyph-name="uni00B3" unicode="&#xb3;" horiz-adv-x="935" 
d="M217 1024v117h315q68 10 78 59q27 176 -21 216t-200 40l-260 -12v112l258 17q203 -2 275 -66q61 -49 69 -180q16 -229 -106 -242q123 -29 106 -241q-9 -134 -75 -190t-269 -58l-281 14v113l283 -10q152 0 200 40t21 218q-10 47 -78 53h-315z" />
    <glyph glyph-name="acute" unicode="&#xb4;" horiz-adv-x="708" 
d="M276 1178h-163l278 305h205z" />
    <glyph glyph-name="mu" unicode="&#xb5;" horiz-adv-x="1181" 
d="M106 1133h127v-576q0 -174 115 -296t237 -122q123 0 243 114t120 241v639h127v-1106h-112v198q-129 -193 -377 -205q-236 6 -355 199v-682h-125v1596z" />
    <glyph glyph-name="paragraph" unicode="&#xb6;" horiz-adv-x="1208" 
d="M711 1444v-1442h-117v651h-4q-214 0 -341 100q-143 111 -143 324q0 258 162 368q84 56 209 83q111 20 260 22h365v-1548h-119v1442h-272z" />
    <glyph glyph-name="periodcentered" unicode="&#xb7;" horiz-adv-x="401" 
d="M106 479v191h189v-191h-189z" />
    <glyph glyph-name="periodcentered" unicode="&#x2219;" horiz-adv-x="401" 
d="M106 479v191h189v-191h-189z" />
    <glyph glyph-name="cedilla" unicode="&#xb8;" horiz-adv-x="718" 
d="M521 -418q-91 -55 -215 -55t-200 31l15 102q86 -27 149 -27q84 -6 156 17t82 106q0 96 -148 101q-46 0 -74 -5t-83 -30l-29 39l78 258h121l-64 -160q-20 -6 43 -4q131 -2 196 -57t64 -144q0 -117 -91 -172z" />
    <glyph glyph-name="uni00B9" unicode="&#xb9;" horiz-adv-x="544" 
d="M438 596h-116v852l-216 -35v113l254 45h78v-975z" />
    <glyph glyph-name="ordmasculine" unicode="&#xba;" horiz-adv-x="856" 
d="M414 1462q-188 0 -199 -295v-159q10 -293 199 -293h39q176 0 186 293v159q-10 295 -186 295h-39zM414 608q-295 0 -308 396v170q12 399 308 399h39q285 0 297 -399v-170q-12 -395 -297 -396h-39z" />
    <glyph glyph-name="guillemotright" unicode="&#xbb;" horiz-adv-x="1198" 
d="M731 92h-156l357 483l-357 480h158l357 -482zM266 92h-155l356 483l-356 480h157l359 -482z" />
    <glyph glyph-name="onequarter" unicode="&#xbc;" horiz-adv-x="1632" 
d="M233 -4l1029 1524h137l-1028 -1524h-138zM418 575h-117v852l-215 -34v112l254 45h78v-975zM1333 301v451l-321 -451h321zM1450 301h96v-111h-96v-200h-117v200h-471v52q0 45 21 77l436 586q35 47 67 47h64v-651z" />
    <glyph glyph-name="onehalf" unicode="&#xbd;" horiz-adv-x="1810" 
d="M1724 0h-628v61q10 195 129 291l272 193q80 53 86 106v23q-12 106 -90 133q-57 18 -94 20q-117 -6 -281 -14v115q160 18 254 18q301 0 332 -268v-31q-4 -104 -133 -196l-271 -193q-82 -68 -81 -137h505v-121zM233 -4l1029 1524h137l-1028 -1524h-138zM418 575h-117v852
l-215 -34v112l254 45h78v-975z" />
    <glyph glyph-name="threequarters" unicode="&#xbe;" horiz-adv-x="1769" 
d="M391 -4l1028 1524h140l-1029 -1524h-139zM1473 301v451l-322 -451h322zM1589 301h94v-111h-94v-200h-116v200h-474v52q0 45 23 77l434 586q35 47 70 47h63v-651zM197 985v117h315q68 8 78 57q27 178 -27 221q-43 35 -194 35l-260 -10v113l258 14q203 -2 274 -64
q61 -49 70 -180q-4 -227 -66 -241q82 -8 66 -244q-8 -133 -70 -182q-72 -61 -274 -64l-281 14v113l283 -10q152 0 194 33q53 47 27 223q-10 47 -78 55h-315z" />
    <glyph glyph-name="questiondown" unicode="&#xbf;" horiz-adv-x="1112" 
d="M551 893v231h113v-231h-113zM106 33q0 207 275 301q168 94 168 246v151h119v-158q0 -240 -236 -346q-207 -111 -207 -194v-68q0 -236 326 -235q209 0 455 22v-106q-246 -43 -465 -43q-434 6 -435 362v68z" />
    <glyph glyph-name="Agrave" unicode="&#xc0;" horiz-adv-x="1234" 
d="M928 580l-293 815h-12l-279 -815h584zM625 1520h20q86 0 113 -78l489 -1444h-114l-172 467h-650l-174 -467h-114l489 1444q27 78 113 78zM264 1872h207l279 -305h-164z" />
    <glyph glyph-name="Aacute" unicode="&#xc1;" horiz-adv-x="1234" 
d="M928 580l-293 815h-12l-279 -815h584zM625 1520h20q86 0 113 -78l489 -1444h-114l-172 467h-650l-174 -467h-114l489 1444q27 78 113 78zM717 1567h-164l278 305h205z" />
    <glyph glyph-name="Acircumflex" unicode="&#xc2;" horiz-adv-x="1234" 
d="M928 580l-293 815h-12l-279 -815h584zM625 1520h20q86 0 113 -78l489 -1444h-114l-172 467h-650l-174 -467h-114l489 1444q27 78 113 78zM1108 1567h-162l-248 182l-247 -182h-160l358 303h101z" />
    <glyph glyph-name="Atilde" unicode="&#xc3;" horiz-adv-x="1316" 
d="M928 580l-293 815h-12l-279 -815h584zM625 1520h20q86 0 113 -78l489 -1444h-114l-172 467h-650l-174 -467h-114l489 1444q27 78 113 78zM1036 1698q-121 -121 -216 -121t-198 50q-104 50 -150 50t-73 -15t-75 -65l-80 93q117 127 239 127q62 0 238 -81q57 -26 94 -26
t64 14t77 70z" />
    <glyph glyph-name="Adieresis" unicode="&#xc4;" horiz-adv-x="1234" 
d="M928 580l-293 815h-12l-279 -815h584zM625 1520h20q86 0 113 -78l489 -1444h-114l-172 467h-650l-174 -467h-114l489 1444q27 78 113 78zM788 1626v170h177v-170h-177zM367 1626v170h174v-170h-174z" />
    <glyph glyph-name="Aring" unicode="&#xc5;" horiz-adv-x="1275" 
d="M387 1654q0 108 70 176q69 68 177 66q108 0 178 -68t69 -175q0 -108 -70 -176q-35 -35 -45 -39q-14 20 -8 4l489 -1444h-114l-172 467h-650l-174 -467h-114l489 1444q6 16 -10 -4q-10 4 -43 39q-72 69 -72 177zM762 1651q0 135 -127 135t-127 -128t102 -138h47
q45 4 75 34t30 97zM928 580l-293 815h-12l-279 -815h584z" />
    <glyph glyph-name="AE" unicode="&#xc6;" horiz-adv-x="2246" 
d="M1251 -2h-112v244q-2 23 -2 45v178h-658l-311 -467h-145l960 1448q25 74 111 74h20q86 0 115 -84v57q14 27 201 27l739 -19v-94h-739q-178 0 -179 -178v-416h738v-111h-738v-415q0 -176 179 -176h737v-97l-737 -16q-161 0 -179 25v-25zM1128 580v815h-41l-536 -815h577z
" />
    <glyph glyph-name="Ccedilla" unicode="&#xc7;" horiz-adv-x="1214" 
d="M72 760q0 760 536 760q276 -6 520 -41v-99q-244 27 -512 29q-432 0 -432 -649q0 -565 326 -637q43 -12 106 -12q268 4 510 30v-94q-240 -35 -398 -40t-173 -3l-4 -10q-23 -4 41 -2q132 -2 196 -58t64 -158t-91 -158t-214 -56t-201 30l14 103q167 -52 307 -9q71 22 83 105
q-4 98 -150 100q-45 0 -74 -5t-84 -27l-28 37l39 127q-381 76 -381 737z" />
    <glyph glyph-name="Egrave" unicode="&#xc8;" 
d="M1159 1407h-741q-178 0 -178 -178v-416h737v-111h-737v-415q0 -176 178 -176h737v-97l-737 -16q-293 0 -293 289v942q2 291 293 291l741 -19v-94zM410 1831h206l279 -305h-164z" />
    <glyph glyph-name="Eacute" unicode="&#xc9;" 
d="M1159 1407h-741q-178 0 -178 -178v-416h737v-111h-737v-415q0 -176 178 -176h737v-97l-737 -16q-293 0 -293 289v942q2 291 293 291l741 -19v-94zM575 1526h-163l278 305h205z" />
    <glyph glyph-name="Ecircumflex" unicode="&#xca;" 
d="M1159 1407h-741q-178 0 -178 -178v-416h737v-111h-737v-415q0 -176 178 -176h737v-97l-737 -16q-293 0 -293 289v942q2 291 293 291l741 -19v-94zM1128 1546h-161l-248 183l-248 -183h-160l359 303h100z" />
    <glyph glyph-name="Edieresis" unicode="&#xcb;" 
d="M1159 1407h-741q-178 0 -178 -178v-416h737v-111h-737v-415q0 -176 178 -176h737v-97l-737 -16q-293 0 -293 289v942q2 291 293 291l741 -19v-94zM774 1626v170h176v-170h-176zM352 1626v170h174v-170h-174z" />
    <glyph glyph-name="Igrave" unicode="&#xcc;" horiz-adv-x="233" 
d="M279 1520v-1522h-113v1522h113zM-61 1892h206l279 -305h-164z" />
    <glyph glyph-name="Iacute" unicode="&#xcd;" horiz-adv-x="231" 
d="M137 1520v-1522h-112v1522h112zM102 1587h-163l278 305h205z" />
    <glyph glyph-name="Icircumflex" unicode="&#xce;" horiz-adv-x="557" 
d="M375 1520v-1522h-113v1522h113zM756 1573h-162l-248 182l-248 -182h-159l358 303h100z" />
    <glyph glyph-name="Idieresis" unicode="&#xcf;" horiz-adv-x="436" 
d="M307 1520v-1522h-112v1522h112zM360 1647v170h177v-170h-177zM-61 1647v170h174v-170h-174z" />
    <glyph glyph-name="Eth" unicode="&#xd0;" horiz-adv-x="1443" 
d="M37 719v96h121v711h596q540 0 540 -765t-540 -765h-596v723h-121zM268 815h439v-96h-439v-621h486q426 0 426 660t-426 661h-486v-604z" />
    <glyph glyph-name="Ntilde" unicode="&#xd1;" horiz-adv-x="1495" 
d="M182 2v1444q0 76 99 76h38q63 0 93 -66l675 -1339h11v1403h112v-1444q0 -74 -98 -74h-35q-55 0 -92 80l-674 1331h-16v-1411h-113zM1143 1739q-121 -121 -217 -121t-198 50t-149 50t-73 -15t-76 -65l-80 93q117 127 240 127q45 0 105 -24t125 -54q65 -29 102 -29
q38 0 64 14t77 70z" />
    <glyph glyph-name="Ograve" unicode="&#xd2;" horiz-adv-x="1357" 
d="M580 1407q-397 0 -398 -553v-188q0 -555 398 -555h147q387 0 387 555v188q0 553 -387 553h-147zM1229 860v-198q0 -659 -510 -660h-137q-510 0 -510 660v198q0 659 510 660h137q510 -1 510 -660zM299 1892h207l278 -305h-163z" />
    <glyph glyph-name="Oacute" unicode="&#xd3;" horiz-adv-x="1357" 
d="M580 1407q-397 0 -398 -553v-188q0 -555 398 -555h147q387 0 387 555v188q0 553 -387 553h-147zM1229 860v-198q0 -659 -510 -660h-137q-510 0 -510 660v198q0 659 510 660h137q510 -1 510 -660zM629 1587h-164l278 305h205z" />
    <glyph glyph-name="Ocircumflex" unicode="&#xd4;" horiz-adv-x="1357" 
d="M580 1407q-397 0 -398 -553v-188q0 -555 398 -555h147q387 0 387 555v188q0 553 -387 553h-147zM1229 860v-198q0 -659 -510 -660h-137q-510 0 -510 660v198q0 659 510 660h137q510 -1 510 -660zM1120 1587h-162l-247 182l-248 -182h-160l359 303h100z" />
    <glyph glyph-name="Otilde" unicode="&#xd5;" horiz-adv-x="1357" 
d="M580 1407q-397 0 -398 -553v-188q0 -555 398 -555h147q387 0 387 555v188q0 553 -387 553h-147zM1229 860v-198q0 -659 -510 -660h-137q-510 0 -510 660v198q0 659 510 660h137q510 -1 510 -660zM1059 1759q-121 -121 -216 -121t-197 50t-150 50q-48 2 -74 -14t-76 -65
l-80 92q117 127 240 127q57 0 139 -36t119 -54q37 -16 74 -16q38 0 64 14t77 69z" />
    <glyph glyph-name="Odieresis" unicode="&#xd6;" horiz-adv-x="1357" 
d="M580 1407q-397 0 -398 -553v-188q0 -555 398 -555h147q387 0 387 555v188q0 553 -387 553h-147zM1229 860v-198q0 -659 -510 -660h-137q-510 0 -510 660v198q0 659 510 660h137q510 -1 510 -660zM786 1647v170h177v-170h-177zM365 1647v170h174v-170h-174z" />
    <glyph glyph-name="multiply" unicode="&#xd7;" horiz-adv-x="989" 
d="M496 612l-293 -290l-92 92l290 293l-292 294l94 91l293 -293l295 293l90 -95l-293 -290l293 -293l-93 -92z" />
    <glyph glyph-name="Oslash" unicode="&#xd8;" horiz-adv-x="1378" 
d="M1229 860v-198q0 -659 -510 -660h-137q-133 0 -207 35l-82 -172l-103 49l84 178q-203 135 -202 570v198q0 659 510 660h137q137 0 211 -37l76 162l104 -46l-82 -174q201 -137 201 -565zM727 111q387 0 387 555v188q0 362 -135 465l-557 -1182q51 -27 158 -26h147z
M727 1407h-147q-397 0 -398 -553v-188q0 -367 142 -469l557 1183q-49 27 -154 27z" />
    <glyph glyph-name="Ugrave" unicode="&#xd9;" horiz-adv-x="1388" 
d="M264 1520v-988q0 -416 408 -415h41q418 0 417 415v988h113v-988q0 -528 -530 -528h-41q-520 0 -520 528v988h112zM377 1892h207l278 -305h-164z" />
    <glyph glyph-name="Uacute" unicode="&#xda;" horiz-adv-x="1388" 
d="M264 1520v-988q0 -416 408 -415h41q418 0 417 415v988h113v-988q0 -528 -530 -528h-41q-520 0 -520 528v988h112zM686 1587h-164l279 305h205z" />
    <glyph glyph-name="Ucircumflex" unicode="&#xdb;" horiz-adv-x="1388" 
d="M264 1520v-988q0 -416 408 -415h41q418 0 417 415v988h113v-988q0 -528 -530 -528h-41q-520 0 -520 528v988h112zM1157 1587h-162l-247 182l-248 -182h-160l358 303h101z" />
    <glyph glyph-name="Udieresis" unicode="&#xdc;" horiz-adv-x="1388" 
d="M264 1520v-988q0 -416 408 -415h41q418 0 417 415v988h113v-988q0 -528 -530 -528h-41q-520 0 -520 528v988h112zM844 1667v170h176v-170h-176zM422 1667v170h174v-170h-174z" />
    <glyph glyph-name="Yacute" unicode="&#xdd;" horiz-adv-x="1146" 
d="M602 1587h-164l279 305h205zM723 -2h-125v491l-545 1029h144l465 -899l483 899h143l-565 -1029v-491z" />
    <glyph glyph-name="Thorn" unicode="&#xde;" horiz-adv-x="1230" 
d="M526 391q463 0 463 378t-463 378h-219v-756h219zM307 1274h219q584 0 584 -504t-584 -504h-219v-270h-133v1511h133v-233z" />
    <glyph glyph-name="germandbls" unicode="&#xdf;" horiz-adv-x="1218" 
d="M152 1108q0 420 417 420h39q385 0 385 -357q0 -127 -142 -243t-142 -162q0 -59 214 -184t214 -277q0 -332 -402 -332h-151v119h151q270 0 271 219q0 78 -211 201t-211 252q0 102 139 225t139 193q0 233 -254 233h-39q-291 0 -290 -311v-1100h-127v1104z" />
    <glyph glyph-name="agrave" unicode="&#xe0;" horiz-adv-x="1060" 
d="M969 -2h-92l-15 164q-295 -162 -446 -164q-328 0 -328 358q8 305 305 318h465v96q-20 227 -334 242q-166 0 -329 -21l-11 105q174 24 342 24q442 -20 443 -399v-723zM858 567h-465q-188 -14 -192 -213q-4 -256 213 -250q133 4 444 177v286zM197 1483h206l279 -305h-164z
" />
    <glyph glyph-name="aacute" unicode="&#xe1;" horiz-adv-x="1030" 
d="M936 721v-723h-92l-15 164q-295 -162 -446 -164q-328 0 -328 358q8 305 305 318h465v96q-20 227 -333 242q-166 0 -330 -21l-10 105q174 24 342 24q442 -20 442 -399zM825 567h-465q-188 -14 -192 -213q-4 -256 213 -250q133 4 444 177v286zM535 1178h-164l278 305h205z
" />
    <glyph glyph-name="acircumflex" unicode="&#xe2;" horiz-adv-x="1028" 
d="M934 721v-723h-92l-15 164q-295 -162 -446 -164q-328 0 -328 358q8 305 305 318h465v96q-20 227 -334 242q-166 0 -329 -21l-10 105q174 24 342 24q442 -20 442 -399zM823 567h-465q-188 -14 -192 -213q-4 -256 213 -250q133 4 444 177v286zM983 1178h-162l-248 182
l-247 -182h-160l358 303h101z" />
    <glyph glyph-name="atilde" unicode="&#xe3;" horiz-adv-x="1060" 
d="M969 -2h-92l-15 164q-295 -162 -446 -164q-328 0 -328 358q8 305 305 318h465v96q-20 227 -334 242q-166 0 -329 -21l-11 105q174 24 342 24q442 -20 443 -399v-723zM858 567h-465q-188 -14 -192 -213q-4 -256 213 -250q133 4 444 177v286zM936 1309q-121 -121 -217 -121
t-198 50t-149 50q-46 0 -73 -15t-76 -65l-80 92q119 128 225 128q60 0 106 -19t88 -37t79 -34t74 -17q37 0 63 14t78 70z" />
    <glyph glyph-name="adieresis" unicode="&#xe4;" horiz-adv-x="1060" 
d="M969 -2h-92l-15 164q-295 -162 -446 -164q-328 0 -328 358q8 305 305 318h465v96q-20 227 -334 242q-166 0 -329 -21l-11 105q174 24 342 24q442 -20 443 -399v-723zM858 567h-465q-188 -14 -192 -213q-4 -256 213 -250q133 4 444 177v286zM643 1237v170h176v-170h-176z
M221 1237v170h174v-170h-174z" />
    <glyph glyph-name="aring" unicode="&#xe5;" horiz-adv-x="1028" 
d="M934 721v-723h-92l-15 164q-295 -162 -446 -164q-328 0 -328 358q8 305 305 318h465v96q-20 227 -334 242q-166 0 -329 -21l-10 105q174 24 342 24q442 -20 442 -399zM823 567h-465q-188 -14 -192 -213q-4 -256 213 -250q133 4 444 177v286zM485 1538q-59 0 -92 -34
t-33 -100t33 -100t94 -34t95 35q33 35 32 100q0 133 -129 133zM242 1405q0 109 68 177t176 67q108 0 178 -68q70 -69 70 -177t-70 -176t-178 -67q-108 -1 -176 67t-68 177z" />
    <glyph glyph-name="ae" unicode="&#xe6;" horiz-adv-x="1693" 
d="M932 -2h-92l-15 164q-295 -162 -446 -164q-326 0 -326 358q6 305 303 318h465v96q-18 227 -332 242q-166 0 -331 -21l-8 105q174 25 339 24q371 -18 406 -178q53 172 301 172h170q356 0 367 -420q-10 -260 -187 -260h-608q25 -328 375 -328q104 0 346 21l45 -94
q-182 -39 -395 -39q-326 0 -377 119v-115zM1622 694q-4 311 -258 314h-172q-254 -2 -260 -469h614q76 5 76 155zM821 567h-465q-188 -14 -190 -213q-6 -256 211 -250q133 4 444 177v286z" />
    <glyph glyph-name="ccedilla" unicode="&#xe7;" horiz-adv-x="991" 
d="M72 553q0 565 432 565l409 -6v-106l-403 6q-326 0 -326 -459q0 -383 219 -449q41 -10 107 -14l403 6v-100l-409 -6q-43 0 -58 2l-6 -15q-20 -4 43 -2q131 -2 196 -57t64 -145q0 -115 -91 -171t-211 -56t-203 30l14 105q86 -27 149 -27q84 -6 156 16t82 105
q0 100 -147 102q-47 0 -75 -6t-83 -29l-29 39l39 131q-272 70 -272 541z" />
    <glyph glyph-name="egrave" unicode="&#xe8;" horiz-adv-x="1075" 
d="M897 694q-4 311 -258 314h-174q-254 -2 -258 -469h612q78 5 78 155zM588 106q102 0 346 21l45 -94q-182 -39 -397 -39q-485 0 -486 559q20 561 373 561h172q354 0 367 -420q-12 -260 -187 -260h-608q23 -328 375 -328zM154 1483h206l279 -305h-164z" />
    <glyph glyph-name="eacute" unicode="&#xe9;" horiz-adv-x="1054" 
d="M877 694q-4 311 -259 314h-174q-254 -2 -258 -469h613q78 5 78 155zM567 106q102 0 346 21l45 -94q-182 -39 -397 -39q-485 0 -485 559q20 561 373 561h172q354 0 366 -420q-12 -260 -186 -260h-608q23 -328 374 -328zM483 1178h-164l279 305h205z" />
    <glyph glyph-name="ecircumflex" unicode="&#xea;" horiz-adv-x="1071" 
d="M893 694q-4 311 -258 314h-174q-254 -2 -258 -469h612q78 5 78 155zM584 106q102 0 346 21l45 -94q-182 -39 -397 -39q-485 0 -486 559q20 561 373 561h172q354 0 367 -420q-12 -260 -187 -260h-608q23 -328 375 -328zM1012 1178h-162l-248 182l-248 -182h-159l358 303
h100z" />
    <glyph glyph-name="edieresis" unicode="&#xeb;" horiz-adv-x="1071" 
d="M893 694q-4 311 -258 314h-174q-254 -2 -258 -469h612q78 5 78 155zM584 106q102 0 346 21l45 -94q-182 -39 -397 -39q-485 0 -486 559q20 561 373 561h172q354 0 367 -420q-12 -260 -187 -260h-608q23 -328 375 -328zM678 1237v170h176v-170h-176zM256 1237v170h174
v-170h-174z" />
    <glyph glyph-name="igrave" unicode="&#xec;" horiz-adv-x="544" 
d="M-41 1542h209l276 -305h-163zM350 1122v-1126h-127v1126h127z" />
    <glyph glyph-name="iacute" unicode="&#xed;" horiz-adv-x="516" 
d="M233 1237h-163l278 305h205zM279 1114v-1112h-109v1112h109z" />
    <glyph glyph-name="icircumflex" unicode="&#xee;" horiz-adv-x="686" 
d="M748 1237h-158l-248 182l-246 -182h-157l335 305l140 -2zM397 1114v-1112h-108v1112h108z" />
    <glyph glyph-name="idieresis" unicode="&#xef;" horiz-adv-x="475" 
d="M360 1294v172h177v-172h-177zM-61 1294v172h174v-172h-174zM291 1114v-1112h-111v1112h111z" />
    <glyph glyph-name="eth" unicode="&#xf0;" horiz-adv-x="1267" 
d="M1122 963v-52q0 -913 -624 -913q-426 0 -426 500v39q0 494 465 493h159q113 -8 314 -33q0 268 -131 355l-244 -170l-64 84l203 143q-70 35 -289 35v112q268 0 398 -71l176 123l63 -86l-143 -101q143 -104 143 -458zM694 922h-157q-354 0 -355 -385v-39q0 -387 316 -387
q512 0 512 776q-207 35 -316 35z" />
    <glyph glyph-name="ntilde" unicode="&#xf1;" horiz-adv-x="1165" 
d="M252 -2h-113v1122h103l8 -133q203 133 297 133h139q365 0 365 -499v-623h-111v623q0 387 -254 387h-137q-80 -4 -297 -144v-866zM975 1329q-121 -121 -216 -121t-197 50t-150 50q-48 2 -74 -14t-76 -65l-80 92q117 127 240 127q57 0 139 -36t119 -54q80 -36 137 -2
q27 14 78 69z" />
    <glyph glyph-name="ograve" unicode="&#xf2;" horiz-adv-x="1144" 
d="M510 1001q-297 0 -297 -385v-118q0 -387 297 -387h119q315 0 315 387v118q0 385 -315 385h-119zM1055 616v-118q0 -496 -426 -496h-119q-418 0 -418 496v118q0 498 418 498h119q426 0 426 -498zM190 1483h207l279 -305h-164z" />
    <glyph glyph-name="oacute" unicode="&#xf3;" horiz-adv-x="1124" 
d="M489 1001q-297 0 -296 -385v-118q0 -387 296 -387h119q315 0 316 387v118q0 385 -316 385h-119zM1034 616v-118q0 -496 -426 -496h-119q-418 0 -417 496v118q0 498 417 498h119q426 0 426 -498zM500 1178h-164l278 305h205z" />
    <glyph glyph-name="ocircumflex" unicode="&#xf4;" horiz-adv-x="1140" 
d="M506 1001q-297 0 -297 -385v-118q0 -387 297 -387h119q315 0 315 387v118q0 385 -315 385h-119zM1051 616v-118q0 -496 -426 -496h-119q-418 0 -418 496v118q0 498 418 498h119q426 0 426 -498zM1028 1178h-162l-248 182l-247 -182h-160l358 303h101z" />
    <glyph glyph-name="otilde" unicode="&#xf5;" horiz-adv-x="1140" 
d="M506 1001q-297 0 -297 -385v-118q0 -387 297 -387h119q315 0 315 387v118q0 385 -315 385h-119zM1051 616v-118q0 -496 -426 -496h-119q-418 0 -418 496v118q0 498 418 498h119q426 0 426 -498zM1001 1321q-121 -121 -223 -121q-83 0 -189 50q-105 50 -151 50
q-48 0 -74 -15t-75 -64l-80 92q117 127 224 127q61 0 107 -18t88 -38q42 -18 79 -34q79 -34 137 -2q27 14 78 69z" />
    <glyph glyph-name="odieresis" unicode="&#xf6;" horiz-adv-x="1140" 
d="M506 1001q-297 0 -297 -385v-118q0 -387 297 -387h119q315 0 315 387v118q0 385 -315 385h-119zM1051 616v-118q0 -496 -426 -496h-119q-418 0 -418 496v118q0 498 418 498h119q426 0 426 -498zM694 1237v170h176v-170h-176zM272 1237v170h174v-170h-174z" />
    <glyph glyph-name="divide" unicode="&#xf7;" horiz-adv-x="1134" 
d="M496 211v268h149v-268h-149zM496 999v269h149v-269h-149zM1028 801v-113h-922v113h922z" />
    <glyph glyph-name="oslash" unicode="&#xf8;" horiz-adv-x="1150" 
d="M1034 616v-118q0 -496 -426 -496h-119q-78 0 -116 12l-76 -174l-107 45l74 168q-193 90 -192 445v118q0 498 417 498h119q76 0 113 -10l88 203l106 -41l-88 -199q207 -86 207 -451zM489 111h119q315 0 316 387v118q-1 286 -142 347l-366 -846q16 -6 73 -6zM608 1001h-119
q-297 0 -296 -385v-118q0 -274 116 -338l365 837q-10 4 -66 4z" />
    <glyph glyph-name="ugrave" unicode="&#xf9;" horiz-adv-x="1140" 
d="M911 1120h113v-1122h-100l-11 166q-201 -166 -297 -166h-139q-365 0 -364 500v622h110v-622q0 -387 254 -387h139q76 4 295 200v809zM195 1483h206l279 -305h-164z" />
    <glyph glyph-name="uacute" unicode="&#xfa;" horiz-adv-x="1136" 
d="M907 1120h113v-1122h-100l-11 166q-201 -166 -297 -166h-139q-365 0 -364 500v622h110v-622q0 -387 254 -387h139q76 4 295 200v809zM541 1178h-164l278 305h205z" />
    <glyph glyph-name="ucircumflex" unicode="&#xfb;" horiz-adv-x="1114" 
d="M915 1120h113v-1122h-100l-10 166q-201 -166 -297 -166h-140q-365 0 -364 500v622h110v-622q0 -387 254 -387h140q76 4 294 200v809zM1040 1178h-161l-248 182l-248 -182h-160l359 303h100z" />
    <glyph glyph-name="udieresis" unicode="&#xfc;" horiz-adv-x="1144" 
d="M915 1120h113v-1122h-100l-10 166q-201 -166 -297 -166h-140q-365 0 -364 500v622h110v-622q0 -387 254 -387h140q76 4 294 200v809zM707 1237v170h176v-170h-176zM285 1237v170h174v-170h-174z" />
    <glyph glyph-name="yacute" unicode="&#xfd;" horiz-adv-x="1081" 
d="M500 1178h-164l278 305h205zM621 109l350 1011h125l-377 -1106q-133 -397 -526 -401v104q317 20 393 279q-39 0 -66 67l-454 1057h133z" />
    <glyph glyph-name="thorn" unicode="&#xfe;" horiz-adv-x="1275" 
d="M283 100h295q449 0 448 482q0 444 -448 444h-295v-926zM172 1561h111v-428h295q571 0 571 -551q0 -588 -571 -588h-295v-467h-111v2034z" />
    <glyph glyph-name="ydieresis" unicode="&#xff;" horiz-adv-x="1087" 
d="M664 1237v170h176v-170h-176zM242 1237v170h174v-170h-174zM628 109l349 1011h125l-377 -1106q-133 -397 -526 -401v104q317 20 393 279q-39 0 -66 67l-454 1057h133z" />
    <glyph glyph-name="Amacron" unicode="&#x100;" horiz-adv-x="1316" 
d="M928 580l-293 815h-12l-279 -815h584zM625 1520h20q86 0 113 -78l489 -1444h-114l-172 467h-650l-174 -467h-114l489 1444q27 78 113 78zM958 1757v-100h-602v100h602z" />
    <glyph glyph-name="amacron" unicode="&#x101;" horiz-adv-x="1060" 
d="M969 -2h-92l-15 164q-295 -162 -446 -164q-328 0 -328 358q8 305 305 318h465v96q-20 227 -334 242q-166 0 -329 -21l-11 105q174 24 342 24q442 -20 443 -399v-723zM858 567h-465q-188 -14 -192 -213q-4 -256 213 -250q133 4 444 177v286zM840 1348v-101h-602v101h602z
" />
    <glyph glyph-name="Emacron" unicode="&#x112;" 
d="M1159 1407h-741q-178 0 -178 -178v-416h737v-111h-737v-415q0 -176 178 -176h737v-97l-737 -16q-293 0 -293 289v942q2 291 293 291l741 -19v-94zM934 1757v-100h-602v100h602z" />
    <glyph glyph-name="emacron" unicode="&#x113;" horiz-adv-x="1071" 
d="M893 694q-4 311 -258 314h-174q-254 -2 -258 -469h612q78 5 78 155zM584 106q102 0 346 21l45 -94q-182 -39 -397 -39q-485 0 -486 559q20 561 373 561h172q354 0 367 -420q-12 -260 -187 -260h-608q23 -328 375 -328zM854 1348v-101h-602v101h602z" />
    <glyph glyph-name="Imacron" unicode="&#x12a;" horiz-adv-x="526" 
d="M297 1520v-1522h-113v1522h113zM520 1757v-100h-602v100h602z" />
    <glyph glyph-name="imacron" unicode="&#x12b;" horiz-adv-x="548" 
d="M301 1114v-1112h-108v1112h108zM528 1348v-101h-602v101h602z" />
    <glyph glyph-name="dotlessi" unicode="&#x131;" horiz-adv-x="385" 
d="M240 1114v-1112h-109v1112h109z" />
    <glyph glyph-name="Omacron" unicode="&#x14c;" horiz-adv-x="1357" 
d="M580 1407q-397 0 -398 -553v-188q0 -555 398 -555h147q387 0 387 555v188q0 553 -387 553h-147zM1229 860v-198q0 -659 -510 -660h-137q-510 0 -510 660v198q0 659 510 660h137q510 -1 510 -660zM961 1757v-100h-603v100h603z" />
    <glyph glyph-name="omacron" unicode="&#x14d;" horiz-adv-x="1140" 
d="M506 1001q-297 0 -297 -385v-118q0 -387 297 -387h119q315 0 315 387v118q0 385 -315 385h-119zM1051 616v-118q0 -496 -426 -496h-119q-418 0 -418 496v118q0 498 418 498h119q426 0 426 -498zM874 1348v-101h-602v101h602z" />
    <glyph glyph-name="Umacron" unicode="&#x16a;" horiz-adv-x="1388" 
d="M264 1520v-988q0 -416 408 -415h41q418 0 417 415v988h113v-988q0 -528 -530 -528h-41q-520 0 -520 528v988h112zM1014 1757v-100h-602v100h602z" />
    <glyph glyph-name="umacron" unicode="&#x16b;" horiz-adv-x="1140" 
d="M911 1120h113v-1122h-100l-11 166q-201 -166 -297 -166h-139q-365 0 -364 500v622h110v-622q0 -387 254 -387h139q76 4 295 200v809zM883 1348v-101h-602v101h602z" />
    <glyph glyph-name="florin" unicode="&#x192;" horiz-adv-x="856" 
d="M322 12q0 -342 -297 -342l-17 113q199 0 199 235v996h-141v106h141v99q0 342 399 342q88 0 197 -29v-111q-117 35 -197 37q-285 0 -284 -246v-92h411v-106h-411v-1002z" />
    <glyph glyph-name="circumflex" unicode="&#x2c6;" horiz-adv-x="1040" 
d="M930 1178h-162l-248 182l-248 -182h-159l358 303h100z" />
    <glyph glyph-name="caron" unicode="&#x2c7;" horiz-adv-x="1048" 
d="M555 1180l-57 -4l-385 307h184l227 -162l228 162h186z" />
    <glyph glyph-name="uni02C9" unicode="&#x2c9;" horiz-adv-x="776" 
d="M709 1348v-101h-603v101h603z" />
    <glyph glyph-name="breve" unicode="&#x2d8;" horiz-adv-x="946" 
d="M475 1161q-216 0 -313 149q-39 60 -56 173h103q31 -55 40 -79q21 -57 104 -97q42 -21 121 -21t123 20t70 48q25 28 33 50t41 79h99q-20 -189 -146 -265q-94 -57 -219 -57z" />
    <glyph glyph-name="dotaccent" unicode="&#x2d9;" horiz-adv-x="526" 
 />
    <glyph glyph-name="ring" unicode="&#x2da;" horiz-adv-x="704" 
d="M479 1405q0 133 -129 133q-59 0 -92 -34t-33 -100t33 -100t94 -34t94 35t33 100zM106 1405q0 109 69 177t177 67q108 0 176 -68q70 -69 70 -177t-70 -176t-177 -67q-107 -1 -176 67t-69 177z" />
    <glyph glyph-name="ogonek" unicode="&#x2db;" horiz-adv-x="696" 
d="M420 -475q-146 0 -230 55t-84 174q0 76 51 164q50 88 140 152h209q-118 -88 -184 -142t-70 -131q16 -104 46 -127q30 -24 111 -24t152 16l29 -106q-88 -31 -170 -31z" />
    <glyph glyph-name="tilde" unicode="&#x2dc;" horiz-adv-x="1030" 
d="M901 1739q-121 -121 -217 -121t-198 50t-149 50q-46 0 -73 -15t-76 -65l-79 93q117 127 239 127q45 0 105 -24t125 -54q65 -29 102 -29q38 0 64 14t77 70z" />
    <glyph glyph-name="hungarumlaut" unicode="&#x2dd;" horiz-adv-x="1107" 
d="M672 1178h-160l272 305h209zM274 1178h-161l270 305h213z" />
    <glyph glyph-name="endash" unicode="&#x2013;" horiz-adv-x="1292" 
d="M1186 639v-113h-1080v113h1080z" />
    <glyph glyph-name="emdash" unicode="&#x2014;" horiz-adv-x="2330" 
d="M2224 639v-113h-2118v113h2118z" />
    <glyph glyph-name="quoteleft" unicode="&#x2018;" horiz-adv-x="579" 
d="M369 975h-131l-129 526h135z" />
    <glyph glyph-name="quoteright" unicode="&#x2019;" horiz-adv-x="577" 
d="M336 1501h133l-129 -526h-129z" />
    <glyph glyph-name="quotesinglbase" unicode="&#x201a;" horiz-adv-x="577" 
d="M336 295h133l-129 -524h-129z" />
    <glyph glyph-name="quotedblleft" unicode="&#x201c;" horiz-adv-x="897" 
d="M367 975h-129l-129 526h135zM625 975h-131l-129 526h135z" />
    <glyph glyph-name="quotedblright" unicode="&#x201d;" horiz-adv-x="897" 
d="M655 1501h133l-129 -526h-129zM397 1501h135l-129 -526h-131z" />
    <glyph glyph-name="quotedblbase" unicode="&#x201e;" horiz-adv-x="897" 
d="M655 322h133l-129 -527h-129zM397 322h135l-129 -527h-131z" />
    <glyph glyph-name="dagger" unicode="&#x2020;" horiz-adv-x="1050" 
d="M463 897h-357v115h357v542h125v-542h356v-115h-356v-1233h-125v1233z" />
    <glyph glyph-name="daggerdbl" unicode="&#x2021;" horiz-adv-x="1050" 
d="M463 377v520h-357v115h357v542h125v-542h356v-115h-356v-520h356v-115h-356v-598h-125v598h-357v115h357z" />
    <glyph glyph-name="bullet" unicode="&#x2022;" horiz-adv-x="792" 
d="M645 776q0 -105 -75 -177q-75 -71 -176 -72t-174 72t-73 179t72 177t177 71t174 -72q75 -73 75 -178z" />
    <glyph glyph-name="ellipsis" unicode="&#x2026;" horiz-adv-x="1210" 
d="M219 233v-231h-113v231h113zM629 233v-231h-113v231h113zM1038 233v-231h-112v231h112z" />
    <glyph glyph-name="perthousand" unicode="&#x2030;" horiz-adv-x="2410" 
d="M1290 -6q-340 0 -340 325v99q0 346 340 346q299 0 338 -260q39 260 336 260q344 0 344 -346v-99q0 -326 -344 -325q-297 0 -336 244q-39 -244 -338 -244zM1741 315q0 -209 225 -209t225 209v99q0 238 -233 237q-217 0 -217 -237v-99zM1067 315q0 -209 225 -209t226 209
v99q0 238 -232 237q-219 0 -219 -237v-99zM272 -4l1028 1524h140l-1028 -1524h-140zM219 1067q0 -211 225 -211t226 211v98q0 238 -232 238q-219 0 -219 -238v-98zM102 1169q0 346 340 347q344 0 344 -347v-100q0 -326 -342 -326t-342 326v100z" />
    <glyph glyph-name="guilsinglleft" unicode="&#x2039;" horiz-adv-x="733" 
d="M109 573l358 482h156l-355 -480l355 -483h-152z" />
    <glyph glyph-name="guilsinglright" unicode="&#x203a;" horiz-adv-x="735" 
d="M266 92h-155l356 483l-356 480h157l359 -482z" />
    <glyph glyph-name="exclamdbl" unicode="&#x203c;" horiz-adv-x="741" 
d="M635 1524l-12 -1104h-109l-12 1104h133zM635 248v-246h-131v246h131zM240 1524l-13 -1104h-108l-13 1104h134zM240 248v-246h-131v246h131z" />
    <glyph glyph-name="fraction" unicode="&#x2044;" horiz-adv-x="1382" 
d="M104 -4l1029 1524h139l-1028 -1524h-140z" />
    <glyph glyph-name="fraction" unicode="&#x2215;" horiz-adv-x="1382" 
d="M104 -4l1029 1524h139l-1028 -1524h-140z" />
    <glyph glyph-name="franc" unicode="&#x20a3;" horiz-adv-x="1296" 
d="M270 397h408v-92h-408v-307h-112v307h-113v92h113v832q0 291 291 291l741 -19v-94h-741q-178 0 -179 -178v-359h738v-112h-738v-361z" />
    <glyph glyph-name="lira" unicode="&#x20a4;" horiz-adv-x="1157" 
d="M422 604v-133q-6 -174 -148 -346h756v-115h-915v107q168 217 184 360v127h-178v111h178v127h-178v110h178v95q0 467 414 466h299v-106h-287q-303 0 -303 -360v-95h479v-110h-479v-127h479v-111h-479z" />
    <glyph glyph-name="peseta" unicode="&#x20a7;" horiz-adv-x="2031" 
d="M1505 1364v-252h414v-104h-414v-707q4 -190 146 -192l274 6v-97l-264 -22q-268 0 -268 326v686h-158v104h158v252h112zM721 688q369 0 369 367q0 362 -369 362h-502v-729h502zM106 2v1518h615q481 0 481 -467t-481 -467h-502v-584h-113z" />
    <glyph glyph-name="Euro" unicode="&#x20ac;" horiz-adv-x="1419" 
d="M256 819h-150v101h156q45 596 533 596q276 -8 518 -43v-99q-242 29 -512 31q-385 0 -424 -485h735v-101h-743v-90h743v-102h-739q29 -520 428 -521q270 2 510 29v-94q-240 -35 -516 -45q-502 0 -535 631h-154v102h150v90z" />
    <glyph glyph-name="uni2116" unicode="&#x2116;" horiz-adv-x="2242" 
d="M1591 1407q-297 0 -297 -387v-119q0 -385 297 -385h119q315 0 315 385v119q0 387 -315 387h-119zM2136 1020v-119q0 -494 -426 -493h-119q-418 0 -417 493v119q0 500 417 500h119q426 0 426 -500zM106 2v1444q0 76 99 76h39q63 0 92 -66l676 -1339h10v1403h113v-1444
q0 -74 -99 -74h-35q-55 0 -92 80l-673 1331h-17v-1411h-113zM2093 371v-103h-866v103h866z" />
    <glyph glyph-name="trademark" unicode="&#x2122;" horiz-adv-x="1742" 
d="M758 684v782q0 43 45 43h139q35 0 51 -36l195 -523h8l188 523q18 35 48 34h145q39 0 39 -41v-782h-127v707h-4l-199 -531q-20 -43 -51 -43h-82q-37 0 -55 43l-205 510h-8v-686h-127zM745 1507v-125h-237v-700h-127v700h-254v125h618z" />
    <glyph glyph-name="estimated" unicode="&#x212e;" horiz-adv-x="1218" 
d="M623 1012q-153 0 -269 -121v-273h533v283q-111 111 -264 111zM1112 571v-47h-758v-323q113 -109 269 -109q195 0 364 121l2 -102q-179 -113 -378 -113t-351 161q-151 161 -152 387q-2 226 157 391q159 164 362 165q202 2 344 -152q141 -154 141 -379z" />
    <glyph glyph-name="partialdiff" unicode="&#x2202;" horiz-adv-x="1941" 
d="M246 1348v114q173 4 372 4q432 -12 449 -460q8 -230 -35 -412t-140 -349t-398 -194q-385 0 -385 430q8 504 354 520q199 0 471 -149q41 416 -266 491q-23 4 -99 5h-323zM915 719q-244 135 -448 145q-201 -4 -217 -379q2 -309 239 -311q223 20 314 188q89 169 112 357z
" />
    <glyph glyph-name="Delta" unicode="&#x2206;" horiz-adv-x="1492" 
d="M1202 131l-463 1204l-456 -1204h919zM651 1513h174l559 -1511h-1275z" />
    <glyph glyph-name="product" unicode="&#x220f;" horiz-adv-x="1689" 
d="M403 1421h-297v109h1477v-109h-293v-1773h-137v1773h-612v-1773h-138v1773z" />
    <glyph glyph-name="summation" unicode="&#x2211;" horiz-adv-x="1302" 
d="M1190 1530v-109h-858l413 -805l-448 -860h899v-108h-1087l495 973l-467 909h1053z" />
    <glyph glyph-name="minus" unicode="&#x2212;" horiz-adv-x="1134" 
d="M1028 782v-112h-922v112h922z" />
    <glyph glyph-name="radical" unicode="&#x221a;" horiz-adv-x="1296" 
d="M309 686l-200 -61v88l268 116l241 -628l449 1435h119l-490 -1634h-131z" />
    <glyph glyph-name="infinity" unicode="&#x221e;" horiz-adv-x="1566" 
d="M412 242q-137 0 -221 96q-85 96 -85 239q0 144 88 241t220 95q76 0 160 -51t212 -215q131 168 213 216t152 48q140 0 225 -96t85 -237q-1 -141 -89 -241q-88 -99 -221 -97q-74 0 -159 51t-212 217q-133 -172 -216 -219q-84 -47 -152 -47zM1147 340q94 0 150 68
q57 68 57 170t-58 166q-58 65 -144 65q-87 0 -127 -33q-82 -68 -181 -203q152 -202 240 -225q32 -8 63 -8zM418 813q-92 0 -150 -67q-58 -68 -57 -170q0 -102 58 -167t141 -65t127 32q45 32 83 74t101 132q-147 196 -242 222q-33 9 -61 9z" />
    <glyph glyph-name="integral" unicode="&#x222b;" horiz-adv-x="1153" 
d="M520 1139q0 424 342 424h187v-99h-168q-250 0 -250 -299v-1216q0 -424 -357 -424h-168v98h168q246 0 246 332v1184z" />
    <glyph glyph-name="approxequal" unicode="&#x2248;" horiz-adv-x="1130" 
d="M1022 631q-123 -133 -291 -131q-67 0 -153 28t-130 40q-95 28 -174 -1q-41 -14 -100 -75l-61 61q55 72 136 111q81 38 149 38t116 -14q47 -14 126 -41t133 -28t92 13t104 77zM727 866q-72 0 -157 28t-130 42t-88 14t-83 -15t-99 -75l-61 62q55 70 136 108t149 39
q68 0 116 -14q47 -14 131 -41t133 -27t87 13t102 77l55 -84q-131 -127 -291 -127z" />
    <glyph glyph-name="notequal" unicode="&#x2260;" horiz-adv-x="1146" 
d="M102 530v113h379l74 164h-453v113h502l158 354l98 -45l-137 -309h301v-113h-352l-74 -164h426v-113h-475l-182 -407l-99 45l162 362h-328z" />
    <glyph glyph-name="lessequal" unicode="&#x2264;" horiz-adv-x="1134" 
d="M1028 236v-113h-922v113h922zM1014 1284l4 -127l-758 -371l758 -376l-4 -119l-908 452v91z" />
    <glyph glyph-name="greaterequal" unicode="&#x2265;" horiz-adv-x="1134" 
d="M1028 236v-113h-922v113h922zM1026 834v-91l-905 -452l-4 119l757 376l-757 371l4 127z" />
    <glyph glyph-name="lozenge" unicode="&#x25ca;" horiz-adv-x="1232" 
d="M614 1348l-364 -592l368 -592l365 592zM567 1520h95l464 -764l-460 -760h-95l-465 760z" />
    <glyph glyph-name="uniFFFC" unicode="&#xfffc;" horiz-adv-x="2074" 
d="M1653 938v-444q-10 -168 -178 -175h-64v74h64q98 0 104 101v444h74zM1145 399q119 -1 119 105t-105 106h-164v-211h150zM1135 678q117 0 116 92q0 102 -116 102h-140v-194h140zM922 328v618h223q186 0 186 -172q0 -111 -102 -129q119 -20 119 -139q-4 -172 -207 -178
h-219zM600 870q-127 0 -127 -200v-82q0 -201 127 -201h62q123 0 122 201v82q0 201 -122 200h-62zM862 672v-84q0 -268 -203 -269h-57q-205 0 -205 269v84q0 268 205 268h57q203 0 203 -268zM1978 156h-127v258h127v-258zM1978 879h-127v260h127v-260zM1978 516h-127v262h127
v-262zM225 156h-129v258h129v-258zM225 879h-129v260h129v-260zM225 516h-129v262h129v-262zM510 -266v129h287v-129h-287zM893 -266v129h287v-129h-287zM1276 -266v129h289v-129h-289zM510 1401v131h287v-131h-287zM893 1401v131h287v-131h-287zM1276 1401v131h289v-131
h-289zM1659 1401v131h319v-295h-127v164h-192zM96 1237v295h318v-131h-189v-164h-129zM1659 -266v129h192v194h127v-323h-319zM96 -266v323h129v-194h189v-129h-318z" />
    <glyph glyph-name="uniFFFD" unicode="&#xfffd;" horiz-adv-x="2170" 
d="M1083 1755l981 -997l-981 -998l-977 998zM997 424v-162h162v162h-162zM1104 1024q119 0 119 -57v-41q0 -43 -80 -84q-150 -90 -150 -240v-106h166v102q0 84 84 121q145 78 146 207v41q0 225 -273 227q-131 0 -289 -27v-157q158 14 277 14z" />
    <glyph glyph-name="alt.g" horiz-adv-x="1163" 
d="M522 942q-209 0 -209 -223v-375q0 -162 209 -160h41l297 47l-2 582q-131 121 -280 129h-56zM522 1118h53q174 -12 281 -127l18 119h162v-1200q0 -199 -145 -272q-119 -59 -348 -60q-117 0 -299 21l28 163q141 -20 258 -20t207 22q123 33 123 160v135l-297 -49h-41
q-395 0 -395 334v371q0 403 395 403z" />
    </font>
</defs>
</svg>
