<?xml version="1.0" standalone="no"?>
<!DOCTYPE svg PUBLIC "-//W3C//DTD SVG 1.1//EN" "http://www.w3.org/Graphics/SVG/1.1/DTD/svg11.dtd" >
<svg xmlns="http://www.w3.org/2000/svg">
<metadata>
Created by FontPrep 20130207 at Thu Sep 24 14:09:00 2015
 By Brian Stephens
Esphimere (c)Dichi. 2015. All Rights Reserved
</metadata>
<defs>
<font id="711cbd3c2bb26effb0e0a24d0a63712f" horiz-adv-x='1024' >
  <font-face 
    font-family="Esphimere-ThinItalic"
    font-weight="100"
    font-style="italic"
    font-stretch="normal"
    units-per-em="2048"
    panose-1="2 11 2 3 3 0 0 9 0 4"
    ascent="1638"
    descent="-410"
    x-height="1098"
    cap-height="1518"
    bbox="-55 -487.002 2364.23 1908"
    underline-thickness="102"
    underline-position="-102"
    slope="-7.5"
    unicode-range="U+001D-FFFD"
  />
<missing-glyph horiz-adv-x="1148" 
d="M360 1481l-182 -1383h817l183 1383h-818zM1245 1538l-196 -1497h-936l196 1497h936z" />
    <glyph glyph-name="uniF001" unicode="fi" horiz-adv-x="1132" 
d="M780 1561q86 0 170 -23l-6 -49q-84 25 -170 27q-326 0 -362 -285l-17 -127h727l-143 -1096h-55l137 1049h-672l-143 -1090q-51 -279 -301 -278l6 53q207 0 242 258l139 1057h-148l6 47h148l18 133q41 324 424 324zM1182 1561l-23 -179h-55l22 179h56z" />
    <glyph glyph-name="uniF002" unicode="fl" horiz-adv-x="1361" 
d="M780 1561q125 0 301 -27l60 -14l-156 -1182q-37 -276 199 -277l162 7l-5 -39l-165 -23q-291 0 -246 336l149 1133q-178 39 -305 41q-326 0 -362 -285l-17 -127h426l-6 -47h-426l-143 -1090q-51 -279 -301 -278l6 53q207 0 242 258l139 1057h-148l6 47h148l18 133
q41 324 424 324z" />
    <glyph glyph-name="uniFB00" unicode="ff" horiz-adv-x="1511" 
d="M799 1561q86 0 170 -23l-6 -49q-84 25 -170 27q-326 0 -363 -285l-16 -127h737l18 133q41 324 424 324q86 0 170 -23l-6 -49q-84 25 -170 27q-326 0 -362 -285l-17 -127h426l-6 -47h-426l-143 -1090q-51 -279 -301 -278l6 53q207 0 242 258l139 1057h-737l-144 -1090
q-51 -279 -301 -278l6 53q207 0 242 258l139 1057h-147l6 47h147l19 133q41 324 424 324z" />
    <glyph glyph-name="uniFB03" unicode="ffi" horiz-adv-x="1904" 
d="M799 1561q86 0 170 -23l-6 -49q-84 25 -170 27q-326 0 -363 -285l-16 -127h737l18 133q41 324 424 324q86 0 170 -23l-6 -49q-84 25 -170 27q-326 0 -362 -285l-17 -127h727l-143 -1096h-55l137 1049h-672l-143 -1090q-51 -279 -301 -278l6 53q207 0 242 258l139 1057
h-737l-144 -1090q-51 -279 -301 -278l6 53q207 0 242 258l139 1057h-147l6 47h147l19 133q41 324 424 324zM1995 1561l-23 -179h-55l22 179h56z" />
    <glyph glyph-name="uniFB04" unicode="ffl" horiz-adv-x="2174" 
d="M799 1561q86 0 170 -23l-6 -49q-84 25 -170 27q-326 0 -363 -285l-16 -127h737l18 133q41 324 424 324q125 0 301 -27l60 -14l-156 -1182q-37 -276 199 -277l162 7l-5 -39l-165 -23q-291 0 -246 336l149 1133q-178 39 -305 41q-326 0 -362 -285l-17 -127h426l-6 -47h-426
l-143 -1092q-51 -279 -301 -278l6 53q207 0 242 258l139 1059h-737l-144 -1090q-51 -279 -301 -278l6 53q207 0 242 258l139 1057h-147l6 47h147l19 133q41 324 424 324z" />
    <glyph glyph-name=".notdef" horiz-adv-x="1148" 
d="M360 1481l-182 -1383h817l183 1383h-818zM1245 1538l-196 -1497h-936l196 1497h936z" />
    <glyph glyph-name=".null" horiz-adv-x="0" 
 />
    <glyph glyph-name=".null" horiz-adv-x="0" 
 />
    <glyph glyph-name="nonmarkingreturn" horiz-adv-x="1091" 
 />
    <glyph glyph-name="space" unicode=" " horiz-adv-x="464" 
 />
    <glyph glyph-name="space" unicode="&#xa0;" horiz-adv-x="464" 
 />
    <glyph glyph-name="exclam" unicode="!" horiz-adv-x="403" 
d="M457 1524l-156 -1084h-51l131 1084h76zM283 201l-25 -193h-76l25 193h76z" />
    <glyph glyph-name="quotedbl" unicode="&#x22;" horiz-adv-x="591" 
d="M629 1575h63l-33 -246l-59 -287h-18l14 287zM311 1575h66l-33 -246l-59 -287h-21l15 287z" />
    <glyph glyph-name="numbersign" unicode="#" horiz-adv-x="1470" 
d="M465 496h-272l6 51h280l94 452h-270l6 50h277l73 342l54 2l-76 -344h508l74 342l55 2l-78 -344h258l-6 -50h-260l-98 -452h253l-6 -51h-260l-84 -387h-49l80 387h-504l-82 -387h-57zM1036 547l101 452h-508l-99 -452h506z" />
    <glyph glyph-name="dollar" unicode="$" horiz-adv-x="1181" 
d="M813 1518l408 -11l-7 -49l-409 4l-90 -690l67 -22q379 -98 357 -281l-17 -127q-63 -340 -510 -340l-28 -213h-56l29 213l-444 4l8 55l444 -4l88 674l-92 31q-342 94 -334 287l23 157q39 301 508 312l24 188h56zM750 1462q-410 -10 -441 -256l-22 -157q-8 -150 297 -234
l78 -24zM707 713l-86 -656q395 4 438 285l16 127q18 133 -319 227z" />
    <glyph glyph-name="percent" unicode="%" horiz-adv-x="1732" 
d="M1305 53q272 0 305 248l14 102q37 276 -235 277q-256 0 -293 -277l-15 -102q-32 -248 224 -248zM1306 -2q-324 0 -284 307l12 103q43 328 367 327q326 0 282 -327l-12 -103q-41 -307 -365 -307zM307 2l1225 1516h70l-1225 -1516h-70zM528 831q272 0 306 248l14 103
q37 276 -236 276q-256 0 -293 -276l-14 -103q-33 -248 223 -248zM529 776q-325 0 -283 307l12 103q43 328 367 327q326 0 282 -327l-12 -103q-41 -307 -366 -307z" />
    <glyph glyph-name="ampersand" unicode="&#x26;" horiz-adv-x="1333" 
d="M1012 84q-174 -68 -344 -76q-315 2 -410 92q-70 66 -59 258q27 367 241 402v8q-205 35 -135 401q41 193 129 258q117 90 432 93l240 -23l14 -49l-262 16q-287 -2 -387 -75q-133 -102 -125 -443q8 -133 174 -158h522l33 254h55l-32 -254h266l-8 -55h-266l-58 -438
q-25 -227 152 -232l90 7l-4 -39l-84 -23q-121 0 -174 76zM512 733q-170 -18 -215 -151q-96 -340 10 -443q80 -74 367 -76q156 4 313 72q-25 57 -8 180l55 418h-522z" />
    <glyph glyph-name="quotesingle" unicode="'" horiz-adv-x="405" 
d="M315 1575h66l-33 -246l-59 -287h-21l15 287z" />
    <glyph glyph-name="parenleft" unicode="(" horiz-adv-x="487" 
d="M641 1688q-498 -977 -252 -1958h-53q-277 990 266 1958h39z" />
    <glyph glyph-name="parenright" unicode=")" horiz-adv-x="512" 
d="M51 -270q243 458 309 962t-57 996h53q138 -489 72 -989t-338 -969h-39z" />
    <glyph glyph-name="asterisk" unicode="*" horiz-adv-x="755" 
d="M469 1149l39 305h63l-39 -305l254 88l21 -47l-254 -103l129 -235l-51 -31l-142 234l-210 -234l-39 33l196 233l-237 105l34 45z" />
    <glyph glyph-name="plus" unicode="+" horiz-adv-x="989" 
d="M547 717h-418l6 51h418l59 453h54l-60 -453h416l-6 -51h-416l-59 -451h-54z" />
    <glyph glyph-name="comma" unicode="," horiz-adv-x="268" 
d="M164 199h55l-176 -432h-51z" />
    <glyph glyph-name="hyphen" unicode="-" horiz-adv-x="661" 
d="M659 606l-8 -55h-540l8 55h540z" />
    <glyph glyph-name="hyphen" unicode="&#xad;" horiz-adv-x="661" 
d="M659 606l-8 -55h-540l8 55h540z" />
    <glyph glyph-name="period" unicode="." horiz-adv-x="251" 
d="M178 186l-22 -178h-56l23 178h55z" />
    <glyph glyph-name="slash" unicode="/" horiz-adv-x="655" 
d="M772 1538h68l-717 -1530h-68z" />
    <glyph glyph-name="zero" unicode="0" horiz-adv-x="1187" 
d="M647 63q381 0 455 560l37 278q74 563 -308 563h-69q-401 -2 -475 -565l-37 -278q-74 -557 328 -558h69zM641 8h-70q-457 0 -376 610l36 289q82 612 539 613h70q436 -1 354 -613l-37 -289q-80 -610 -516 -610z" />
    <glyph glyph-name="one" unicode="1" horiz-adv-x="645" 
d="M535 8h-56l191 1456l-373 -61l6 51l375 64h55z" />
    <glyph glyph-name="two" unicode="2" horiz-adv-x="1187" 
d="M1075 4h-962l4 27q57 313 262 461l528 342q186 117 221 247l7 52q6 250 -174 309q-109 39 -189 41q-213 -10 -426 -19l6 47q213 23 422 25q111 0 219 -47q205 -80 197 -356l-6 -52q-27 -145 -244 -286l-530 -346q-195 -147 -226 -390h899z" />
    <glyph glyph-name="three" unicode="3" horiz-adv-x="1210" 
d="M868 733h-471l9 55h471q172 25 215 158q98 340 -11 443q-80 74 -366 75l-369 -16l6 49l371 23q315 -2 407 -93q72 -66 60 -258q-25 -367 -242 -401v-8q207 -35 135 -402q-39 -193 -129 -258q-115 -90 -430 -92l-405 23l6 49l405 -17q287 2 388 76q135 102 124 443
q-6 133 -174 151z" />
    <glyph glyph-name="four" unicode="4" horiz-adv-x="1249" 
d="M1106 1452h-25l-835 -920l-2 -26h739zM1038 506h166l-8 -55h-166l-57 -443h-55l57 443h-803l6 41q4 41 17 53l864 962q10 12 20 13h92z" />
    <glyph glyph-name="five" unicode="5" horiz-adv-x="1187" 
d="M1217 1462h-857l-73 -557l440 17q469 0 414 -418l-8 -62q-57 -440 -527 -440l-489 25l8 59l487 -25q416 0 465 381l8 62q47 354 -368 364l-438 -20q-49 0 -50 43l84 627h912z" />
    <glyph glyph-name="six" unicode="6" horiz-adv-x="1187" 
d="M276 823l-43 -327q-41 -432 322 -435h115q356 2 415 435l2 12q51 414 -301 414q-148 -1 -510 -99zM795 977q408 0 348 -469l-2 -12q-66 -487 -479 -490h-115q-430 2 -369 490l74 559q63 469 496 469q193 -8 382 -33l-6 -49q-190 27 -385 26q-377 0 -432 -413l-22 -172
q362 94 510 94z" />
    <glyph glyph-name="seven" unicode="7" horiz-adv-x="1218" 
d="M1210 1520q97 0 52 -82l-746 -1430h-55l751 1456h-907l8 56h897z" />
    <glyph glyph-name="eight" unicode="8" horiz-adv-x="1187" 
d="M780 1532h27q444 0 395 -375l-8 -61q-33 -254 -283 -322q258 -53 224 -321l-13 -103q-47 -350 -516 -350h-26q-467 0 -420 350l12 103q34 268 317 321q-238 68 -200 342l4 41q49 375 487 375zM801 1479h-27q-383 0 -426 -322l-8 -61q-35 -274 344 -295h27q393 21 428 295
l8 61q43 322 -346 322zM705 745h-27q-410 0 -451 -292l-14 -105q-33 -293 375 -293h26q414 0 453 295l12 103q40 292 -374 292z" />
    <glyph glyph-name="nine" unicode="9" horiz-adv-x="1187" 
d="M1112 707l43 327q41 432 -321 434h-115q-356 -2 -416 -434v-12q-53 -414 299 -414q150 1 510 99zM596 553q-408 0 -348 469v12q68 487 479 490h115q432 -2 368 -490l-71 -559q-66 -469 -498 -469q-201 10 -401 33l6 49q201 -25 403 -27q377 0 434 414l23 172
q-360 -94 -510 -94z" />
    <glyph glyph-name="colon" unicode=":" horiz-adv-x="321" 
d="M213 186l-23 -178h-55l23 178h55zM319 1001l-22 -180h-55l22 180h55z" />
    <glyph glyph-name="semicolon" unicode=";" horiz-adv-x="368" 
d="M215 199h55l-176 -432h-51zM379 1014l-23 -180h-55l23 180h55z" />
    <glyph glyph-name="semicolon" unicode="&#x37e;" horiz-adv-x="368" 
d="M215 199h55l-176 -432h-51zM379 1014l-23 -180h-55l23 180h55z" />
    <glyph glyph-name="less" unicode="&#x3c;" horiz-adv-x="1015" 
d="M1085 1192l-10 -66l-835 -399l733 -389l-10 -76l-824 436l8 58z" />
    <glyph glyph-name="equal" unicode="=" horiz-adv-x="1120" 
d="M1116 897l-8 -55h-895l8 55h895zM1077 610l-6 -55h-895l6 55h895z" />
    <glyph glyph-name="greater" unicode="&#x3e;" horiz-adv-x="1052" 
d="M1110 756l-8 -58l-938 -436l10 76l836 389l-734 399l11 66z" />
    <glyph glyph-name="question" unicode="?" horiz-adv-x="1069" 
d="M532 182l-24 -178h-55l24 178h55zM729 1448q-219 0 -442 -21l6 52q231 39 457 39q418 -4 372 -344l-8 -70q-25 -193 -305 -285q-205 -106 -229 -282l-17 -127h-61l18 133q31 229 268 331q248 123 263 230l8 70q37 274 -330 274z" />
    <glyph glyph-name="at" unicode="@" horiz-adv-x="2166" 
d="M1263 1501q-458 0 -697 -203t-297 -646t126 -646t643 -203h19l-6 -55h-19q-514 0 -701 214t-124 690t316 690t746 214t691 -214t133 -691q-98 -487 -541 -487h-28q-125 23 -111 147l10 58q-297 -172 -469 -176q-252 18 -219 268q20 156 43 315q66 315 375 336
q143 0 369 -160l30 154l54 2l-136 -735v-2q-16 -156 68 -156q412 16 492 436q57 444 -126 647t-641 203zM961 258q6 0 12 2q172 0 465 186l67 435q-240 164 -346 163q-8 0 -16 -2q-246 -10 -297 -282q-26 -168 -48 -335t163 -167z" />
    <glyph glyph-name="A" unicode="A" horiz-adv-x="1234" 
d="M1034 545l-207 905h-57l-428 -905h692zM825 1518q68 0 80 -60l301 -1454h-55l-115 483h-714l-244 -483h-55l686 1454q29 59 96 60h20z" />
    <glyph glyph-name="B" unicode="B" horiz-adv-x="1345" 
d="M715 63q436 0 481 336q27 334 -354 342h-527l-90 -678h490zM850 803q360 14 403 334q43 330 -356 329l-487 -2l-86 -661h526zM707 8h-543l198 1512h545q455 -2 406 -381q-61 -309 -350 -363q311 -61 290 -373q-51 -395 -546 -395z" />
    <glyph glyph-name="C" unicode="C" horiz-adv-x="1183" 
d="M1110 49q-225 -31 -510 -41q-526 0 -427 756t626 756q283 -8 501 -39l-4 -41q-217 25 -497 26q-479 0 -571 -703t386 -704q281 4 502 27z" />
    <glyph glyph-name="D" unicode="D" horiz-adv-x="1427" 
d="M754 45q473 0 567 716t-379 716h-532l-189 -1432h533zM948 1526q530 0 430 -763t-630 -763h-586l200 1526h586z" />
    <glyph glyph-name="E" unicode="E" horiz-adv-x="1212" 
d="M590 1462q-215 0 -244 -215l-59 -461h764l-9 -53h-763l-60 -461q-29 -213 187 -213h733l-6 -39l-736 -16q-272 0 -235 268l127 975q39 270 309 271l735 -17l-6 -39h-737z" />
    <glyph glyph-name="F" unicode="F" horiz-adv-x="1290" 
d="M627 1462q-215 0 -244 -215l-59 -461h763l-8 -53h-764l-96 -729h-57l164 1243q39 270 309 271l735 -17l-6 -39h-737z" />
    <glyph glyph-name="G" unicode="G" horiz-adv-x="1306" 
d="M834 1462q-477 0 -594 -628l-25 -175q-78 -600 418 -600h483l86 658h-504l9 55h559l-103 -768h-538q-553 0 -467 655l22 172q131 686 664 687l475 -17l-6 -39h-479z" />
    <glyph glyph-name="H" unicode="H" horiz-adv-x="1361" 
d="M418 1518l-96 -725h911l96 725h55l-200 -1514h-56l97 733h-914l-94 -729h-53l198 1510h56z" />
    <glyph glyph-name="I" unicode="I" horiz-adv-x="395" 
d="M418 1518l-201 -1514h-55l200 1514h56z" />
    <glyph glyph-name="J" unicode="J" horiz-adv-x="825" 
d="M848 1520l-143 -1086q-80 -410 -492 -424l-156 -2l6 55h156q362 2 430 371l144 1086h55z" />
    <glyph glyph-name="K" unicode="K" horiz-adv-x="1228" 
d="M428 1540l-115 -850l895 850h90l-645 -612q186 -477 506 -940h-80q-287 401 -471 897l-303 -275l-82 -622h-63l205 1552h63z" />
    <glyph glyph-name="L" unicode="L" horiz-adv-x="1128" 
d="M408 8q-254 0 -205 379l149 1133h64l-150 -1133q-43 -322 148 -321h673l-6 -58h-673z" />
    <glyph glyph-name="M" unicode="M" horiz-adv-x="1597" 
d="M414 1522h41q45 0 61 -52l332 -1142h16l594 1142q27 49 70 50h47q45 0 39 -47l-193 -1465h-55l193 1462h-43l-603 -1144q-27 -45 -47 -45h-35q-23 0 -40 45l-332 1144h-47l-193 -1462h-55l192 1465q6 49 58 49z" />
    <glyph glyph-name="N" unicode="N" horiz-adv-x="1329" 
d="M434 1522h41q45 0 62 -52l522 -1404h61l193 1452h55l-194 -1465q-4 -45 -76 -45h-37q-37 0 -60 66l-522 1396h-67l-193 -1462h-55l192 1465q6 49 78 49z" />
    <glyph glyph-name="O" unicode="O" 
d="M760 1462q-442 0 -522 -602l-25 -196q-80 -604 362 -605h152q432 0 512 605l25 196q80 602 -353 602h-151zM713 8h-142q-498 0 -413 651l28 207q86 653 584 654h141q498 -1 412 -654l-29 -207q-84 -651 -581 -651z" />
    <glyph glyph-name="P" unicode="P" horiz-adv-x="1353" 
d="M854 657q414 0 469 410q53 408 -360 408h-551l-109 -818h551zM969 1520q469 0 409 -454t-530 -454h-551l-78 -604h-55l198 1512h607z" />
    <glyph glyph-name="Q" unicode="Q" horiz-adv-x="1355" 
d="M713 8h-142q-498 0 -413 651l28 207q86 653 584 654h141q498 0 412 -654l-29 -207q-41 -313 -176 -475l115 -104l-37 -37l-115 102q-139 -137 -368 -137zM911 1462h-151q-442 0 -522 -602l-25 -196q-80 -604 362 -605h152q195 0 317 121l-372 334l37 37l368 -332
q123 152 162 445l25 196q80 602 -353 602z" />
    <glyph glyph-name="R" unicode="R" 
d="M907 612h-610l-80 -608h-55l200 1516h607q469 -2 409 -453q-68 -399 -407 -451q66 -305 252 -612h-64q-186 305 -252 608zM854 657q414 0 469 410q51 408 -360 408h-551l-109 -818h551z" />
    <glyph glyph-name="S" unicode="S" horiz-adv-x="1181" 
d="M1221 1507l-7 -49l-428 4q-444 0 -477 -256l-22 -157q-8 -150 297 -234l198 -65q379 -98 357 -281l-17 -127q-63 -340 -510 -340l-499 4l8 55l485 -4q410 0 453 285l16 127q18 133 -319 227l-195 66q-342 94 -334 287l23 157q41 311 543 312z" />
    <glyph glyph-name="T" unicode="T" horiz-adv-x="1228" 
d="M1376 1520l-8 -56h-514l-192 -1460h-56l193 1460h-551l8 56h1120z" />
    <glyph glyph-name="U" unicode="U" horiz-adv-x="1388" 
d="M711 66q465 0 526 460l131 994h55l-131 -994q-68 -516 -587 -516h-41q-510 0 -443 516l131 994h56l-132 -994q-61 -461 394 -460h41z" />
    <glyph glyph-name="V" unicode="V" horiz-adv-x="1329" 
d="M686 4h-41q-47 0 -59 66q-227 725 -332 1448h70q98 -723 321 -1446h62q414 723 706 1446h76q-303 -723 -729 -1448q-31 -66 -74 -66z" />
    <glyph glyph-name="W" unicode="W" horiz-adv-x="1984" 
d="M592 4h-62q-47 0 -49 41q-172 737 -219 1473h70q37 -723 196 -1446h82q309 700 496 1401q18 45 59 45h90q41 0 45 -45q-2 -700 119 -1401h82q324 723 527 1446h75q-215 -735 -551 -1473q-25 -41 -67 -41h-62q-47 0 -57 41q-127 706 -131 1411h-61q-199 -707 -521 -1413
q-18 -39 -61 -39z" />
    <glyph glyph-name="X" unicode="X" horiz-adv-x="1253" 
d="M715 799h41l565 719h84l-608 -754l409 -756h-84l-374 719h-41l-574 -719h-82l606 756l-407 754h82z" />
    <glyph glyph-name="Y" unicode="Y" horiz-adv-x="1269" 
d="M332 1516l368 -955h13l639 955h78l-701 -1027l-63 -485h-68l64 485l-410 1027h80z" />
    <glyph glyph-name="Z" unicode="Z" horiz-adv-x="1167" 
d="M1346 1518q-12 -58 -27 -80l-1137 -1364l-2 -8h973l-6 -58h-1051q7 57 25 78l1139 1368l2 10h-979l8 54h1055z" />
    <glyph glyph-name="bracketleft" unicode="[" horiz-adv-x="659" 
d="M317 1602h447l-8 -56h-375l-240 -1827h375l-8 -55h-447z" />
    <glyph glyph-name="backslash" unicode="\" horiz-adv-x="800" 
d="M694 8h-65l-318 1530h70z" />
    <glyph glyph-name="bracketright" unicode="]" horiz-adv-x="659" 
d="M508 -336h-447l9 55h374l240 1827h-375l8 56h447z" />
    <glyph glyph-name="asciicircum" unicode="^" horiz-adv-x="1118" 
d="M737 1499h37q35 0 47 -33l289 -704l-59 -2l-299 684h-17l-463 -684l-63 2l479 704q18 33 49 33z" />
    <glyph glyph-name="underscore" unicode="_" horiz-adv-x="1259" 
d="M1139 -115l-9 -57h-1046l8 57h1047z" />
    <glyph glyph-name="grave" unicode="`" horiz-adv-x="581" 
d="M307 1481h125l199 -256h-88z" />
    <glyph glyph-name="a" unicode="a" horiz-adv-x="1048" 
d="M1087 1090l-143 -1086h-49l16 168q-340 -166 -551 -168q-307 0 -235 545q80 553 483 565l404 -20zM1026 1038l-424 21q-346 -18 -422 -510q-63 -483 189 -483q205 4 553 176z" />
    <glyph glyph-name="b" unicode="b" horiz-adv-x="1171" 
d="M788 1094q410 0 347 -482l-17 -123q-63 -485 -473 -485l-489 21l198 1511h56l-64 -481q246 31 361 39h81zM782 1042h-82q-115 0 -362 -41l-121 -921l436 -21q356 0 412 430l16 123q57 430 -299 430z" />
    <glyph glyph-name="c" unicode="c" horiz-adv-x="958" 
d="M883 0l-394 -6q-418 0 -345 554t491 554l391 -6l-6 -47l-385 6q-369 0 -437 -509t302 -509l389 6z" />
    <glyph glyph-name="d" unicode="d" horiz-adv-x="1120" 
d="M1059 1055l63 481h56l-199 -1511l-498 -21q-410 0 -346 485l17 123q63 481 473 482h82q114 -8 352 -39zM700 1042h-82q-356 0 -413 -430l-17 -123q-55 -430 301 -430l441 21l121 921q-236 41 -351 41z" />
    <glyph glyph-name="e" unicode="e" horiz-adv-x="1054" 
d="M997 694q41 352 -252 355h-180q-293 -2 -370 -547h667q110 8 135 192zM549 -2q-473 0 -402 549q94 551 431 551h178q338 0 295 -404q-43 -240 -195 -239h-663q-25 -401 368 -402q109 0 344 21l15 -43q-152 -33 -371 -33z" />
    <glyph glyph-name="f" unicode="f" horiz-adv-x="761" 
d="M799 1561q86 0 170 -23l-6 -49q-84 25 -170 27q-326 0 -363 -285l-16 -127h426l-6 -47h-426l-144 -1090q-51 -279 -301 -278l6 53q207 0 242 258l139 1057h-147l6 47h147l19 133q41 324 424 324z" />
    <glyph glyph-name="g" unicode="g" horiz-adv-x="1193" 
d="M662 1063q-340 0 -386 -344l-49 -375q-37 -279 303 -278h41l426 47l119 903q-250 39 -399 47h-55zM670 1118h53q180 -2 457 -49l-154 -1159q-27 -199 -182 -272q-127 -59 -357 -60q-117 0 -317 21l20 55q318 -40 568 2q188 59 215 268l18 135l-426 -49h-41
q-395 0 -352 334l49 371q54 403 449 403z" />
    <glyph glyph-name="h" unicode="h" horiz-adv-x="1193" 
d="M412 1561l-72 -555q236 94 496 98q354 -4 315 -322l-100 -774h-56l101 772q37 274 -252 275q-264 0 -512 -107l-123 -940h-55l202 1553h56z" />
    <glyph glyph-name="i" unicode="i" horiz-adv-x="352" 
d="M412 1561l-23 -179h-55l22 179h56zM352 1104l-143 -1096h-55l143 1096h55z" />
    <glyph glyph-name="j" unicode="j" horiz-adv-x="595" 
d="M627 1583l-25 -178h-55l24 178h56zM565 1124l-155 -1183q-47 -360 -414 -375l6 49q307 0 352 326l156 1183h55z" />
    <glyph glyph-name="k" unicode="k" horiz-adv-x="1034" 
d="M414 1561l-133 -1020l735 563h90l-516 -393q119 -346 434 -703h-78q-289 338 -403 666l-273 -201l-59 -465h-55l202 1553h56z" />
    <glyph glyph-name="l" unicode="l" horiz-adv-x="602" 
d="M438 8q-291 0 -248 336l160 1217h56l-160 -1221q-35 -256 194 -274q84 0 170 24l-8 -59q-82 -23 -164 -23z" />
    <glyph glyph-name="m" unicode="m" horiz-adv-x="1738" 
d="M668 1104h123q115 0 182 -172q205 152 338 172h102q328 0 264 -486l-82 -614h-53l82 614q55 430 -219 431h-102q-90 -4 -314 -154q18 -170 4 -277l-82 -614h-53l82 614q41 371 -158 431h-123q-90 -4 -350 -121l-123 -924h-55l145 1100h46l-5 -123q262 123 351 123z" />
    <glyph glyph-name="n" unicode="n" horiz-adv-x="1130" 
d="M668 1104h143q348 0 285 -486l-82 -614h-53l81 614q55 430 -239 431h-144q-90 -4 -356 -162l-117 -883h-55l145 1100h46l-11 -162q268 162 357 162z" />
    <glyph glyph-name="o" unicode="o" horiz-adv-x="1124" 
d="M612 1042q-340 0 -397 -430l-16 -123q-55 -430 284 -430h123q356 0 412 430l16 123q57 430 -299 430h-123zM600 8h-123q-403 0 -342 481l17 123q66 485 469 486h122q410 -1 344 -486l-16 -123q-61 -481 -471 -481z" />
    <glyph glyph-name="p" unicode="p" horiz-adv-x="1150" 
d="M688 1104h82q410 0 346 -486l-16 -122q-63 -481 -473 -482h-82q-114 8 -352 39l-64 -481h-55l202 1532h50l-9 -121q283 121 371 121zM633 66q356 0 414 430l16 122q55 430 -301 431h-82q-90 -4 -371 -121l-108 -822q236 -41 350 -40h82z" />
    <glyph glyph-name="q" unicode="q" horiz-adv-x="1126" 
d="M483 14q-410 0 -346 482l17 122q63 485 473 486l491 -21l-200 -1511h-56l64 481q-246 -31 -361 -39h-82zM489 66h82q115 0 363 40l121 922l-437 21q-356 0 -411 -431l-17 -122q-57 -430 299 -430z" />
    <glyph glyph-name="r" unicode="r" horiz-adv-x="794" 
d="M668 1104q111 0 219 -8l-6 -54q-111 6 -222 7q-152 -4 -356 -162l-117 -883h-55l145 1100h48l-11 -162q205 162 355 162z" />
    <glyph glyph-name="s" unicode="s" horiz-adv-x="1017" 
d="M1010 1090l-4 -39l-437 2q-309 0 -333 -183l-17 -120q-6 -129 182 -146l306 -31q264 -37 243 -215l-14 -106q-33 -246 -371 -246l-481 14l6 41l475 -4q291 8 316 195l14 106q14 121 -207 162l-305 31q-231 14 -219 199l16 120q33 233 395 234z" />
    <glyph glyph-name="t" unicode="t" horiz-adv-x="768" 
d="M436 1366l-35 -262h430l-6 -47h-430l-100 -762q-25 -227 151 -232l254 7l-4 -39l-247 -23q-246 0 -207 307l98 742h-164l6 47h164l35 262h55z" />
    <glyph glyph-name="u" unicode="u" horiz-adv-x="1136" 
d="M1081 1104h56l-140 -1059q-289 -37 -458 -41q-430 0 -367 485l82 615h55l-82 -615q-57 -430 318 -430q166 2 403 39z" />
    <glyph glyph-name="v" unicode="v" horiz-adv-x="1030" 
d="M520 8h-33q-61 0 -77 84q-184 506 -244 1012h59q72 -516 267 -1032h45q328 516 534 1032h66q-197 -506 -516 -1014q-39 -82 -101 -82z" />
    <glyph glyph-name="w" unicode="w" horiz-adv-x="1486" 
d="M1157 4h-74q-35 0 -43 41q-137 504 -151 1006h-43q-133 -502 -387 -1006q-16 -41 -51 -41h-82q-35 0 -37 41q-106 530 -90 1059h59q-14 -522 94 -1047h51q256 506 392 1012q12 35 53 35h53q35 0 41 -35q16 -506 158 -1012h49q223 524 326 1047h65q-106 -528 -334 -1059
q-14 -41 -49 -41z" />
    <glyph glyph-name="x" unicode="x" horiz-adv-x="935" 
d="M590 580q266 262 409 524h64q-156 -272 -432 -547q205 -274 289 -549h-64q-76 262 -272 522h-39q-281 -260 -436 -522h-64q166 274 457 549q-219 274 -314 547h64q88 -262 299 -524h39z" />
    <glyph glyph-name="y" unicode="y" horiz-adv-x="1083" 
d="M559 0q-20 0 -35 51q-217 526 -313 1053h72q86 -514 295 -1028q2 -23 12 -23h33l501 1051h66l-522 -1104q-182 -391 -537 -395l6 49q324 20 463 346h-41z" />
    <glyph glyph-name="z" unicode="z" horiz-adv-x="960" 
d="M1030 1104v-6q-8 -49 -49 -103l-840 -932h752l-6 -55h-813l2 27q4 27 41 74l841 938h-747l8 57h811z" />
    <glyph glyph-name="braceleft" unicode="{" horiz-adv-x="860" 
d="M948 1653h23l-6 -49q-97 0 -157 -18t-114 -60q-54 -41 -90 -106q-37 -65 -61 -257q-31 -187 -43 -240t-41 -106t-67 -88t-105 -67q57 -35 87 -69t49 -107t-9 -297q-29 -223 -10 -288q20 -65 62 -104t98 -58t153 -20l-6 -51q-238 0 -320 99t-53 333q16 125 24 212
q25 274 -172 319l7 57q99 14 182 123q59 78 81 230q21 153 45 267t74 192q99 154 369 153z" />
    <glyph glyph-name="bar" unicode="|" horiz-adv-x="282" 
d="M328 1679h69l-266 -2017h-70z" />
    <glyph glyph-name="braceright" unicode="}" horiz-adv-x="860" 
d="M346 1653q143 0 221 -38q145 -70 132 -307q-5 -114 -20 -228t-10 -170q10 -110 85 -178q39 -36 90 -44l-6 -57q-207 -40 -258 -319q-16 -88 -32 -206t-47 -201q-62 -160 -231 -211q-86 -26 -207 -26l7 51q253 0 359 182q40 68 60 229q21 161 39 241t47 134t67 88t108 69
q-59 33 -90 67q-60 70 -57 196q3 127 22 238q25 193 5 257t-62 106q-42 41 -98 59t-153 19l7 49h22z" />
    <glyph glyph-name="asciitilde" unicode="~" horiz-adv-x="1259" 
d="M457 813q-190 0 -230 -305h-53q47 360 291 360q193 0 254 -155q78 -180 239 -181q217 0 259 314h47q-47 -369 -312 -369q-174 2 -256 154q-80 182 -239 182z" />
    <glyph glyph-name="exclamdown" unicode="&#xa1;" horiz-adv-x="288" 
d="M47 -453l156 1084h51l-131 -1084h-76zM227 913l25 191h76l-25 -191h-76z" />
    <glyph glyph-name="cent" unicode="&#xa2;" horiz-adv-x="1099" 
d="M594 1053q-332 -27 -395 -507t262 -507zM510 37l379 6l-6 -43l-377 -6l-33 -244h-51l33 244q-381 23 -312 553q70 530 457 555l27 209h51l-27 -209l375 -6l-6 -47l-375 6z" />
    <glyph glyph-name="sterling" unicode="&#xa3;" horiz-adv-x="1118" 
d="M909 1462q-344 0 -397 -403l-27 -211h496l-8 -53h-496l-43 -332q-29 -170 -239 -389h819l-8 -58h-889l10 70q203 223 242 381l43 328h-187l8 53h187l26 211q59 453 457 452h279l-6 -49h-267z" />
    <glyph glyph-name="currency" unicode="&#xa4;" horiz-adv-x="765" 
d="M495 827q78 0 134 -53l104 92l33 -39l-96 -88q75 -146 -37 -290l72 -93l-46 -39l-79 93q-69 -54 -147 -55t-138 55l-109 -93l-30 37l102 92q-67 107 -14 207q14 43 53 82l-80 92l45 39l82 -88q73 49 151 49zM484 780q-84 0 -138 -57q-63 -47 -74 -131q-4 -25 2 -49
q6 -51 39 -82q35 -54 123 -58q85 0 144 58q80 67 71 180q-10 51 -39 82q-29 39 -77 53q-27 4 -51 4z" />
    <glyph glyph-name="yen" unicode="&#xa5;" horiz-adv-x="1329" 
d="M655 510l-403 1006h80l368 -955h13l639 955h78l-685 -1006h406l-8 -51h-418l-16 -133h417l-6 -52h-418l-36 -270h-68l37 270h-397l6 52h397l16 133h-397l8 51h387z" />
    <glyph glyph-name="brokenbar" unicode="&#xa6;" horiz-adv-x="282" 
d="M154 362h69l-92 -698h-70zM328 1677h69l-92 -698h-69z" />
    <glyph glyph-name="section" unicode="&#xa7;" horiz-adv-x="1050" 
d="M1110 1534l-8 -51l-434 2q-299 0 -320 -170l-16 -117q-4 -113 172 -141l284 -53q279 -72 263 -201l-29 -209l-66 18l27 191q8 74 -225 137l-277 51q-227 39 -215 203l17 121q31 233 393 233zM150 27l6 51l434 -2q299 0 321 170l15 116q6 113 -172 142l-283 53
q-281 72 -262 201l27 209l65 -19l-25 -190q-10 -74 224 -137l278 -52q225 -39 215 -202l-16 -121q-31 -233 -393 -234z" />
    <glyph glyph-name="dieresis" unicode="&#xa8;" horiz-adv-x="854" 
d="M756 1286l14 117h121l-14 -117h-121zM317 1286l15 117h121l-15 -117h-121z" />
    <glyph glyph-name="copyright" unicode="&#xa9;" horiz-adv-x="1806" 
d="M1075 1190q174 0 242 -109l-62 -61q-78 86 -184 86q-250 0 -294 -337t206 -337q106 0 199 80l49 -61q-96 -98 -264 -99q-326 0 -272 419t380 419zM904 8q-171 0 -304 60q-263 118 -342 402q-40 140 -18 302t98 303q154 285 447 404q147 59 319 59q340 0 521 -219
q85 -101 124 -241t17 -304t-97 -304q-155 -284 -447 -402q-148 -60 -318 -60zM1679 774q37 296 -117 495t-465 199t-520 -198q-210 -198 -250 -495q-40 -296 118 -497q157 -200 469 -200q311 0 516 198q206 198 249 498z" />
    <glyph glyph-name="ordfeminine" unicode="&#xaa;" horiz-adv-x="831" 
d="M592 1360q299 -14 266 -270l-65 -498h-50l7 121q-231 -119 -336 -121q-219 0 -187 244q31 205 232 213h332l10 75q10 166 -215 176q-117 0 -226 -12v55q117 17 232 17zM784 991h-333q-141 -12 -162 -157q-31 -188 133 -185q94 4 334 127z" />
    <glyph glyph-name="guillemotleft" unicode="&#xab;" horiz-adv-x="1134" 
d="M184 569l410 467h86l-408 -465l283 -471h-84zM666 569l409 467h86l-407 -465l282 -471h-84z" />
    <glyph glyph-name="logicalnot" unicode="&#xac;" horiz-adv-x="1093" 
d="M1094 811l-76 -584h-60l68 525h-821l8 59h881z" />
    <glyph glyph-name="registered" unicode="&#xae;" horiz-adv-x="1792" 
d="M1026 709h-209l-45 -342h-78l105 807h262q291 -2 262 -232q-27 -190 -223 -229l135 -346h-98zM1008 788q211 0 231 154q18 154 -201 154h-172l-39 -308h181zM898 8q-171 0 -304 60q-263 118 -342 402q-40 140 -18 302t98 303q154 285 447 404q147 59 319 59
q340 0 521 -219q85 -101 124 -241t17 -304t-97 -304q-155 -284 -447 -402q-148 -60 -318 -60zM1673 774q37 296 -117 495t-465 199t-521 -200q-211 -200 -250 -494q-38 -295 119 -496q157 -200 469 -200q311 0 516 198q206 198 249 498z" />
    <glyph glyph-name="macron" unicode="&#xaf;" horiz-adv-x="776" 
d="M846 1339l-6 -41h-564l7 41h563z" />
    <glyph glyph-name="degree" unicode="&#xb0;" horiz-adv-x="825" 
d="M605 1456q-114 0 -193 -78t-92 -176q-12 -98 46 -175t172 -77t194 77t91 175q14 98 -45 176t-173 78zM532 899q-122 0 -204 89q-81 89 -65 214t121 216t228 90q124 -1 201 -87q78 -86 64 -219q-8 -61 -40 -118q-63 -110 -183 -160q-60 -24 -122 -25z" />
    <glyph glyph-name="plusminus" unicode="&#xb1;" horiz-adv-x="1107" 
d="M1010 66l-6 -56h-895l6 56h895zM625 729h-418l6 53h418l59 453h53l-59 -453h416l-6 -53h-416l-60 -450h-53z" />
    <glyph glyph-name="uni00B2" unicode="&#xb2;" horiz-adv-x="823" 
d="M799 623h-611l5 32q37 195 165 289l318 205q104 66 123 135l2 29q4 139 -94 172q-61 23 -107 22q-127 -6 -272 -10l8 59q143 14 268 17q70 0 137 -29q133 -51 129 -229l-4 -31q-18 -96 -155 -184l-320 -209q-106 -82 -123 -203h539z" />
    <glyph glyph-name="uni00B3" unicode="&#xb3;" horiz-adv-x="815" 
d="M662 1067h-300l7 59h299q96 12 120 86q57 201 -2 258q-49 43 -219 43l-237 -10l6 56l239 14q197 -2 256 -60q49 -43 41 -165q-18 -236 -106 -250q86 -12 41 -248q-25 -125 -93 -175t-263 -52l-261 14l7 55l262 -10q170 0 229 43q74 59 70 260q-4 72 -96 82z" />
    <glyph glyph-name="acute" unicode="&#xb4;" horiz-adv-x="579" 
d="M362 1225h-88l265 256h123z" />
    <glyph glyph-name="mu" unicode="&#xb5;" horiz-adv-x="1157" 
d="M584 88q140 0 290 127t168 270l84 633h72l-143 -1085h-56l37 276q-217 -270 -458 -282q-227 6 -361 282l-104 -784h-70l211 1593h72l-76 -567q-25 -193 85 -328t249 -135z" />
    <glyph glyph-name="paragraph" unicode="&#xb6;" horiz-adv-x="1183" 
d="M668 682q-329 0 -406 224q-28 79 -12 195q32 242 205 346q88 54 213 81q115 20 268 22h346l-203 -1542h-61l196 1493h-344l-196 -1493h-60l88 674h-34z" />
    <glyph glyph-name="periodcentered" unicode="&#xb7;" horiz-adv-x="348" 
d="M172 502l18 135h136l-19 -135h-135z" />
    <glyph glyph-name="periodcentered" unicode="&#x2219;" horiz-adv-x="348" 
d="M172 502l18 135h136l-19 -135h-135z" />
    <glyph glyph-name="cedilla" unicode="&#xb8;" horiz-adv-x="671" 
d="M425 -434q-89 -51 -209 -51t-171 20l12 47q57 -18 127 -18q92 -6 182 20q89 27 117 135q8 78 -43 107t-129 30t-151 -28l-6 8l100 232h57l-92 -181q33 8 94 11q123 -2 174 -52t39 -139q-12 -90 -101 -141z" />
    <glyph glyph-name="uni00B9" unicode="&#xb9;" horiz-adv-x="495" 
d="M471 623h-59l116 888l-227 -36l6 55l242 41h47z" />
    <glyph glyph-name="ordmasculine" unicode="&#xba;" horiz-adv-x="819" 
d="M596 1520q-225 0 -283 -334l-22 -168q-31 -334 194 -334h41q211 0 267 334l22 168q33 334 -178 334h-41zM520 635h-41q-276 0 -239 381l22 174q63 383 340 383h41q264 0 225 -383l-22 -174q-61 -381 -326 -381z" />
    <glyph glyph-name="guillemotright" unicode="&#xbb;" horiz-adv-x="1134" 
d="M688 100h-84l410 471l-285 465h86l287 -467zM207 100h-84l409 471l-284 465h86l287 -467z" />
    <glyph glyph-name="onequarter" unicode="&#xbc;" horiz-adv-x="1624" 
d="M266 2l1225 1516h70l-1225 -1516h-70zM449 602h-60l117 889l-230 -37l9 55l241 41h47zM1493 850l-504 -594h424zM1528 930h35l-90 -674h98l-6 -53h-99l-26 -209h-60l27 209h-489l2 22q6 37 26 64l531 606q31 35 51 35z" />
    <glyph glyph-name="onehalf" unicode="&#xbd;" horiz-adv-x="1808" 
d="M1722 6h-589l4 31q35 188 159 278l308 199q102 63 120 133l2 27q4 133 -92 166q-61 20 -104 22q-123 -6 -260 -12l6 59q138 15 232 15t161 -27q125 -51 121 -221l-4 -31q-14 -92 -148 -178l-307 -201q-106 -80 -123 -196h523zM266 2l1225 1516h70l-1225 -1516h-70z
M449 602h-60l117 889l-230 -37l9 55l241 41h47z" />
    <glyph glyph-name="threequarters" unicode="&#xbe;" horiz-adv-x="1767" 
d="M430 2l1225 1516h69l-1224 -1516h-70zM1636 850l-503 -594h423zM1671 930h35l-90 -674h98l-6 -53h-98l-27 -209h-59l26 209h-489l2 22q6 37 27 64l530 606q31 35 51 35zM635 1026h-299l8 59h299q96 12 119 86q57 201 -2 259q-47 43 -217 43l-240 -11l8 56l238 14
q197 -2 258 -59q47 -43 39 -166q-16 -236 -107 -250q86 -12 41 -248q-25 -125 -84 -168q-74 -57 -272 -59l-260 14l8 55l260 -10q170 0 230 43q76 59 71 260q-6 72 -98 82z" />
    <glyph glyph-name="questiondown" unicode="&#xbf;" horiz-adv-x="1083" 
d="M690 930l23 178h55l-23 -178h-55zM928 -367q-229 -39 -455 -39q-420 4 -375 345l11 69q25 193 305 285q205 106 227 282l16 127h62l-17 -133q-31 -229 -270 -331q-248 -123 -260 -230l-10 -69q-37 -274 330 -275q219 0 444 21z" />
    <glyph glyph-name="Agrave" unicode="&#xc0;" horiz-adv-x="1234" 
d="M1034 545l-207 905h-57l-428 -905h692zM825 1518q68 0 80 -60l301 -1454h-55l-115 483h-714l-244 -483h-55l686 1454q29 59 96 60h20zM459 1870h125l198 -256h-88z" />
    <glyph glyph-name="Aacute" unicode="&#xc1;" horiz-adv-x="1234" 
d="M1034 545l-207 905h-57l-428 -905h692zM825 1518q68 0 80 -60l301 -1454h-55l-115 483h-714l-244 -483h-55l686 1454q29 59 96 60h20zM803 1614h-88l264 256h123z" />
    <glyph glyph-name="Acircumflex" unicode="&#xc2;" horiz-adv-x="1234" 
d="M1034 545l-207 905h-57l-428 -905h692zM825 1518q68 0 80 -60l301 -1454h-55l-115 483h-714l-244 -483h-55l686 1454q29 59 96 60h20zM1133 1614h-74l-242 196l-291 -196h-73l331 254h82z" />
    <glyph glyph-name="Atilde" unicode="&#xc3;" horiz-adv-x="1316" 
d="M1034 545l-207 905h-57l-428 -905h692zM825 1518q68 0 80 -60l301 -1454h-55l-115 483h-714l-244 -483h-55l686 1454q29 59 96 60h20zM696 1827q53 -1 130 -37t117 -54t100 -18t139 70l35 -51q-110 -97 -216 -97q-68 0 -171 52q-102 52 -172 53q-70 0 -146 -68l-35 49
q108 101 219 101z" />
    <glyph glyph-name="Adieresis" unicode="&#xc4;" horiz-adv-x="1234" 
d="M1034 545l-207 905h-57l-428 -905h692zM825 1518q68 0 80 -60l301 -1454h-55l-115 483h-714l-244 -483h-55l686 1454q29 59 96 60h20zM975 1675l14 117h121l-14 -117h-121zM537 1675l14 117h121l-15 -117h-120z" />
    <glyph glyph-name="Aring" unicode="&#xc5;" horiz-adv-x="1234" 
d="M897 1479q6 -8 8 -21l301 -1454h-55l-115 483h-714l-244 -483h-55l686 1454q6 12 12 21q-41 16 -68 47q-55 60 -42 160t84 161t170 61t153 -60q54 -62 42 -161q-13 -99 -83 -161q-37 -31 -80 -47zM857 1855q-77 0 -124 -44q-47 -45 -58 -125t23 -121t90 -47h52
q59 6 103 47t55 122q12 81 -26 125t-115 43zM1034 545l-207 905h-57l-428 -905h692z" />
    <glyph glyph-name="AE" unicode="&#xc6;" horiz-adv-x="2236" 
d="M1296 1518q68 0 80 -60l-8 -53q80 113 254 113l735 -17l-6 -39h-737q-215 0 -244 -215l-59 -461h764l-9 -53h-763l-60 -461q-29 -213 187 -213h733l-6 -39l-736 -16q-150 0 -207 80l-8 -80h-55l31 223q0 23 4 45l26 215h-727l-387 -483h-75l1157 1454q29 59 96 60h20z
M1212 545l119 905h-90l-715 -905h686z" />
    <glyph glyph-name="Ccedilla" unicode="&#xc7;" horiz-adv-x="1191" 
d="M698 -137q-51 29 -128 30t-152 -28l-4 8l63 147q-391 82 -305 742q100 758 627 758q283 -8 501 -39l-4 -41q-217 25 -497 26q-479 0 -572 -704q-80 -610 273 -690q44 -13 114 -13q281 4 502 27l-6 -37q-225 -31 -510 -41q-39 0 -76 4l-47 -88q35 8 96 10q235 -4 212 -190
q-11 -90 -101 -141t-208 -51t-173 20l14 47q55 -18 125 -18q92 -6 182 20q89 27 117 135q8 78 -43 107z" />
    <glyph glyph-name="Egrave" unicode="&#xc8;" horiz-adv-x="1212" 
d="M590 1462q-215 0 -244 -215l-59 -461h764l-9 -53h-763l-60 -461q-29 -213 187 -213h733l-6 -39l-736 -16q-272 0 -235 268l127 975q39 270 309 271l735 -17l-6 -39h-737zM604 1829h125l199 -256h-88z" />
    <glyph glyph-name="Eacute" unicode="&#xc9;" horiz-adv-x="1212" 
d="M590 1462q-215 0 -244 -215l-59 -461h764l-9 -53h-763l-60 -461q-29 -213 187 -213h733l-6 -39l-736 -16q-272 0 -235 268l127 975q39 270 309 271l735 -17l-6 -39h-737zM662 1573h-89l265 256h123z" />
    <glyph glyph-name="Ecircumflex" unicode="&#xca;" horiz-adv-x="1212" 
d="M590 1462q-215 0 -244 -215l-59 -461h764l-9 -53h-763l-60 -461q-29 -213 187 -213h733l-6 -39l-736 -16q-272 0 -235 268l127 975q39 270 309 271l735 -17l-6 -39h-737zM1153 1593h-74l-241 197l-291 -197h-74l332 254h82z" />
    <glyph glyph-name="Edieresis" unicode="&#xcb;" horiz-adv-x="1212" 
d="M590 1462q-215 0 -244 -215l-59 -461h764l-9 -53h-763l-60 -461q-29 -213 187 -213h733l-6 -39l-736 -16q-272 0 -235 268l127 975q39 270 309 271l735 -17l-6 -39h-737zM961 1675l14 117h121l-15 -117h-120zM522 1675l15 117h120l-14 -117h-121z" />
    <glyph glyph-name="Igrave" unicode="&#xcc;" horiz-adv-x="233" 
d="M422 1518l-201 -1514h-55l201 1514h55zM133 1890h125l199 -256h-88z" />
    <glyph glyph-name="Iacute" unicode="&#xcd;" horiz-adv-x="231" 
d="M281 1518l-201 -1514h-55l200 1514h56zM188 1634h-88l265 256h122z" />
    <glyph glyph-name="Icircumflex" unicode="&#xce;" horiz-adv-x="557" 
d="M518 1518l-201 -1514h-55l201 1514h55zM780 1620h-73l-242 197l-291 -197h-74l332 254h82z" />
    <glyph glyph-name="Idieresis" unicode="&#xcf;" horiz-adv-x="436" 
d="M451 1518l-201 -1514h-55l200 1514h56zM547 1696l14 116h121l-14 -116h-121zM109 1696l14 116h121l-15 -116h-120z" />
    <glyph glyph-name="Eth" unicode="&#xd0;" horiz-adv-x="1427" 
d="M948 1526q530 0 430 -763t-630 -763h-586l98 750h-125l6 38h125l96 738h586zM754 45q473 0 567 716t-379 716h-532l-91 -689h453l-6 -38h-453l-92 -705h533z" />
    <glyph glyph-name="Ntilde" unicode="&#xd1;" horiz-adv-x="1495" 
d="M455 1522h41q45 0 61 -52l522 -1404h62l192 1452h56l-195 -1465q-4 -45 -76 -45h-37q-37 0 -59 66l-522 1396h-68l-192 -1462h-56l193 1465q6 49 78 49zM803 1868q53 0 130 -36t117 -54t100 -18t138 69l35 -51q-110 -97 -215 -97q-68 0 -169 52t-173 52q-72 1 -148 -67
l-34 49q108 101 219 101z" />
    <glyph glyph-name="Ograve" unicode="&#xd2;" 
d="M760 1462q-442 0 -522 -602l-25 -196q-80 -604 362 -605h152q432 0 512 605l25 196q80 602 -353 602h-151zM713 8h-142q-498 0 -413 651l28 207q86 653 584 654h141q498 -1 412 -654l-29 -207q-84 -651 -581 -651zM494 1890h124l199 -256h-88z" />
    <glyph glyph-name="Oacute" unicode="&#xd3;" 
d="M760 1462q-442 0 -522 -602l-25 -196q-80 -604 362 -605h152q432 0 512 605l25 196q80 602 -353 602h-151zM713 8h-142q-498 0 -413 651l28 207q86 653 584 654h141q498 -1 412 -654l-29 -207q-84 -651 -581 -651zM715 1634h-88l264 256h123z" />
    <glyph glyph-name="Ocircumflex" unicode="&#xd4;" 
d="M760 1462q-442 0 -522 -602l-25 -196q-80 -604 362 -605h152q432 0 512 605l25 196q80 602 -353 602h-151zM713 8h-142q-498 0 -413 651l28 207q86 653 584 654h141q498 -1 412 -654l-29 -207q-84 -651 -581 -651zM1145 1634h-74l-242 197l-290 -197h-74l332 254h82z" />
    <glyph glyph-name="Otilde" unicode="&#xd5;" 
d="M760 1462q-442 0 -522 -602l-25 -196q-80 -604 362 -605h152q432 0 512 605l25 196q80 602 -353 602h-151zM713 8h-142q-498 0 -413 651l28 207q86 653 584 654h141q498 -1 412 -654l-29 -207q-84 -651 -581 -651zM719 1888q59 0 167 -54l80 -36t101 -18t137 69l35 -51
q-108 -96 -215 -96q-70 0 -172 52q-101 52 -172 52t-145 -67l-35 49q106 100 219 100z" />
    <glyph glyph-name="Odieresis" unicode="&#xd6;" 
d="M760 1462q-442 0 -522 -602l-25 -196q-80 -604 362 -605h152q432 0 512 605l25 196q80 602 -353 602h-151zM713 8h-142q-498 0 -413 651l28 207q86 653 584 654h141q498 -1 412 -654l-29 -207q-84 -651 -581 -651zM973 1696l14 116h121l-14 -116h-121zM535 1696l14 116
h121l-15 -116h-120z" />
    <glyph glyph-name="multiply" unicode="&#xd7;" horiz-adv-x="929" 
d="M551 653l-342 -303l-47 53l342 304l-262 305l59 51l264 -305l344 305l45 -53l-346 -303l266 -304l-59 -53z" />
    <glyph glyph-name="Oslash" unicode="&#xd8;" 
d="M713 8h-142q-131 0 -225 45l-106 -178l-47 25l108 182q-199 145 -143 577l28 207q86 653 584 654h141q135 0 228 -50l100 168l49 -22l-104 -174q195 -147 139 -576l-29 -207q-84 -651 -581 -651zM575 59h152q432 0 512 605l25 196q51 391 -113 529l-774 -1287
q80 -43 198 -43zM911 1462h-151q-442 0 -522 -602l-25 -196q-53 -395 117 -533l776 1288q-78 43 -195 43z" />
    <glyph glyph-name="Ugrave" unicode="&#xd9;" horiz-adv-x="1388" 
d="M711 66q465 0 526 460l131 994h55l-131 -994q-68 -516 -587 -516h-41q-510 0 -443 516l131 994h56l-132 -994q-61 -461 394 -460h41zM571 1890h125l199 -256h-88z" />
    <glyph glyph-name="Uacute" unicode="&#xda;" horiz-adv-x="1388" 
d="M711 66q465 0 526 460l131 994h55l-131 -994q-68 -516 -587 -516h-41q-510 0 -443 516l131 994h56l-132 -994q-61 -461 394 -460h41zM772 1634h-88l264 256h123z" />
    <glyph glyph-name="Ucircumflex" unicode="&#xdb;" horiz-adv-x="1388" 
d="M711 66q465 0 526 460l131 994h55l-131 -994q-68 -516 -587 -516h-41q-510 0 -443 516l131 994h56l-132 -994q-61 -461 394 -460h41zM1182 1634h-74l-242 197l-291 -197h-73l332 254h81z" />
    <glyph glyph-name="Udieresis" unicode="&#xdc;" horiz-adv-x="1388" 
d="M711 66q465 0 526 460l131 994h55l-131 -994q-68 -516 -587 -516h-41q-510 0 -443 516l131 994h56l-132 -994q-61 -461 394 -460h41zM1030 1716l14 117h121l-14 -117h-121zM592 1716l14 117h121l-14 -117h-121z" />
    <glyph glyph-name="Yacute" unicode="&#xdd;" horiz-adv-x="1146" 
d="M332 1516l368 -955h13l639 955h78l-701 -1027l-63 -485h-68l64 485l-410 1027h80zM688 1634h-88l264 256h123z" />
    <glyph glyph-name="Thorn" unicode="&#xde;" horiz-adv-x="1202" 
d="M555 350q510 0 565 422t-454 422h-258l-111 -844h258zM674 1264q573 0 510 -494q-66 -489 -639 -489h-258l-37 -281h-76l199 1505h76l-33 -241h258z" />
    <glyph glyph-name="germandbls" unicode="&#xdf;" horiz-adv-x="1193" 
d="M754 1528h41q369 0 323 -340q-14 -117 -178 -237t-172 -183q-10 -80 196 -209t187 -268q-41 -313 -428 -314h-125l8 62h125q311 0 344 258q12 98 -188 225q-201 127 -187 244q12 92 174 220t173 212q37 274 -259 275h-40q-332 0 -379 -355l-146 -1108h-69l145 1112
q53 406 455 406z" />
    <glyph glyph-name="agrave" unicode="&#xe0;" horiz-adv-x="1060" 
d="M1122 1090l-143 -1086h-49l16 168q-340 -166 -551 -168q-307 0 -235 545q80 553 483 565l404 -20zM1061 1038l-424 21q-346 -18 -422 -510q-63 -483 188 -483q205 4 553 176zM453 1481h125l198 -256h-88z" />
    <glyph glyph-name="aacute" unicode="&#xe1;" horiz-adv-x="1030" 
d="M1090 1090l-144 -1086h-49l16 168q-340 -166 -551 -168q-307 0 -235 545q80 553 483 565zM1028 1038l-424 21q-346 -18 -422 -510q-63 -483 189 -483q205 4 553 176zM682 1225h-88l264 256h123z" />
    <glyph glyph-name="acircumflex" unicode="&#xe2;" horiz-adv-x="1028" 
d="M1087 1090l-143 -1086h-49l16 168q-340 -166 -551 -168q-307 0 -235 545q80 553 483 565l404 -20zM1026 1038l-424 21q-346 -18 -422 -510q-63 -483 189 -483q205 4 553 176zM1069 1225h-74l-241 196l-291 -196h-74l332 254h82z" />
    <glyph glyph-name="atilde" unicode="&#xe3;" horiz-adv-x="1060" 
d="M1122 1090l-143 -1086h-49l16 168q-340 -166 -551 -168q-307 0 -235 545q80 553 483 565l404 -20zM1061 1038l-424 21q-346 -18 -422 -510q-63 -483 188 -483q205 4 553 176zM657 1438q57 0 167 -55q40 -19 80 -36t101 -17t138 69l35 -51q-110 -97 -215 -97
q-71 0 -170 52q-100 52 -172 52q-72 1 -148 -67l-35 49q108 101 219 101z" />
    <glyph glyph-name="adieresis" unicode="&#xe4;" horiz-adv-x="1060" 
d="M1122 1090l-143 -1086h-49l16 168q-340 -166 -551 -168q-307 0 -235 545q80 553 483 565l404 -20zM1061 1038l-424 21q-346 -18 -422 -510q-63 -483 188 -483q205 4 553 176zM891 1286l14 117h121l-14 -117h-121zM453 1286l14 117h121l-15 -117h-120z" />
    <glyph glyph-name="aring" unicode="&#xe5;" horiz-adv-x="1028" 
d="M1087 1090l-143 -1086h-49l16 168q-340 -166 -551 -168q-307 0 -235 545q80 553 483 565l404 -20zM1026 1038l-424 21q-346 -18 -422 -510q-63 -483 189 -483q205 4 553 176zM693 1260q77 0 126 45t59 126t-26 125q-37 44 -114 43q-77 0 -125 -44q-48 -45 -58 -125
q-11 -80 25 -125t113 -45zM534 1270q-54 62 -42 161t82 160q71 61 170 61q100 0 154 -60q54 -62 42 -161t-83 -161t-170 -62t-153 62z" />
    <glyph glyph-name="ae" unicode="&#xe6;" horiz-adv-x="1693" 
d="M1530 1098q338 0 295 -404q-43 -240 -195 -239h-663q-25 -401 368 -402q109 0 344 21l15 -43q-152 -33 -371 -33q-315 0 -389 242l-31 -236h-37l8 189q-365 -186 -514 -189q-307 0 -262 340q45 287 324 299h512l18 131q12 264 -338 279q-174 0 -317 -17l2 47
q152 20 322 21q356 -16 378 -273q119 266 353 267h178zM1772 694q41 352 -252 355h-181q-293 -2 -370 -547h667q111 8 136 192zM928 594h-514q-225 -18 -260 -252q-45 -297 213 -291q147 6 516 197z" />
    <glyph glyph-name="ccedilla" unicode="&#xe7;" horiz-adv-x="960" 
d="M570 -414q-90 -52 -211 -51q-120 0 -171 21l13 47q148 -47 308 2q89 27 118 135q8 78 -43 106t-131 30q-80 1 -150 -28l-4 9l66 151q-283 76 -222 539q74 555 492 555l391 -6l-6 -47l-385 6q-369 0 -436 -508q-55 -420 184 -494q47 -12 117 -16l389 6l-6 -43l-394 -6
q-41 0 -79 6l-48 -92q35 8 97 10q235 -4 212 -190q-11 -90 -101 -142z" />
    <glyph glyph-name="egrave" unicode="&#xe8;" horiz-adv-x="1075" 
d="M1018 694q41 352 -252 355h-180q-293 -2 -371 -547h668q110 8 135 192zM569 -2q-473 0 -401 549q94 551 430 551h178q338 0 295 -404q-43 -240 -194 -239h-664q-25 -401 369 -402q109 0 344 21l14 -43q-152 -33 -371 -33zM348 1481h125l199 -256h-88z" />
    <glyph glyph-name="eacute" unicode="&#xe9;" horiz-adv-x="1054" 
d="M997 694q41 352 -252 355h-180q-293 -2 -370 -547h667q110 8 135 192zM549 -2q-473 0 -402 549q94 551 431 551h178q338 0 295 -404q-43 -240 -195 -239h-663q-25 -401 368 -402q109 0 344 21l15 -43q-152 -33 -371 -33zM569 1225h-88l264 256h123z" />
    <glyph glyph-name="ecircumflex" unicode="&#xea;" horiz-adv-x="1071" 
d="M1014 694q41 352 -252 355h-180q-293 -2 -371 -547h668q110 8 135 192zM565 -2q-473 0 -401 549q94 551 430 551h178q338 0 295 -404q-43 -240 -195 -239h-663q-25 -401 369 -402q109 0 344 21l14 -43q-152 -33 -371 -33zM1036 1225h-73l-242 196l-291 -196h-74l332 254
h82z" />
    <glyph glyph-name="edieresis" unicode="&#xeb;" horiz-adv-x="1071" 
d="M1014 694q41 352 -252 355h-180q-293 -2 -371 -547h668q110 8 135 192zM565 -2q-473 0 -401 549q94 551 430 551h178q338 0 295 -404q-43 -240 -195 -239h-663q-25 -401 369 -402q109 0 344 21l14 -43q-152 -33 -371 -33zM864 1286l15 117h120l-14 -117h-121zM426 1286
l14 117h121l-14 -117h-121z" />
    <glyph glyph-name="igrave" unicode="&#xec;" horiz-adv-x="415" 
d="M162 1542h125l198 -256h-88zM401 1106l-145 -1106h-70l146 1106h69z" />
    <glyph glyph-name="iacute" unicode="&#xed;" horiz-adv-x="387" 
d="M328 1286h-88l264 256h123zM330 1098l-144 -1090h-51l144 1090h51z" />
    <glyph glyph-name="icircumflex" unicode="&#xee;" horiz-adv-x="557" 
d="M788 1286h-73l-242 197l-291 -197h-73l313 256l121 -2zM451 1098l-144 -1090h-51l143 1090h52z" />
    <glyph glyph-name="idieresis" unicode="&#xef;" horiz-adv-x="436" 
d="M555 1348l14 116h121l-14 -116h-121zM117 1348l14 116h121l-14 -116h-121zM389 1098l-143 -1090h-53l143 1090h53z" />
    <glyph glyph-name="eth" unicode="&#xf0;" horiz-adv-x="1243" 
d="M1118 1448q154 -125 109 -475l-8 -53q-121 -915 -738 -916q-410 0 -346 485l6 41q63 481 514 482h164q115 -8 352 -39q43 330 -108 440l-268 -172l-25 39l250 160q-119 61 -322 61l7 55q240 0 372 -79l191 120l22 -38zM813 961h-164q-397 0 -454 -431l-7 -41
q-55 -430 301 -430q561 1 674 861q-236 41 -350 41z" />
    <glyph glyph-name="ntilde" unicode="&#xf1;" horiz-adv-x="1165" 
d="M676 1104h143q348 0 285 -486l-82 -614h-53l82 614q55 430 -240 431h-143q-90 -4 -357 -162l-116 -883h-56l146 1100h45l-11 -162q268 162 357 162zM635 1458q59 0 167 -54l80 -36t87 -18q76 0 151 69l35 -51q-108 -96 -215 -96q-70 0 -172 52q-101 52 -172 52t-145 -67
l-35 49q106 100 219 100z" />
    <glyph glyph-name="ograve" unicode="&#xf2;" horiz-adv-x="1144" 
d="M633 1042q-340 0 -397 -430l-17 -123q-55 -430 285 -430h123q356 0 411 430l17 123q57 430 -299 430h-123zM621 8h-123q-403 0 -342 481l16 123q66 485 469 486h123q410 -1 344 -486l-16 -123q-61 -481 -471 -481zM385 1481h125l199 -256h-88z" />
    <glyph glyph-name="oacute" unicode="&#xf3;" horiz-adv-x="1124" 
d="M612 1042q-340 0 -397 -430l-16 -123q-55 -430 284 -430h123q356 0 412 430l16 123q57 430 -299 430h-123zM600 8h-123q-403 0 -342 481l17 123q66 485 469 486h122q410 -1 344 -486l-16 -123q-61 -481 -471 -481zM586 1225h-88l264 256h123z" />
    <glyph glyph-name="ocircumflex" unicode="&#xf4;" horiz-adv-x="1140" 
d="M629 1042q-340 0 -398 -430l-16 -123q-55 -430 285 -430h123q356 0 411 430l17 123q57 430 -299 430h-123zM616 8h-122q-403 0 -342 481l16 123q66 485 469 486h123q410 -1 344 -486l-17 -123q-61 -481 -471 -481zM1053 1225h-74l-242 196l-291 -196h-73l332 254h81z" />
    <glyph glyph-name="otilde" unicode="&#xf5;" horiz-adv-x="1140" 
d="M629 1042q-340 0 -398 -430l-16 -123q-55 -430 285 -430h123q356 0 411 430l17 123q57 430 -299 430h-123zM616 8h-122q-403 0 -342 481l16 123q66 485 469 486h123q410 -1 344 -486l-17 -123q-61 -481 -471 -481zM648 1450q56 0 98 -17t82 -37t80 -36q40 -18 101 -18
t138 69l35 -51q-110 -98 -215 -96q-70 0 -172 52q-101 52 -172 52t-146 -68l-35 50q34 32 92 66t114 34z" />
    <glyph glyph-name="odieresis" unicode="&#xf6;" horiz-adv-x="1140" 
d="M629 1042q-340 0 -398 -430l-16 -123q-55 -430 285 -430h123q356 0 411 430l17 123q57 430 -299 430h-123zM616 8h-122q-403 0 -342 481l16 123q66 485 469 486h123q410 -1 344 -486l-17 -123q-61 -481 -471 -481zM881 1286l14 117h121l-15 -117h-120zM442 1286l15 117
h121l-15 -117h-121z" />
    <glyph glyph-name="divide" unicode="&#xf7;" horiz-adv-x="1107" 
d="M539 223l28 217h95l-29 -217h-94zM647 1040l29 217h94l-29 -217h-94zM1104 774l-8 -55h-895l8 55h895z" />
    <glyph glyph-name="oslash" unicode="&#xf8;" horiz-adv-x="1124" 
d="M600 8h-123q-78 0 -137 19l-102 -179l-50 23l99 174q-197 98 -152 444l17 123q66 485 469 486h122q74 -1 131 -17l117 209l51 -20l-118 -205q211 -94 163 -453l-16 -123q-61 -481 -471 -481zM606 59q356 0 412 430l16 123q43 316 -139 400l-528 -936q51 -16 116 -17h123z
M735 1042h-123q-340 0 -397 -430l-16 -123q-39 -303 116 -391l529 932q-49 12 -109 12z" />
    <glyph glyph-name="ugrave" unicode="&#xf9;" horiz-adv-x="1140" 
d="M1085 1104h56l-140 -1059q-289 -37 -458 -41q-430 0 -367 485l82 615h55l-82 -615q-57 -430 318 -430q166 2 403 39zM389 1481h125l199 -256h-88z" />
    <glyph glyph-name="uacute" unicode="&#xfa;" horiz-adv-x="1136" 
d="M1081 1104h56l-140 -1059q-289 -37 -458 -41q-430 0 -367 485l82 615h55l-82 -615q-57 -430 318 -430q166 2 403 39zM627 1225h-88l264 256h123z" />
    <glyph glyph-name="ucircumflex" unicode="&#xfb;" horiz-adv-x="1114" 
d="M1090 1104h55l-139 -1059q-289 -37 -459 -41q-430 0 -367 485l82 615h55l-81 -615q-57 -430 317 -430q166 2 403 39zM1065 1225h-74l-241 196l-291 -196h-74l332 254h82z" />
    <glyph glyph-name="udieresis" unicode="&#xfc;" horiz-adv-x="1144" 
d="M1090 1104h55l-139 -1059q-289 -37 -459 -41q-430 0 -367 485l82 615h55l-81 -615q-57 -430 317 -430q166 2 403 39zM893 1286l14 117h121l-14 -117h-121zM455 1286l14 117h121l-15 -117h-120z" />
    <glyph glyph-name="yacute" unicode="&#xfd;" horiz-adv-x="1081" 
d="M559 0q-20 0 -35 51q-217 526 -313 1053h72q86 -514 295 -1028q2 -23 12 -23h33l501 1051h66l-522 -1104q-182 -391 -537 -395l6 49q324 20 463 346h-41zM586 1225h-88l264 256h123z" />
    <glyph glyph-name="thorn" unicode="&#xfe;" horiz-adv-x="1249" 
d="M567 47q496 0 566 531q66 492 -431 491h-335l-136 -1022h336zM709 1118q561 0 489 -540q-76 -580 -637 -580h-336l-63 -483h-53l268 2046h53l-57 -443h336z" />
    <glyph glyph-name="ydieresis" unicode="&#xff;" horiz-adv-x="1087" 
d="M565 0q-20 0 -35 51q-217 526 -313 1053h72q86 -514 295 -1028q2 -23 12 -23h33l501 1051h66l-522 -1104q-182 -391 -537 -395l6 49q324 20 463 346h-41zM850 1286l14 117h121l-14 -117h-121zM412 1286l14 117h121l-15 -117h-120z" />
    <glyph glyph-name="Amacron" unicode="&#x100;" horiz-adv-x="1316" 
d="M1034 545l-207 905h-57l-428 -905h692zM825 1518q68 0 80 -60l301 -1454h-55l-115 483h-714l-244 -483h-55l686 1454q29 59 96 60h20zM1096 1749l-6 -41h-564l6 41h564z" />
    <glyph glyph-name="amacron" unicode="&#x101;" horiz-adv-x="1060" 
d="M1122 1090l-143 -1086h-49l16 168q-340 -166 -551 -168q-307 0 -235 545q80 553 483 565l404 -20zM1061 1038l-424 21q-346 -18 -422 -510q-63 -483 188 -483q205 4 553 176zM977 1339l-6 -41h-563l6 41h563z" />
    <glyph glyph-name="Emacron" unicode="&#x112;" horiz-adv-x="1212" 
d="M590 1462q-215 0 -244 -215l-59 -461h764l-9 -53h-763l-60 -461q-29 -213 187 -213h733l-6 -39l-736 -16q-272 0 -235 268l127 975q39 270 309 271l735 -17l-6 -39h-737zM1071 1749l-6 -41h-563l6 41h563z" />
    <glyph glyph-name="emacron" unicode="&#x113;" horiz-adv-x="1071" 
d="M1014 694q41 352 -252 355h-180q-293 -2 -371 -547h668q110 8 135 192zM565 -2q-473 0 -401 549q94 551 430 551h178q338 0 295 -404q-43 -240 -195 -239h-663q-25 -401 369 -402q109 0 344 21l14 -43q-152 -33 -371 -33zM991 1339l-6 -41h-563l6 41h563z" />
    <glyph glyph-name="Imacron" unicode="&#x12a;" horiz-adv-x="526" 
d="M440 1518l-200 -1514h-56l201 1514h55zM657 1749l-6 -41h-563l6 41h563z" />
    <glyph glyph-name="imacron" unicode="&#x12b;" horiz-adv-x="548" 
d="M389 1098l-143 -1090h-51l143 1090h51zM666 1339l-7 -41h-563l6 41h564z" />
    <glyph glyph-name="dotlessi" unicode="&#x131;" horiz-adv-x="327" 
d="M328 1098l-144 -1090h-51l143 1090h52z" />
    <glyph glyph-name="Omacron" unicode="&#x14c;" 
d="M760 1462q-442 0 -522 -602l-25 -196q-80 -604 362 -605h152q432 0 512 605l25 196q80 602 -353 602h-151zM713 8h-142q-498 0 -413 651l28 207q86 653 584 654h141q498 -1 412 -654l-29 -207q-84 -651 -581 -651zM1098 1749l-6 -41h-564l7 41h563z" />
    <glyph glyph-name="omacron" unicode="&#x14d;" horiz-adv-x="1140" 
d="M629 1042q-340 0 -398 -430l-16 -123q-55 -430 285 -430h123q356 0 411 430l17 123q57 430 -299 430h-123zM616 8h-122q-403 0 -342 481l16 123q66 485 469 486h123q410 -1 344 -486l-17 -123q-61 -481 -471 -481zM1012 1339l-6 -41h-564l7 41h563z" />
    <glyph glyph-name="Umacron" unicode="&#x16a;" horiz-adv-x="1388" 
d="M711 66q465 0 526 460l131 994h55l-131 -994q-68 -516 -587 -516h-41q-510 0 -443 516l131 994h56l-132 -994q-61 -461 394 -460h41zM1151 1749l-6 -41h-563l6 41h563z" />
    <glyph glyph-name="umacron" unicode="&#x16b;" horiz-adv-x="1140" 
d="M1085 1104h56l-140 -1059q-289 -37 -458 -41q-430 0 -367 485l82 615h55l-82 -615q-57 -430 318 -430q166 2 403 39zM1020 1339l-6 -41h-563l6 41h563z" />
    <glyph glyph-name="florin" unicode="&#x192;" horiz-adv-x="819" 
d="M-29 -336v55q203 0 240 275l139 1063h-147l6 47h147l19 133q41 324 424 324q86 0 170 -23l-6 -49q-84 25 -170 27q-326 0 -363 -285l-16 -127h426l-6 -47h-426l-142 -1069q-43 -324 -295 -324z" />
    <glyph glyph-name="circumflex" unicode="&#x2c6;" horiz-adv-x="903" 
d="M954 1225h-73l-242 196l-291 -196h-74l332 254h82z" />
    <glyph glyph-name="caron" unicode="&#x2c7;" horiz-adv-x="903" 
d="M635 1227l-39 -2l-289 256h94l224 -176l268 176h94z" />
    <glyph glyph-name="uni02C9" unicode="&#x2c9;" horiz-adv-x="776" 
d="M846 1339l-6 -41h-564l7 41h563z" />
    <glyph glyph-name="breve" unicode="&#x2d8;" horiz-adv-x="903" 
d="M612 1208q-49 0 -104 12t-101 43q-46 30 -76 86t-30 132h51q18 -41 24 -67t35 -58q27 -32 73 -56t136 -24t143 24q54 24 89 57q35 31 48 57t40 67h51q-18 -76 -63 -132q-81 -100 -210 -128q-57 -13 -106 -13z" />
    <glyph glyph-name="dotaccent" unicode="&#x2d9;" horiz-adv-x="526" 
 />
    <glyph glyph-name="ring" unicode="&#x2da;" horiz-adv-x="661" 
d="M497 1260q77 0 126 45t59 126t-27 125t-113 43q-76 0 -125 -44q-49 -45 -59 -125t26 -125t113 -45zM337 1270q-54 62 -42 161t83 160t170 61t153 -60q54 -62 42 -161t-83 -161t-170 -62t-153 62z" />
    <glyph glyph-name="ogonek" unicode="&#x2db;" horiz-adv-x="647" 
d="M479 -467q-63 -20 -143 -20q-290 0 -266 206q10 72 69 156t148 141h114q-53 -37 -135 -96t-100 -158q2 -122 38 -152t123 -32t146 10z" />
    <glyph glyph-name="tilde" unicode="&#x2dc;" horiz-adv-x="976" 
d="M561 1868q53 0 130 -36t117 -54t100 -18q61 0 139 69l34 -51q-110 -97 -215 -97q-68 0 -169 52t-173 52q-72 1 -147 -67l-35 49q108 101 219 101z" />
    <glyph glyph-name="hungarumlaut" unicode="&#x2dd;" horiz-adv-x="995" 
d="M774 1225h-86l260 256h127zM362 1225h-88l258 256h132z" />
    <glyph glyph-name="endash" unicode="&#x2013;" horiz-adv-x="1271" 
d="M1245 606l-8 -55h-1059l8 55h1059z" />
    <glyph glyph-name="emdash" unicode="&#x2014;" horiz-adv-x="2347" 
d="M2320 606l-8 -55h-2134l8 55h2134z" />
    <glyph glyph-name="quoteleft" unicode="&#x2018;" horiz-adv-x="509" 
d="M432 1016h-72l-55 483h76z" />
    <glyph glyph-name="quoteright" unicode="&#x2019;" horiz-adv-x="509" 
d="M522 1499h76l-182 -483h-72z" />
    <glyph glyph-name="quotesinglbase" unicode="&#x201a;" horiz-adv-x="509" 
d="M358 250h76l-182 -483h-72z" />
    <glyph glyph-name="quotedblleft" unicode="&#x201c;" horiz-adv-x="837" 
d="M432 1016h-72l-55 483h76zM698 1016h-71l-56 483h76z" />
    <glyph glyph-name="quotedblright" unicode="&#x201d;" horiz-adv-x="837" 
d="M850 1499h76l-183 -483h-71zM584 1499h75l-182 -483h-71z" />
    <glyph glyph-name="quotedblbase" unicode="&#x201e;" horiz-adv-x="837" 
d="M690 276h76l-182 -483h-72zM424 276h76l-183 -483h-71z" />
    <glyph glyph-name="dagger" unicode="&#x2020;" horiz-adv-x="1019" 
d="M600 934h-371l9 57h370l74 563h68l-74 -563h368l-8 -57h-368l-168 -1276h-68z" />
    <glyph glyph-name="daggerdbl" unicode="&#x2021;" horiz-adv-x="1019" 
d="M520 334l80 600h-371l9 57h370l74 563h68l-74 -563h368l-8 -57h-368l-80 -600h368l-6 -58h-368l-82 -618h-68l82 618h-371l7 58h370z" />
    <glyph glyph-name="bullet" unicode="&#x2022;" horiz-adv-x="749" 
d="M294 617q-57 66 -44 159q12 93 85 161q74 68 169 70q94 1 153 -63t47 -163q-11 -98 -88 -164t-171 -66t-151 66z" />
    <glyph glyph-name="ellipsis" unicode="&#x2026;" horiz-adv-x="1210" 
d="M186 186l-22 -178h-55l22 178h55zM596 186l-23 -178h-55l23 178h55zM1006 186l-23 -178h-55l22 178h56z" />
    <glyph glyph-name="perthousand" unicode="&#x2030;" horiz-adv-x="2408" 
d="M1980 53q272 0 306 248l14 102q37 276 -236 277q-256 0 -292 -277l-15 -102q-33 -248 223 -248zM1981 -2q-325 0 -283 307l12 103q43 328 367 327q326 0 282 -327l-12 -103q-41 -307 -366 -307zM1305 53q272 0 305 248l14 102q37 276 -235 277q-256 0 -293 -277l-15 -102
q-32 -248 224 -248zM1306 -2q-324 0 -284 307l12 103q43 328 367 327q326 0 282 -327l-12 -103q-41 -307 -365 -307zM307 2l1225 1516h70l-1225 -1516h-70zM528 831q272 0 306 248l14 103q37 276 -236 276q-256 0 -293 -276l-14 -103q-33 -248 223 -248zM529 776
q-325 0 -283 307l12 103q43 328 367 327q326 0 282 -327l-12 -103q-41 -307 -366 -307z" />
    <glyph glyph-name="guilsinglleft" unicode="&#x2039;" horiz-adv-x="653" 
d="M184 569l410 467h86l-408 -465l283 -471h-82z" />
    <glyph glyph-name="guilsinglright" unicode="&#x203a;" horiz-adv-x="653" 
d="M207 100h-84l409 471l-284 465h86l287 -467z" />
    <glyph glyph-name="exclamdbl" unicode="&#x203c;" horiz-adv-x="698" 
d="M793 1524l-156 -1084h-51l131 1084h76zM618 201l-24 -193h-76l25 193h75zM383 1524l-156 -1084h-51l131 1084h76zM209 201l-25 -193h-75l24 193h76z" />
    <glyph glyph-name="fraction" unicode="&#x2044;" horiz-adv-x="1308" 
d="M104 2l1225 1516h70l-1225 -1516h-70z" />
    <glyph glyph-name="fraction" unicode="&#x2215;" horiz-adv-x="1308" 
d="M104 2l1225 1516h70l-1225 -1516h-70z" />
    <glyph glyph-name="franc" unicode="&#x20a3;" horiz-adv-x="1275" 
d="M625 1462q-215 0 -244 -215l-53 -401h764l-7 -55h-763l-58 -435h422l-4 -34h-422l-43 -318h-55l43 318h-117l4 34h117l117 891q37 270 307 271l735 -17l-6 -39h-737z" />
    <glyph glyph-name="lira" unicode="&#x20a4;" horiz-adv-x="1130" 
d="M909 1462q-344 0 -397 -403l-16 -129h495l-8 -53h-496l-24 -193h495l-6 -53h-495l-23 -168q-29 -170 -239 -389h819l-8 -58h-889l10 70q203 223 242 381l22 164h-186l6 53h186l25 193h-186l8 53h186l16 129q59 453 457 452h279l-6 -49h-267z" />
    <glyph glyph-name="peseta" unicode="&#x20a7;" horiz-adv-x="1974" 
d="M1610 1358l-35 -262h430l-6 -47h-430l-101 -762q-23 -227 154 -232l254 6l-6 -38l-248 -23q-246 0 -205 307l96 742h-163l6 47h164l34 262h56zM799 657q414 0 469 410q53 408 -361 408h-551l-108 -818h551zM913 1520q469 0 410 -453q-61 -455 -530 -455h-551l-78 -604
h-55l198 1512h606z" />
    <glyph glyph-name="Euro" unicode="&#x20ac;" horiz-adv-x="1402" 
d="M377 854h-158l6 43h160q127 616 602 616q285 -8 504 -38l-6 -41q-215 25 -496 26q-428 0 -547 -563h764l-6 -43h-768q-8 -47 -14 -98l-8 -58h770l-6 -43h-768q-47 -602 397 -602q283 4 502 27l-5 -37q-225 -31 -512 -41q-489 0 -438 653h-157l6 43h155l8 58q7 51 15 98z
" />
    <glyph glyph-name="uni2116" unicode="&#x2116;" horiz-adv-x="2191" 
d="M1745 1462q-340 0 -397 -430l-17 -123q-55 -430 285 -430h123q356 0 411 430l17 123q57 430 -299 430h-123zM1733 428h-123q-403 0 -342 481l16 123q66 485 469 486h123q410 -1 344 -486l-16 -123q-61 -481 -471 -481zM379 1522h41q45 0 61 -52l523 -1404h61l192 1452h56
l-195 -1465q-4 -45 -76 -45h-36q-37 0 -60 66l-522 1396h-68l-192 -1462h-55l192 1465q6 49 78 49zM2093 391l-6 -45h-838l6 45h838z" />
    <glyph glyph-name="trademark" unicode="&#x2122;" horiz-adv-x="1736" 
d="M995 1507h146q16 0 22 -18l133 -557l52 -6l278 563q10 16 23 16h149q10 0 8 -10l-102 -780h-70l97 731h-58l-289 -567q-14 -27 -26 -27h-84q-18 0 -29 27l-145 546h-60l-94 -710h-69l102 780q2 12 16 12zM905 1505l-10 -67h-246l-94 -725h-70l95 725h-265l11 67h579z" />
    <glyph glyph-name="estimated" unicode="&#x212e;" horiz-adv-x="1218" 
d="M1006 901q-98 111 -250 111t-285 -121l-35 -273h533zM381 201q100 -109 254 -109q195 0 381 121l-12 -102q-192 -113 -361 -113t-272 75t-157 196q-53 121 -36 282q29 222 211 386t384 165q202 2 323 -153t92 -378l-6 -47h-758z" />
    <glyph glyph-name="partialdiff" unicode="&#x2202;" horiz-adv-x="1914" 
d="M739 1401h-305l8 59q152 4 357 4q416 -12 374 -451t-275 -765q-118 -164 -415 -189q-367 0 -313 414q74 494 405 508q197 0 490 -172q117 504 -217 588q-27 4 -109 4zM1042 737q-256 154 -473 164q-240 -6 -311 -424q-45 -350 231 -352q252 23 375 206t178 406z" />
    <glyph glyph-name="Delta" unicode="&#x2206;" horiz-adv-x="1449" 
d="M1251 80l-344 1364l-696 -1364h1040zM846 1511h137l360 -1503h-1232z" />
    <glyph glyph-name="product" unicode="&#x220f;" horiz-adv-x="1683" 
d="M610 1479h-309l6 51h1471l-6 -51h-306l-241 -1839h-80l241 1839h-696l-241 -1839h-80z" />
    <glyph glyph-name="summation" unicode="&#x2211;" horiz-adv-x="1259" 
d="M688 618l-350 912h1010l-7 -51h-907l330 -865l-602 -923h950l-6 -51h-1045z" />
    <glyph glyph-name="minus" unicode="&#x2212;" horiz-adv-x="1107" 
d="M1100 754l-6 -56h-895l6 56h895z" />
    <glyph glyph-name="radical" unicode="&#x221a;" horiz-adv-x="1263" 
d="M399 723l-202 -59l2 28l245 101l179 -705l686 1552h59l-700 -1632h-93z" />
    <glyph glyph-name="infinity" unicode="&#x221e;" horiz-adv-x="1554" 
d="M426 256q-192 0 -239 186q-15 59 -6 130q17 134 113 227q96 92 218 92q70 0 146 -49t200 -246q184 201 269 247t149 46q127 0 196 -87q68 -87 52 -231q-20 -138 -114 -229q-95 -90 -218 -88q-68 0 -142 49t-204 248q-184 -205 -270 -250t-150 -45zM1194 297q110 0 188 79
q78 78 94 196t-43 195q-58 77 -158 77t-154 -38t-101 -83t-141 -154q67 -109 103 -151q84 -97 130 -109q47 -12 82 -12zM272 376q59 -76 156 -75q97 0 154 36t104 82t141 159q-66 106 -101 149q-101 121 -212 121q-110 0 -190 -79t-96 -198t44 -195z" />
    <glyph glyph-name="integral" unicode="&#x222b;" horiz-adv-x="1126" 
d="M1065 1563h162l-4 -39h-144q-289 0 -334 -342l-165 -1260q-53 -410 -394 -409h-143l4 41h143q287 0 336 374l162 1227q53 408 377 408z" />
    <glyph glyph-name="approxequal" unicode="&#x2248;" horiz-adv-x="1083" 
d="M412 608q-118 0 -207 -80l-21 23q43 47 126 84q84 37 148 37t109 -14t131 -44q86 -28 152 -28q108 0 192 76l17 -31q-119 -109 -277 -109q-60 0 -146 28t-131 44q-46 14 -93 14zM459 989q-120 0 -209 -80l-19 23q43 45 126 83t147 38q64 -1 110 -15q45 -14 131 -42
t148 -29q110 0 192 75l19 -34q-125 -105 -277 -105q-73 1 -153 29t-126 42t-89 15z" />
    <glyph glyph-name="notequal" unicode="&#x2260;" horiz-adv-x="1120" 
d="M588 555l-240 -412l-41 21l225 391h-356l6 55h383l133 232h-485l8 55h510l207 356l41 -20l-193 -336h330l-8 -55h-354l-136 -232h459l-6 -55h-483z" />
    <glyph glyph-name="lessequal" unicode="&#x2264;" horiz-adv-x="1107" 
d="M1026 188l-6 -55h-895l6 55h895zM1153 1255l-6 -63l-877 -401l768 -410l-8 -55l-821 438l8 55z" />
    <glyph glyph-name="greaterequal" unicode="&#x2265;" horiz-adv-x="1107" 
d="M1026 188l-6 -55h-895l6 55h895zM1108 819l-8 -55l-936 -438l4 55l879 410l-771 401l11 63z" />
    <glyph glyph-name="lozenge" unicode="&#x25ca;" horiz-adv-x="1198" 
d="M784 1430l-501 -672l331 -672l502 672zM766 1518h63l363 -760l-559 -758h-64l-362 758z" />
    <glyph glyph-name="uniFFFC" unicode="&#xfffc;" horiz-adv-x="2074" 
d="M1526 393q98 0 119 101l57 444h74l-58 -444q-33 -168 -200 -175h-64l8 74h64zM1198 399q119 0 131 105q14 106 -90 106h-164l-26 -211h149zM1225 678q117 0 129 92q12 102 -105 102h-139l-25 -194h140zM1270 946q186 0 164 -172q-14 -111 -121 -129q117 -20 102 -139
q-29 -172 -231 -178h-219l82 618h223zM715 870q-127 0 -154 -200l-10 -82q-27 -201 100 -201h62q123 0 149 201l10 82q27 201 -96 200h-61zM645 319q-205 0 -170 269l10 84q35 268 240 268h57q203 0 168 -268l-10 -84q-35 -268 -238 -269h-57zM1999 156h-127l35 258h127z
M2093 879h-127l35 260h127zM2046 516h-127l35 262h127zM246 156h-129l35 258h129zM340 879h-129l35 260h129zM293 516h-129l35 262h129zM475 -266l17 129h286l-16 -129h-287zM858 -266l16 129h287l-16 -129h-287zM1241 -266l16 129h289l-16 -129h-289zM694 1401l17 131h286
l-16 -131h-287zM1077 1401l17 131h286l-16 -131h-287zM1460 1401l17 131h288l-16 -131h-289zM1843 1401l17 131h319l-37 -295h-127l21 164h-193zM260 1237l37 295h317l-16 -131h-188l-21 -164h-129zM1624 -266l16 129h193l27 194h127l-43 -323h-320zM61 -266l43 323h129
l-26 -194h188l-16 -129h-318z" />
    <glyph glyph-name="uniFFFD" unicode="&#xfffd;" horiz-adv-x="2170" 
d="M1315 1755l850 -997l-1112 -998l-846 998zM1053 424l-21 -162h162l20 162h-161zM1240 1024q118 0 110 -57l-4 -41q-6 -43 -93 -84q-162 -90 -180 -240l-14 -106h166l12 102q12 84 100 121q156 78 174 207l5 41q31 225 -242 227q-131 0 -293 -27l-20 -157q161 14 279 14z
" />
    <glyph glyph-name="alt.g" horiz-adv-x="1163" 
d="M647 942q-209 0 -239 -223l-50 -375q-20 -162 189 -160h41l303 47l74 582q-115 121 -263 129h-55zM670 1118h53q172 -12 264 -127l33 119h162l-158 -1200q-27 -199 -180 -272q-127 -59 -357 -60q-117 0 -297 21l52 163q138 -20 254 -20t211 22q127 33 143 160l18 135
l-303 -49h-41q-395 0 -352 334l49 371q54 403 449 403z" />
    </font>
</defs>
</svg>
