<?xml version="1.0" standalone="no"?>
<!DOCTYPE svg PUBLIC "-//W3C//DTD SVG 1.1//EN" "http://www.w3.org/Graphics/SVG/1.1/DTD/svg11.dtd" >
<svg xmlns="http://www.w3.org/2000/svg">
<metadata>
Created by FontPrep 20130207 at Thu Sep 24 14:08:51 2015
 By Brian Stephens
Esphimere (c)Dichi. 2015. All Rights Reserved
</metadata>
<defs>
<font id="838bc13400294674ac8483da0921f639" horiz-adv-x='1024' >
  <font-face 
    font-family="Esphimere"
    font-weight="400"
    font-stretch="normal"
    units-per-em="2048"
    panose-1="2 11 6 3 3 0 0 2 0 4"
    ascent="1638"
    descent="-410"
    x-height="1098"
    cap-height="1518"
    bbox="-61 -487.041 2327 1890"
    underline-thickness="102"
    underline-position="-102"
    unicode-range="U+001D-FFFD"
  />
<missing-glyph horiz-adv-x="1148" 
d="M289 1358v-1137h571v1137h-571zM1042 1538v-1497h-936v1497h936z" />
    <glyph glyph-name="uniF001" unicode="fi" horiz-adv-x="1193" 
d="M1038 1561v-179h-178v179h178zM1038 1104v-1096h-178v946h-487v-946h-180v946h-148v150h148v133q0 324 374 324l181 -23v-141l-173 6q-203 0 -202 -172v-127h665z" />
    <glyph glyph-name="uniF002" unicode="fl" horiz-adv-x="1300" 
d="M1001 338q0 -154 113 -154l162 6v-161l-162 -23q-291 0 -291 336v1030l-227 31q-223 0 -223 -172v-127h303v-150h-303v-946h-180v946h-148v150h148v133q0 324 395 324l229 -25l184 -16v-1182z" />
    <glyph glyph-name="uniFB00" unicode="ff" horiz-adv-x="1511" 
d="M391 954v-946h-180v946h-148v150h148v133q0 324 375 324l180 -23v-141l-172 6q-203 0 -203 -172v-127h615v133q0 324 374 324l181 -23v-141l-172 6q-203 0 -203 -172v-127h303v-150h-303v-946h-180v946h-615z" />
    <glyph glyph-name="uniFB03" unicode="ffi" horiz-adv-x="1966" 
d="M1851 1561v-179h-178v179h178zM391 954v-946h-180v946h-148v150h148v133q0 324 375 324l180 -23v-141l-172 6q-203 0 -203 -172v-127h615v133q0 324 374 324l181 -23v-141l-172 6q-203 0 -203 -172v-127h665v-1096h-178v946h-487v-946h-180v946h-615z" />
    <glyph glyph-name="uniFB04" unicode="ffl" horiz-adv-x="2093" 
d="M391 954v-946h-180v946h-148v150h148v133q0 324 375 324l180 -23v-141l-172 6q-203 0 -203 -172v-127h615v133q0 324 374 324h21l229 -25l185 -16v-1182q0 -154 112 -154l162 6v-161l-162 -23q-291 0 -291 336v1030l-219 31h-28q-203 0 -203 -172v-127h303v-150h-303
v-946h-180v946h-615z" />
    <glyph glyph-name=".notdef" horiz-adv-x="1148" 
d="M289 1358v-1137h571v1137h-571zM1042 1538v-1497h-936v1497h936z" />
    <glyph glyph-name=".null" horiz-adv-x="0" 
 />
    <glyph glyph-name=".null" horiz-adv-x="0" 
 />
    <glyph glyph-name="nonmarkingreturn" horiz-adv-x="1091" 
 />
    <glyph glyph-name="space" unicode=" " horiz-adv-x="464" 
 />
    <glyph glyph-name="space" unicode="&#xa0;" horiz-adv-x="464" 
 />
    <glyph glyph-name="exclam" unicode="!" horiz-adv-x="526" 
d="M379 1524l-12 -1084h-174l-13 1084h199zM379 201v-193h-199v193h199z" />
    <glyph glyph-name="quotedbl" unicode="&#x22;" horiz-adv-x="776" 
d="M483 1575h187v-246l-43 -287h-101l-43 287v246zM104 1575h189v-246l-43 -287h-103l-43 287v246z" />
    <glyph glyph-name="numbersign" unicode="#" horiz-adv-x="1470" 
d="M111 958v152h280l29 342l176 2l-29 -344h383l29 342l178 2l-31 -344h252v-152h-264l-31 -370h250v-154h-264l-33 -387h-172l29 387h-381l-31 -387h-182l33 387h-266l2 154h280l29 370h-266zM907 608l29 371h-383l-29 -371h383z" />
    <glyph glyph-name="dollar" unicode="$" horiz-adv-x="1245" 
d="M709 -106h-152v112l-399 17v161l399 -4v512l-88 29q-317 94 -334 328v157q0 285 422 310v104h152v-107l358 -16v-162l-358 4v-501l43 -13q369 -92 370 -356v-127q2 -322 -413 -338v-110zM317 1206v-157q10 -109 228 -164l12 -4v456q-240 -16 -240 -131zM936 469
q0 113 -227 174v-461q221 18 227 160v127z" />
    <glyph glyph-name="percent" unicode="%" horiz-adv-x="1732" 
d="M1124 301q0 -166 182 -166t183 166v102q0 195 -191 195q-174 0 -174 -195v-102zM981 408q0 328 324 327q326 0 325 -327v-103q0 -307 -324 -307t-325 307v103zM256 2l1024 1516h172l-1024 -1516h-172zM246 1079q0 -166 182 -166t182 166v103q0 195 -190 194
q-174 0 -174 -194v-103zM102 1186q0 328 324 327q326 0 326 -327v-103q0 -307 -325 -307t-325 307v103z" />
    <glyph glyph-name="ampersand" unicode="&#x26;" horiz-adv-x="1406" 
d="M573 848h357v231h178v-231h225v-172h-225v-381q6 -125 100 -129l131 6v-141l-163 -23q-72 0 -125 27q-15 12 -27 26q-152 -45 -317 -57q-377 -2 -459 92q-80 80 -94 258q-25 346 225 406v8q-211 55 -189 401q14 172 95 258q84 94 420 93l204 -33v-168l-204 16
q-182 0 -238 -41q-131 -94 -84 -327q47 -119 190 -119zM930 315v361h-352q-176 -6 -226 -144q-49 -211 76 -305q80 -39 240 -40t270 26q-8 49 -8 102z" />
    <glyph glyph-name="quotesingle" unicode="'" horiz-adv-x="405" 
d="M109 1575h188v-246l-43 -287h-102l-43 287v246z" />
    <glyph glyph-name="parenleft" unicode="(" horiz-adv-x="610" 
d="M170 708q0 490 211 980h162q-370 -975 4 -1958h-176q-201 488 -201 978z" />
    <glyph glyph-name="parenright" unicode=")" horiz-adv-x="634" 
d="M268 692q0 504 -186 996h176q201 -489 201 -989t-211 -969h-162q182 458 182 962z" />
    <glyph glyph-name="asterisk" unicode="*" horiz-adv-x="755" 
d="M317 1454h117v-264l246 88l37 -109l-232 -86l146 -213l-92 -69l-160 233l-168 -233l-92 69l155 211l-241 88l37 109l247 -88v264z" />
    <glyph glyph-name="plus" unicode="+" horiz-adv-x="989" 
d="M391 655h-356v174h356v392h176v-392h355v-174h-355v-389h-176v389z" />
    <glyph glyph-name="comma" unicode="," horiz-adv-x="391" 
d="M137 199h178l-118 -432h-174z" />
    <glyph glyph-name="hyphen" unicode="-" horiz-adv-x="661" 
d="M580 668v-179h-541v179h541z" />
    <glyph glyph-name="hyphen" unicode="&#xad;" horiz-adv-x="661" 
d="M580 668v-179h-541v179h541z" />
    <glyph glyph-name="period" unicode="." horiz-adv-x="344" 
d="M246 186v-178h-178v178h178z" />
    <glyph glyph-name="slash" unicode="/" horiz-adv-x="778" 
d="M569 1538h191l-516 -1530h-191z" />
    <glyph glyph-name="zero" unicode="0" horiz-adv-x="1187" 
d="M569 1350q-250 0 -270 -449v-278q20 -451 270 -451h70q225 0 246 451v278q-20 449 -246 449h-70zM639 8h-70q-436 0 -456 610v289q20 612 456 613h70q416 -1 436 -613v-289q-20 -610 -436 -610z" />
    <glyph glyph-name="one" unicode="1" horiz-adv-x="747" 
d="M635 8h-176v1344l-346 -62v164l360 64h162v-1510z" />
    <glyph glyph-name="two" unicode="2" horiz-adv-x="1187" 
d="M1075 4h-962v129q16 211 159 359l433 376q147 123 157 213v52q-8 121 -133 182q-72 29 -154 35q-211 0 -421 -9v170q209 23 417 25q111 0 226 -47q256 -106 264 -356v-52q-14 -152 -232 -344l-413 -362q-88 -98 -103 -193h762v-178z" />
    <glyph glyph-name="three" unicode="3" horiz-adv-x="1210" 
d="M305 676v172h348q143 0 191 98q47 254 -84 348q-55 41 -238 41l-366 -16v168l366 33q336 2 420 -93q80 -86 94 -258q23 -346 -188 -401v-8q250 -59 225 -426q-14 -158 -94 -238q-82 -94 -459 -92l-407 33v168l407 -17q199 0 279 39q125 74 75 305q-49 138 -225 144h-344z
" />
    <glyph glyph-name="four" unicode="4" horiz-adv-x="1249" 
d="M795 1206h-27l-436 -653v-27h463v680zM971 526h166v-166h-166v-352h-176v352h-682v111q0 51 22 88l617 916q37 45 88 45h131v-994z" />
    <glyph glyph-name="five" unicode="5" horiz-adv-x="1187" 
d="M1024 1341h-723v-415l305 16q469 0 469 -418v-82q0 -440 -469 -440l-493 43v172l491 -27q291 0 291 252v82q0 246 -289 246l-440 -35q-49 0 -53 43v740h911v-177z" />
    <glyph glyph-name="six" unicode="6" horiz-adv-x="1187" 
d="M291 700v-204q16 -309 256 -312h115q233 2 235 312v12q-2 291 -231 291q-148 -1 -375 -99zM547 1346q-254 0 -256 -291v-172q227 94 375 94q408 0 409 -469v-12q-2 -487 -413 -490h-115q-432 2 -434 490v559q2 469 434 469q195 -8 387 -43v-162q-193 27 -387 27z" />
    <glyph glyph-name="seven" unicode="7" horiz-adv-x="1218" 
d="M113 1341v179h856q137 -1 98 -97l-553 -1415h-199l521 1333h-723z" />
    <glyph glyph-name="eight" unicode="8" horiz-adv-x="1187" 
d="M141 1116v41q0 375 439 375h26q444 0 445 -375v-61q0 -213 -168 -299v-15q193 -41 192 -288v-103q0 -391 -469 -391h-26q-467 0 -467 391v103q-1 247 192 290v13q-164 86 -164 319zM864 1096v61q0 188 -258 189h-26q-256 0 -256 -189v-61q0 -213 256 -213h26
q258 0 258 213zM606 705h-26q-276 0 -279 -211v-105q4 -201 279 -201h26q279 0 279 203v103q0 211 -279 211z" />
    <glyph glyph-name="nine" unicode="9" horiz-adv-x="1187" 
d="M522 731q150 0 375 98v205q-16 309 -256 312h-115q-233 -2 -235 -312v-12q2 -291 231 -291zM522 553q-408 0 -409 469v12q2 487 413 490h115q432 -2 434 -490v-559q-2 -469 -434 -469q-203 10 -408 43v162q205 -25 408 -27q254 0 256 291v172q-225 -94 -375 -94z" />
    <glyph glyph-name="colon" unicode=":" horiz-adv-x="444" 
d="M311 186v-178h-178v178h178zM311 1001v-180h-178v180h178z" />
    <glyph glyph-name="semicolon" unicode=";" horiz-adv-x="491" 
d="M188 199h179l-119 -432h-174zM369 1014v-180h-179v180h179z" />
    <glyph glyph-name="semicolon" unicode="&#x37e;" horiz-adv-x="491" 
d="M188 199h179l-119 -432h-174zM369 1014v-180h-179v180h179z" />
    <glyph glyph-name="less" unicode="&#x3c;" horiz-adv-x="1015" 
d="M926 1192l2 -188l-723 -277l723 -266l-2 -199l-879 354v222z" />
    <glyph glyph-name="equal" unicode="=" horiz-adv-x="1120" 
d="M997 1020v-178h-895v178h895zM997 610v-178h-895v178h895z" />
    <glyph glyph-name="greater" unicode="&#x3e;" horiz-adv-x="1052" 
d="M1010 838v-222l-879 -354l-2 199l723 266l-723 277l2 188z" />
    <glyph glyph-name="question" unicode="?" horiz-adv-x="1069" 
d="M569 182v-178h-178v178h178zM969 1174v-70q0 -193 -226 -313q-172 -78 -172 -254v-127h-184v133q0 229 234 370q162 84 161 191v70q0 152 -231 152t-453 -21v174q225 39 451 39q420 -4 420 -344z" />
    <glyph glyph-name="at" unicode="@" horiz-adv-x="2166" 
d="M1251 307v4l4 33q-156 -147 -325 -151q-256 18 -256 268q0 156 2 315q25 315 332 336q143 0 276 -158l12 154h164l-39 -735v-2q0 -31 88 -54q293 0 312 334q0 424 -160 576q-160 151 -597 151t-597 -152t-160 -574t160 -574t598 -152h18v-178h-18q-514 0 -729 204
t-215 700t215 701q215 203 728 203t728 -204t215 -701q-35 -487 -477 -487h-29q-250 23 -250 143zM1022 963q-8 0 -16 -2q-141 -10 -158 -201q-4 -168 -4 -328q0 -92 82 -92q6 0 12 2q172 0 319 186l11 271q-139 164 -246 164z" />
    <glyph glyph-name="A" unicode="A" 
d="M922 545l-244 721h-37l-248 -721h529zM707 1518q68 0 98 -91l483 -1423h-178l-131 363h-643l-135 -363h-178l483 1423q31 90 98 91h103z" />
    <glyph glyph-name="B" unicode="B" horiz-adv-x="1345" 
d="M707 186q291 0 290 254q-2 260 -254 260h-403v-514h367zM340 1341v-477h342q283 2 285 228q0 250 -285 249h-342zM162 8v1512h545q455 -2 456 -422q0 -268 -252 -316q289 -47 289 -338q-10 -418 -502 -436h-536z" />
    <glyph glyph-name="C" unicode="C" horiz-adv-x="1183" 
d="M72 764q0 756 526 756q285 -8 508 -39v-164q-219 25 -500 26q-356 -1 -356 -581t356 -580q281 4 498 27v-160q-221 -31 -506 -41q-526 0 -526 756z" />
    <glyph glyph-name="D" unicode="D" horiz-adv-x="1427" 
d="M748 178q340 0 340 583t-340 582h-400v-1165h400zM162 0v1526h586q530 0 530 -763t-530 -763h-586z" />
    <glyph glyph-name="E" unicode="E" horiz-adv-x="1212" 
d="M1135 1339h-738q-92 0 -92 -92v-405h641v-164h-641v-406q0 -90 92 -90h733v-162l-733 -16q-272 0 -272 268v975q2 270 272 271l738 -17v-162z" />
    <glyph glyph-name="F" unicode="F" horiz-adv-x="1288" 
d="M1169 1339h-737q-92 0 -92 -92v-401h641v-178h-641v-664h-178v1243q0 270 270 271l737 -17v-162z" />
    <glyph glyph-name="G" unicode="G" horiz-adv-x="1306" 
d="M1090 1343h-484q-350 0 -387 -522v-172q0 -461 375 -493h360v489h-381v178h560v-829h-539q-553 0 -553 655v172q39 686 571 701l478 -17v-162z" />
    <glyph glyph-name="H" unicode="H" horiz-adv-x="1361" 
d="M340 1518v-664h666v664h178v-1514h-178v672h-668l2 -668h-178v1510h178z" />
    <glyph glyph-name="I" unicode="I" horiz-adv-x="518" 
d="M340 1518v-1514h-178v1514h178z" />
    <glyph glyph-name="J" unicode="J" horiz-adv-x="825" 
d="M647 1520v-1086q-27 -410 -436 -424l-156 -2v178h156q240 2 258 248v1086h178z" />
    <glyph glyph-name="K" unicode="K" horiz-adv-x="1288" 
d="M348 1518v-699h47l631 699h234l-691 -760l2 -47l686 -707h-231l-631 641h-47v-641h-186v1514h186z" />
    <glyph glyph-name="L" unicode="L" horiz-adv-x="1128" 
d="M338 1520v-1133q0 -199 68 -199h673v-180h-673q-254 0 -254 379v1133h186z" />
    <glyph glyph-name="M" unicode="M" horiz-adv-x="1802" 
d="M162 8v1465q0 49 51 49h193q45 0 67 -52l416 -976l22 -2l406 978q20 49 63 50h199q45 0 45 -47v-1465h-178v1233l-23 2l-389 -917q-27 -66 -69 -66h-119q-47 0 -78 66l-401 915h-27v-1233h-178z" />
    <glyph glyph-name="N" unicode="N" horiz-adv-x="1490" 
d="M162 8v1465q0 49 51 49h193q45 0 67 -52l660 -1282h22l-4 1330h178l-2 -1465q0 -45 -49 -45h-188q-47 0 -78 66l-645 1208h-27v-1274h-178z" />
    <glyph glyph-name="O" unicode="O" horiz-adv-x="1357" 
d="M567 1350q-309 0 -309 -490v-196q0 -492 309 -492h152q299 0 299 492v196q0 489 -299 490h-152zM1208 866v-207q0 -651 -497 -651h-142q-498 0 -497 651v207q0 653 497 654h142q497 -1 497 -654z" />
    <glyph glyph-name="P" unicode="P" horiz-adv-x="1353" 
d="M768 780q289 0 289 289q0 283 -305 283h-412v-572h428zM162 8v1512h653q422 0 422 -454t-422 -454h-475v-604h-178z" />
    <glyph glyph-name="Q" unicode="Q" horiz-adv-x="1355" 
d="M711 8h-142q-498 0 -497 651v207q0 653 497 654h142q498 0 497 -654v-207q0 -285 -94 -448l127 -100l-98 -121l-129 104q-113 -86 -303 -86zM1018 664v196q0 489 -299 490h-152q-309 0 -309 -490v-196q0 -492 309 -492h152q94 0 151 37l-303 248l95 121l305 -246
q51 123 51 332z" />
    <glyph glyph-name="R" unicode="R" horiz-adv-x="1357" 
d="M340 612v-608h-178v1516h653q422 -2 422 -453q-14 -420 -354 -440l340 -623h-207l-332 608h-344zM778 780q279 0 279 289q0 283 -295 283h-422v-572h438z" />
    <glyph glyph-name="S" unicode="S" horiz-adv-x="1181" 
d="M272 1206v-157q10 -109 228 -164l207 -60q369 -92 370 -356v-127q2 -340 -465 -340l-499 21v161l485 -4q287 0 293 162v127q0 113 -232 176l-235 76q-317 94 -334 328v157q0 311 502 312l430 -21v-162l-428 4q-322 0 -322 -133z" />
    <glyph glyph-name="T" unicode="T" horiz-adv-x="1228" 
d="M1176 1520v-179h-451v-1337h-182v1337h-488v179h1121z" />
    <glyph glyph-name="U" unicode="U" horiz-adv-x="1388" 
d="M334 1520v-994q0 -340 328 -340h40q340 0 340 340v994h181v-994q0 -516 -521 -516h-40q-510 0 -510 516v994h182z" />
    <glyph glyph-name="V" unicode="V" horiz-adv-x="1329" 
d="M727 4h-123q-68 0 -88 66l-463 1448h193l405 -1303h21l418 1303h198l-475 -1448q-23 -66 -86 -66z" />
    <glyph glyph-name="W" unicode="W" horiz-adv-x="1984" 
d="M612 4h-123q-68 0 -88 66l-340 1448h193l283 -1303h20l293 1258q12 45 53 45h172q41 0 51 -45l283 -1258h21l294 1303h199l-352 -1448q-23 -66 -86 -66h-123q-68 0 -88 66l-273 1161h-20l-283 -1161q-23 -66 -86 -66z" />
    <glyph glyph-name="X" unicode="X" horiz-adv-x="1355" 
d="M672 907h20l389 611h226l-508 -754l508 -756h-226l-389 610h-20l-400 -610h-223l508 756l-508 754h223z" />
    <glyph glyph-name="Y" unicode="Y" horiz-adv-x="1269" 
d="M727 4h-190v485l-484 1027h211l365 -822h22l383 822h197l-504 -1027v-485z" />
    <glyph glyph-name="Z" unicode="Z" horiz-adv-x="1167" 
d="M1145 1518v-56q0 -59 -39 -119l-737 -1140l2 -15h774v-180h-1051v58q0 59 35 118l741 1141l2 16h-782v177h1055z" />
    <glyph glyph-name="bracketleft" unicode="[" horiz-adv-x="659" 
d="M106 1602h447v-158h-252v-1622h252v-158h-447v1938z" />
    <glyph glyph-name="backslash" unicode="\" horiz-adv-x="923" 
d="M815 8h-188l-518 1530h192z" />
    <glyph glyph-name="bracketright" unicode="]" horiz-adv-x="659" 
d="M553 -336h-447v158h252v1622h-252v158h447v-1938z" />
    <glyph glyph-name="asciicircum" unicode="^" horiz-adv-x="1118" 
d="M479 1499h160q35 0 51 -33l320 -704l-183 -2l-266 581h-16l-250 -581l-186 2l325 704q14 33 45 33z" />
    <glyph glyph-name="underscore" unicode="_" horiz-adv-x="1259" 
d="M1153 -33v-139h-1047v139h1047z" />
    <glyph glyph-name="grave" unicode="`" horiz-adv-x="704" 
d="M113 1481h247l232 -256h-191z" />
    <glyph glyph-name="a" unicode="a" horiz-adv-x="1048" 
d="M903 721v-717h-155l-11 127q-227 -125 -377 -127q-307 0 -307 340q6 328 285 340h387v94q0 141 -156 166q-76 4 -151 4h-262v135q149 21 319 21q428 -18 428 -383zM725 524h-385q-98 -18 -109 -190q0 -186 129 -187q145 4 365 136v241z" />
    <glyph glyph-name="b" unicode="b" horiz-adv-x="1171" 
d="M645 1094q410 0 410 -482v-123q0 -485 -410 -485h-82q-88 0 -231 121l-19 -121h-161v1532h178v-481q118 31 233 39h82zM645 162q233 0 234 327v123q0 328 -234 328h-82q-115 0 -233 -41v-616q143 -117 233 -121h82z" />
    <glyph glyph-name="c" unicode="c" horiz-adv-x="958" 
d="M250 546q0 -386 246 -386l387 6v-150l-394 -22q-417 0 -417 554t417 554l394 -23v-153l-387 6q-246 0 -246 -386z" />
    <glyph glyph-name="d" unicode="d" horiz-adv-x="1120" 
d="M797 1536h178v-1532h-162l-18 121q-143 -121 -232 -121h-82q-410 0 -409 485v123q0 481 409 482h82q115 -8 234 -39v481zM563 940h-82q-233 0 -233 -328v-123q0 -328 233 -327h82q91 4 234 121v616q-119 41 -234 41z" />
    <glyph glyph-name="e" unicode="e" horiz-adv-x="1054" 
d="M696 612q86 0 86 82q-2 244 -196 246h-144q-174 -2 -200 -328h454zM555 156q109 0 340 20l20 -145q-147 -33 -366 -33q-473 0 -473 550t356 550h178q338 0 348 -424q-10 -219 -161 -219h-553q29 -299 311 -299z" />
    <glyph glyph-name="f" unicode="f" horiz-adv-x="761" 
d="M211 8v946h-148v150h148v133q0 324 375 324l180 -23v-141l-172 6q-203 0 -203 -172v-127h303v-150h-303v-946h-180z" />
    <glyph glyph-name="g" unicode="g" horiz-adv-x="1193" 
d="M672 205q412 0 411 -320v-28q0 -342 -411 -342h-174q-424 0 -424 301v49q0 164 250 276q-80 43 -82 115v55q0 57 57 101q-160 80 -160 280v90q0 322 389 322h86q166 0 228 -21l295 -16v-111h-160q29 -72 29 -174v-90q0 -322 -392 -321h-71q-45 0 -90 6q-43 -33 -45 -53
l-2 -52q3 -59 118 -67h148zM246 -135v-49q0 -135 258 -135h168q238 0 237 176v28q0 156 -237 156h-168q-258 -43 -258 -176zM311 782v-90q0 -156 217 -155h86q217 0 217 155v90q0 156 -217 156h-86q-217 0 -217 -156z" />
    <glyph glyph-name="h" unicode="h" horiz-adv-x="1193" 
d="M330 1561v-514q162 53 360 57q354 -4 359 -322v-774h-179v637q0 287 -165 287q-203 0 -375 -66v-858h-178v1553h178z" />
    <glyph glyph-name="i" unicode="i" horiz-adv-x="475" 
d="M330 1561v-179h-178v179h178zM330 1104v-1096h-178v1096h178z" />
    <glyph glyph-name="j" unicode="j" horiz-adv-x="595" 
d="M418 1583v-178h-178v178h178zM418 1124v-1183q0 -360 -365 -375v172q184 0 187 203v1183h178z" />
    <glyph glyph-name="k" unicode="k" horiz-adv-x="1079" 
d="M334 618h55l438 482h234l-504 -543v-33l502 -520h-230l-442 442h-53v-442h-182v1552h182v-938z" />
    <glyph glyph-name="l" unicode="l" horiz-adv-x="602" 
d="M324 1561v-1221q0 -174 112 -174l162 6v-141l-162 -23q-291 0 -291 336v1217h179z" />
    <glyph glyph-name="m" unicode="m" horiz-adv-x="1738" 
d="M797 4v614q0 328 -152 328h-123q-90 -4 -213 -121v-821h-178v1100h162l18 -123q123 123 211 123h123q176 0 266 -172q123 152 254 172h103q328 0 327 -486v-614h-176v614q0 328 -151 328h-103q-90 -4 -211 -137q18 -84 19 -191v-614h-176z" />
    <glyph glyph-name="n" unicode="n" horiz-adv-x="1130" 
d="M309 4h-178v1100h162l18 -121q123 121 211 121h144q348 0 348 -486v-614h-176v614q0 328 -172 328h-144q-90 -4 -213 -121v-821z" />
    <glyph glyph-name="o" unicode="o" horiz-adv-x="1124" 
d="M475 940q-233 0 -233 -328v-123q0 -328 233 -327h123q233 0 233 327v123q0 328 -233 328h-123zM1008 612v-123q0 -481 -410 -481h-123q-403 0 -403 481v123q0 485 403 486h123q410 -1 410 -486z" />
    <glyph glyph-name="p" unicode="p" horiz-adv-x="1150" 
d="M309 -428h-178v1532h162l18 -121q143 121 232 121h82q410 0 409 -486v-122q0 -481 -409 -482h-82q-115 8 -234 39v-481zM543 168h82q233 0 233 328v122q0 328 -233 328h-82q-91 -4 -234 -121v-616q119 -41 234 -41z" />
    <glyph glyph-name="q" unicode="q" horiz-adv-x="1126" 
d="M481 14q-410 0 -409 482v122q0 485 409 486h82q88 0 232 -121l18 121h162v-1532h-178v481q-119 -31 -234 -39h-82zM481 946q-233 0 -233 -328v-122q0 -328 233 -328h82q115 0 234 41v616q-144 117 -234 121h-82z" />
    <glyph glyph-name="r" unicode="r" horiz-adv-x="794" 
d="M309 4h-178v1100h162l18 -121q123 121 223 121t209 -23v-141q-111 6 -221 6q-90 -4 -213 -121v-821z" />
    <glyph glyph-name="s" unicode="s" horiz-adv-x="1017" 
d="M903 358v-106q0 -246 -338 -246l-483 14v156l475 -4q176 0 176 80v106q-2 74 -139 97l-285 51q-231 59 -243 244l2 120q0 233 362 234l436 -14v-154l-436 2q-195 0 -194 -68v-116q10 -72 135 -92l260 -48q272 -47 272 -256z" />
    <glyph glyph-name="t" unicode="t" horiz-adv-x="768" 
d="M379 1366v-262h307v-150h-307v-659q6 -125 100 -129l213 6v-141l-246 -23q-246 0 -245 307v639h-164v150h164v262h178z" />
    <glyph glyph-name="u" unicode="u" horiz-adv-x="1136" 
d="M813 1104h178v-1100h-162l-18 121q-123 -121 -211 -121h-143q-348 0 -348 485v615h176v-615q0 -328 172 -327h143q90 4 213 121v821z" />
    <glyph glyph-name="v" unicode="v" horiz-adv-x="1030" 
d="M559 8h-115q-82 0 -108 84l-316 1012h183l274 -889h45l281 889h188l-321 -1014q-29 -82 -111 -82z" />
    <glyph glyph-name="w" unicode="w" horiz-adv-x="1630" 
d="M1300 4h-217q-35 0 -49 41l-217 856h-22l-199 -856q-10 -41 -45 -41h-225q-35 0 -43 41l-230 1059h176l207 -920h23l198 885q8 35 43 35h195q35 0 45 -35l234 -893h22l180 928h162l-195 -1059q-8 -41 -43 -41z" />
    <glyph glyph-name="x" unicode="x" horiz-adv-x="1038" 
d="M553 682l270 422h197l-361 -547l361 -549h-197l-270 420h-21l-292 -420h-197l385 549l-385 547h197l292 -422h21z" />
    <glyph glyph-name="y" unicode="y" horiz-adv-x="1144" 
d="M518 0q-20 0 -41 51l-411 1053h194l318 -893q6 -23 16 -23h10l314 916h188l-377 -1104q-131 -391 -485 -395v131q219 20 295 264h-21z" />
    <glyph glyph-name="z" unicode="z" horiz-adv-x="960" 
d="M885 1104v-47q0 -49 -35 -103l-512 -768h547v-178h-813v47q0 47 30 95l514 774h-542v180h811z" />
    <glyph glyph-name="braceleft" unicode="{" horiz-adv-x="860" 
d="M326 106q0 119 -4 206q-13 275 -216 319v57q99 15 167 123q49 75 50 229t11 268t49 192t122 115q83 38 228 38h21v-152q-149 0 -199 -78q-27 -41 -34 -105t-7 -155v-12q0 -119 -9 -199t-63 -169t-120 -121q66 -35 98 -69t54 -88q40 -99 40 -333v-16q0 -88 7 -153
q13 -122 109 -162q48 -19 124 -19v-154q-237 0 -336 103q-92 96 -92 335z" />
    <glyph glyph-name="bar" unicode="|" horiz-adv-x="405" 
d="M200 -344q-51 0 -94 6v2017q90 13 193 0v-2017q-48 -6 -99 -6z" />
    <glyph glyph-name="braceright" unicode="}" horiz-adv-x="860" 
d="M106 -178q146 0 199 78q43 62 43 256v16q0 240 38 333q22 54 55 88q34 34 98 69q-63 33 -98 67q-70 72 -85 222q-8 81 -8 200v12q0 196 -43 260q-51 78 -199 78v152h23q143 0 226 -38q153 -70 172 -307q9 -114 9 -228t13 -170q22 -105 108 -178q43 -36 97 -44v-57
q-206 -42 -215 -319q-4 -88 -4 -206q0 -239 -96 -338q-96 -100 -333 -100v154z" />
    <glyph glyph-name="asciitilde" unicode="~" horiz-adv-x="1259" 
d="M1153 846q0 -369 -305 -369q-201 16 -283 131q-55 80 -153 82q-129 0 -129 -182h-177q0 360 306 360q188 -4 282 -133q49 -80 154 -80q135 0 135 191h170z" />
    <glyph glyph-name="exclamdown" unicode="&#xa1;" horiz-adv-x="411" 
d="M106 -453l13 1084h174l12 -1084h-199zM106 913v191h199v-191h-199z" />
    <glyph glyph-name="cent" unicode="&#xa2;" horiz-adv-x="1099" 
d="M270 546q0 -374 250 -386v772q-250 -12 -250 -386zM520 1219h152v-125l231 -15v-153l-231 4v-768l231 4v-150l-231 -14v-108h-152v100q-428 6 -428 554t428 554v117z" />
    <glyph glyph-name="sterling" unicode="&#xa3;" horiz-adv-x="1118" 
d="M307 713h-186v135h186v211q0 453 398 452h278v-151h-266q-221 0 -221 -301v-211h372v-135h-372v-250q-6 -170 -148 -287h656v-160h-889v172q174 121 192 279v246z" />
    <glyph glyph-name="currency" unicode="&#xa4;" horiz-adv-x="880" 
d="M717 587q0 -85 -35 -134l90 -99l-96 -94l-94 94q-20 -16 -84 -34t-129 6q-49 12 -68 28l-98 -94l-94 94l94 97q-13 20 -27 63t-14 79t14 73q11 49 27 67l-94 94l94 97l98 -93q18 14 66 25q35 12 73 12t79 -11q42 -11 63 -28l94 95l96 -97l-92 -94q37 -61 37 -146z
M590 592q0 64 -43 102q-42 45 -108 45t-101 -45q-45 -38 -45 -102t45 -103q33 -41 101 -43t108 43q27 25 39 62q4 23 4 41z" />
    <glyph glyph-name="yen" unicode="&#xa5;" horiz-adv-x="1329" 
d="M1167 737v-133h-372l-35 -74v-114h407v-135h-407v-277h-189v277h-397v135h397v114l-34 74h-363v133h305l-370 819h210l353 -827l352 827h197l-367 -819h313z" />
    <glyph glyph-name="brokenbar" unicode="&#xa6;" horiz-adv-x="405" 
d="M106 362h193v-698h-193v698zM106 1677h193v-698h-193v698z" />
    <glyph glyph-name="section" unicode="&#xa7;" horiz-adv-x="1050" 
d="M109 758v209l170 -19v-190q0 -74 139 -96l284 -52q231 -59 242 -243v-121q0 -233 -362 -234l-437 15v153l435 -2q197 0 196 68v116q-10 72 -137 93l-262 41q-268 51 -268 262zM276 1315v-117q10 -72 138 -92l262 -41q268 -51 268 -262v-209l-170 18v191q-2 74 -139 96
l-285 51q-231 59 -244 244l3 121q0 233 362 233l436 -14v-154l-436 2q-195 0 -195 -67z" />
    <glyph glyph-name="dieresis" unicode="&#xa8;" horiz-adv-x="854" 
d="M545 1245v199h203v-199h-203zM106 1245v199h203v-199h-203z" />
    <glyph glyph-name="copyright" unicode="&#xa9;" horiz-adv-x="1806" 
d="M920 332q-346 0 -346 439t346 439q184 0 280 -131l-80 -88q-96 94 -194 94q-230 0 -230 -316t230 -316q98 0 190 88l82 -90q-100 -119 -278 -119zM902 -12q-175 0 -319 61q-288 122 -406 413q-58 144 -58 310t58 311q116 290 406 414q144 61 319 61q176 0 320 -60
q285 -119 405 -413q59 -143 59 -311t-59 -312q-117 -290 -405 -412q-144 -62 -320 -62zM1381 291q175 193 175 482q0 290 -176 482q-176 193 -479 193t-479 -194t-176 -481q0 -288 175 -479q179 -196 482 -196t478 193z" />
    <glyph glyph-name="ordfeminine" unicode="&#xaa;" horiz-adv-x="804" 
d="M688 1085v-487h-123l-6 78q-139 -76 -227 -78q-215 0 -215 236q4 215 198 223h234v65q0 86 -94 101q-49 4 -86 4h-185v108q109 15 209 15q295 -12 295 -265zM549 930h-230q-57 -10 -63 -103q0 -115 76 -114q80 4 217 86v131z" />
    <glyph glyph-name="guillemotleft" unicode="&#xab;" horiz-adv-x="1318" 
d="M109 569l348 467h209l-347 -465l347 -471h-205zM651 569l348 467h209l-346 -465l346 -471h-204z" />
    <glyph glyph-name="logicalnot" unicode="&#xac;" horiz-adv-x="1093" 
d="M987 811v-584h-182v402h-699v182h881z" />
    <glyph glyph-name="registered" unicode="&#xae;" horiz-adv-x="1792" 
d="M743 688v-342h-118v848h282q311 -2 312 -252q0 -207 -183 -244l183 -352h-144l-155 342h-177zM903 809q190 0 191 133q0 133 -199 133h-152v-266h160zM896 -12q-175 0 -319 61q-288 122 -406 413q-58 144 -58 310t58 311q116 290 406 414q144 61 319 61t319 -60
q286 -120 406 -413q58 -143 58 -311t-58 -312q-57 -144 -159 -248t-246 -164q-144 -62 -320 -62zM896 98q302 0 478 193t176 482q0 290 -176 482q-176 193 -479 193t-479 -194t-176 -481q0 -288 175 -479q179 -196 481 -196z" />
    <glyph glyph-name="macron" unicode="&#xaf;" horiz-adv-x="776" 
d="M670 1421v-143h-564v143h564z" />
    <glyph glyph-name="degree" unicode="&#xb0;" horiz-adv-x="825" 
d="M244 1202q0 -78 48 -127t121 -49t122 49t49 127t-49 128t-122 50t-121 -50t-48 -128zM629 988q-91 -89 -215 -89t-216 89t-92 215t92 216t215 89t214 -89q92 -88 92 -215q0 -126 -90 -216z" />
    <glyph glyph-name="plusminus" unicode="&#xb1;" horiz-adv-x="1107" 
d="M1001 188v-178h-895v178h895zM467 668h-356v176h356v391h176v-391h354v-176h-354v-389h-176v389z" />
    <glyph glyph-name="uni00B2" unicode="&#xb2;" horiz-adv-x="806" 
d="M700 776v-139h-594v92q10 131 99 221l252 219q80 66 84 111v29q-6 95 -150 108q-121 0 -260 -6v133q137 14 260 17q68 0 137 -29q158 -66 164 -223v-31q-8 -96 -141 -211l-238 -211q-47 -51 -51 -80h438z" />
    <glyph glyph-name="uni00B3" unicode="&#xb3;" horiz-adv-x="829" 
d="M219 1026v137h223q74 0 95 45q27 137 -43 185q-27 20 -127 20l-236 -10v135l234 21q207 2 260 -60q51 -55 61 -164q14 -217 -111 -237q147 -25 132 -256q-8 -100 -60 -150q-53 -61 -285 -61l-256 20v135l259 -10q113 0 155 21q61 37 35 157q-25 70 -115 72h-221z" />
    <glyph glyph-name="acute" unicode="&#xb4;" horiz-adv-x="702" 
d="M303 1225h-190l231 256h246z" />
    <glyph glyph-name="mu" unicode="&#xb5;" horiz-adv-x="1157" 
d="M106 1118h195v-567q0 -193 66 -287t197 -94t212 80t80 235v633h195v-1085h-179v153q-66 -90 -142 -135t-204 -45t-227 111v-592h-193v1593z" />
    <glyph glyph-name="paragraph" unicode="&#xb6;" horiz-adv-x="1183" 
d="M754 1378v-1370h-142v674h-34q-327 0 -435 224q-37 79 -37 195t38 204q73 168 323 223q111 20 264 22h346v-1542h-143v1370h-180z" />
    <glyph glyph-name="periodcentered" unicode="&#xb7;" horiz-adv-x="430" 
d="M106 461v217h218v-217h-218z" />
    <glyph glyph-name="periodcentered" unicode="&#x2219;" horiz-adv-x="430" 
d="M106 461v217h218v-217h-218z" />
    <glyph glyph-name="cedilla" unicode="&#xb8;" horiz-adv-x="671" 
d="M270 -197q-70 0 -118 -16l-7 8l101 273h121l-70 -181q33 8 61 9q98 0 152 -50t55 -139q0 -90 -83 -141t-203 -51t-173 20q6 81 27 109q59 -18 129 -19q156 0 156 94q0 84 -148 84z" />
    <glyph glyph-name="uni00B9" unicode="&#xb9;" horiz-adv-x="557" 
d="M451 631h-142v790l-203 -37v134l230 41h115v-928z" />
    <glyph glyph-name="ordmasculine" unicode="&#xba;" horiz-adv-x="837" 
d="M403 1450q-133 0 -145 -256v-168q12 -256 145 -256h43q119 0 132 256v168q-12 256 -132 256h-43zM446 633h-43q-285 0 -297 389v178q12 391 297 391h43q273 0 285 -391v-178q-12 -389 -285 -389z" />
    <glyph glyph-name="guillemotright" unicode="&#xbb;" horiz-adv-x="1318" 
d="M860 100h-207l346 471l-346 465h209l348 -467zM317 100h-206l346 471l-346 465h208l349 -467z" />
    <glyph glyph-name="onequarter" unicode="&#xbc;" horiz-adv-x="1665" 
d="M260 2l1024 1516h152l-1024 -1516h-152zM1339 338v369l-239 -369h239zM1481 338h98v-135h-98v-209h-142v209h-407v84q0 37 16 63l369 545q27 35 67 35h97v-592zM430 590h-141v790l-203 -37v134l229 41h115v-928z" />
    <glyph glyph-name="onehalf" unicode="&#xbd;" horiz-adv-x="1847" 
d="M1761 147v-139h-594v92q10 131 99 222l252 219q80 66 84 110v29q-6 95 -150 108q-121 0 -260 -6v133q137 14 260 17q68 0 137 -29q158 -66 164 -223v-31q-8 -96 -141 -211l-238 -211q-47 -51 -51 -80h438zM430 590h-141v790l-203 -37v134l229 41h115v-928zM260 2
l1024 1516h152l-1024 -1516h-152z" />
    <glyph glyph-name="threequarters" unicode="&#xbe;" horiz-adv-x="1769" 
d="M1444 338v369l-240 -369h240zM1585 338h98v-135h-98v-209h-141v209h-408v84q0 37 17 63l368 545q27 35 68 35h96v-592zM365 2l1024 1516h151l-1024 -1516h-151zM199 985v137h223q74 0 94 45q27 137 -43 185q-27 20 -127 20l-235 -10v135l233 21q207 2 260 -60
q51 -55 62 -164q14 -217 -111 -237q147 -25 131 -256q-8 -100 -59 -150q-53 -61 -285 -61l-256 20v135l258 -10q113 0 156 21q61 37 35 157q-25 70 -115 72h-221z" />
    <glyph glyph-name="questiondown" unicode="&#xbf;" horiz-adv-x="1083" 
d="M506 930v178h178v-178h-178zM106 -61v69q0 193 226 314q172 78 172 253v127h184v-133q0 -229 -233 -370q-162 -84 -162 -191v-69q1 -152 233 -152t451 20v-174q-225 -37 -451 -39q-420 4 -420 345z" />
    <glyph glyph-name="Agrave" unicode="&#xc0;" 
d="M922 545l-244 721h-37l-248 -721h529zM707 1518q68 0 98 -91l483 -1423h-178l-131 363h-643l-135 -363h-178l483 1423q31 90 98 91h103zM264 1870h248l231 -256h-190z" />
    <glyph glyph-name="Aacute" unicode="&#xc1;" 
d="M922 545l-244 721h-37l-248 -721h529zM707 1518q68 0 98 -91l483 -1423h-178l-131 363h-643l-135 -363h-178l483 1423q31 90 98 91h103zM743 1614h-190l231 256h246z" />
    <glyph glyph-name="Acircumflex" unicode="&#xc2;" 
d="M922 545l-244 721h-37l-248 -721h529zM707 1518q68 0 98 -91l483 -1423h-178l-131 363h-643l-135 -363h-178l483 1423q31 90 98 91h103zM971 1614h-197l-143 176l-144 -176h-196l219 256l244 -2z" />
    <glyph glyph-name="Atilde" unicode="&#xc3;" 
d="M922 545l-244 721h-37l-248 -721h529zM707 1518q68 0 98 -91l483 -1423h-178l-131 363h-643l-135 -363h-178l483 1423q31 90 98 91h103zM436 1827q56 1 101 -17t88 -37t85 -37t103 -18t127 70l64 -113q-96 -96 -203 -96q-69 0 -179 52q-109 52 -178 52q-70 0 -137 -67
l-63 110q29 31 83 66q53 35 109 35z" />
    <glyph glyph-name="Adieresis" unicode="&#xc4;" 
d="M922 545l-244 721h-37l-248 -721h529zM707 1518q68 0 98 -91l483 -1423h-178l-131 363h-643l-135 -363h-178l483 1423q31 90 98 91h103zM764 1634v199h203v-199h-203zM326 1634v199h202v-199h-202z" />
    <glyph glyph-name="Aring" unicode="&#xc5;" 
d="M522 1466q-89 63 -89 173q-1 110 61 171q62 62 162 62t162 -62t62 -174q0 -113 -92 -172q10 -16 17 -37l483 -1423h-178l-131 363h-643l-135 -363h-178l483 1423q8 23 16 39zM655 1520q57 0 87 34t30 96q0 60 -30 94t-86 34t-85 -34t-28 -95q0 -129 112 -129zM922 545
l-244 721h-37l-248 -721h529z" />
    <glyph glyph-name="AE" unicode="&#xc6;" horiz-adv-x="1918" 
d="M940 586v751l-465 -751h465zM940 412h-539l-241 -404h-199l899 1553h987v-189h-712v-502h569v-170h-569v-524h708v-168h-903v404z" />
    <glyph glyph-name="Ccedilla" unicode="&#xc7;" horiz-adv-x="1191" 
d="M72 762q0 758 526 758q285 -8 508 -39v-164q-219 25 -500 26q-356 -1 -356 -581t356 -580q281 4 498 27v-160q-199 -27 -449 -39l-41 -106q33 8 62 8q98 0 152 -49t54 -139t-82 -142q-83 -52 -203 -51q-120 0 -173 20q7 85 27 109q59 -18 129 -18q155 0 155 94
q0 82 -147 84q-74 0 -119 -17l-6 9l74 198q-465 43 -465 752z" />
    <glyph glyph-name="Egrave" unicode="&#xc8;" horiz-adv-x="1212" 
d="M1135 1339h-738q-92 0 -92 -92v-405h641v-164h-641v-406q0 -90 92 -90h733v-162l-733 -16q-272 0 -272 268v975q2 270 272 271l738 -17v-162zM410 1829h247l232 -256h-191z" />
    <glyph glyph-name="Eacute" unicode="&#xc9;" horiz-adv-x="1212" 
d="M1135 1339h-738q-92 0 -92 -92v-405h641v-164h-641v-406q0 -90 92 -90h733v-162l-733 -16q-272 0 -272 268v975q2 270 272 271l738 -17v-162zM602 1573h-190l231 256h246z" />
    <glyph glyph-name="Ecircumflex" unicode="&#xca;" horiz-adv-x="1212" 
d="M1135 1339h-738q-92 0 -92 -92v-405h641v-164h-641v-406q0 -90 92 -90h733v-162l-733 -16q-272 0 -272 268v975q2 270 272 271l738 -17v-162zM991 1593h-196l-144 176l-143 -176h-197l219 256l244 -2z" />
    <glyph glyph-name="Edieresis" unicode="&#xcb;" horiz-adv-x="1212" 
d="M1135 1339h-738q-92 0 -92 -92v-405h641v-164h-641v-406q0 -90 92 -90h733v-162l-733 -16q-272 0 -272 268v975q2 270 272 271l738 -17v-162zM750 1634v199h202v-199h-202zM311 1634v199h203v-199h-203z" />
    <glyph glyph-name="Igrave" unicode="&#xcc;" horiz-adv-x="546" 
d="M373 1518v-1514h-178v1514h178zM-33 1890h248l231 -256h-190z" />
    <glyph glyph-name="Iacute" unicode="&#xcd;" horiz-adv-x="509" 
d="M360 1518v-1514h-178v1514h178zM287 1634h-191l232 256h245z" />
    <glyph glyph-name="Icircumflex" unicode="&#xce;" horiz-adv-x="634" 
d="M412 1518v-1514h-179v1514h179zM672 1620h-197l-143 176l-144 -176h-196l219 256l244 -2z" />
    <glyph glyph-name="Idieresis" unicode="&#xcf;" horiz-adv-x="595" 
d="M385 1518v-1514h-178v1514h178zM430 1655v198h203v-198h-203zM-8 1655v198h203v-198h-203z" />
    <glyph glyph-name="Eth" unicode="&#xd0;" horiz-adv-x="1466" 
d="M201 850v717h383q733 1 733 -783t-721 -784h-395v688h-164v162h164zM387 688v-510h188q551 0 551 603t-559 603h-180v-534h281v-162h-281z" />
    <glyph glyph-name="Ntilde" unicode="&#xd1;" horiz-adv-x="1495" 
d="M182 8v1465q0 49 51 49h193q45 0 68 -52l659 -1282h23l-5 1330h179l-2 -1465q0 -45 -50 -45h-188q-47 0 -78 66l-645 1208h-27v-1274h-178zM542 1868q56 0 101 -18t88 -36t85 -36t104 -18t127 69l63 -113q-96 -96 -203 -96q-69 0 -179 52q-109 52 -179 52t-135 -67
l-64 110q29 31 83 66q53 35 109 35z" />
    <glyph glyph-name="Ograve" unicode="&#xd2;" horiz-adv-x="1357" 
d="M567 1350q-309 0 -309 -490v-196q0 -492 309 -492h152q299 0 299 492v196q0 489 -299 490h-152zM1208 866v-207q0 -651 -497 -651h-142q-498 0 -497 651v207q0 653 497 654h142q497 -1 497 -654zM299 1890h248l231 -256h-190z" />
    <glyph glyph-name="Oacute" unicode="&#xd3;" horiz-adv-x="1357" 
d="M567 1350q-309 0 -309 -490v-196q0 -492 309 -492h152q299 0 299 492v196q0 489 -299 490h-152zM1208 866v-207q0 -651 -497 -651h-142q-498 0 -497 651v207q0 653 497 654h142q497 -1 497 -654zM655 1634h-190l231 256h246z" />
    <glyph glyph-name="Ocircumflex" unicode="&#xd4;" horiz-adv-x="1357" 
d="M567 1350q-309 0 -309 -490v-196q0 -492 309 -492h152q299 0 299 492v196q0 489 -299 490h-152zM1208 866v-207q0 -651 -497 -651h-142q-498 0 -497 651v207q0 653 497 654h142q497 -1 497 -654zM983 1634h-197l-143 176l-143 -176h-197l219 256l244 -2z" />
    <glyph glyph-name="Otilde" unicode="&#xd5;" horiz-adv-x="1357" 
d="M567 1350q-309 0 -309 -490v-196q0 -492 309 -492h152q299 0 299 492v196q0 489 -299 490h-152zM1208 866v-207q0 -651 -497 -651h-142q-498 0 -497 651v207q0 653 497 654h142q497 -1 497 -654zM458 1888q56 0 101 -17t88 -37t85 -36q42 -18 89 -18q77 0 142 69l63 -112
q-97 -97 -203 -97q-67 0 -178 52q-110 52 -179 53q-70 0 -136 -68l-64 111q29 32 83 66q53 34 109 34z" />
    <glyph glyph-name="Odieresis" unicode="&#xd6;" horiz-adv-x="1357" 
d="M567 1350q-309 0 -309 -490v-196q0 -492 309 -492h152q299 0 299 492v196q0 489 -299 490h-152zM1208 866v-207q0 -651 -497 -651h-142q-498 0 -497 651v207q0 653 497 654h142q497 -1 497 -654zM762 1655v198h203v-198h-203zM324 1655v198h202v-198h-202z" />
    <glyph glyph-name="multiply" unicode="&#xd7;" horiz-adv-x="1044" 
d="M522 596l-303 -303l-110 110l303 304l-303 305l110 108l303 -305l305 305l109 -110l-305 -303l305 -304l-111 -110z" />
    <glyph glyph-name="Oslash" unicode="&#xd8;" horiz-adv-x="1376" 
d="M1227 866v-207q0 -651 -498 -651h-141q-147 0 -252 58l-37 -62h-164l92 152q-137 162 -137 503v207q0 653 498 654h141q172 0 285 -78l47 78h166l-111 -183q111 -162 111 -471zM586 172h151q299 0 299 492v196q0 174 -37 287l-571 -932q66 -43 158 -43zM737 1350h-151
q-309 0 -310 -490v-196q0 -213 58 -334l584 954q-70 66 -181 66z" />
    <glyph glyph-name="Ugrave" unicode="&#xd9;" horiz-adv-x="1388" 
d="M334 1520v-994q0 -340 328 -340h40q340 0 340 340v994h181v-994q0 -516 -521 -516h-40q-510 0 -510 516v994h182zM377 1890h248l231 -256h-190z" />
    <glyph glyph-name="Uacute" unicode="&#xda;" horiz-adv-x="1388" 
d="M334 1520v-994q0 -340 328 -340h40q340 0 340 340v994h181v-994q0 -516 -521 -516h-40q-510 0 -510 516v994h182zM713 1634h-191l232 256h245z" />
    <glyph glyph-name="Ucircumflex" unicode="&#xdb;" horiz-adv-x="1388" 
d="M334 1520v-994q0 -340 328 -340h40q340 0 340 340v994h181v-994q0 -516 -521 -516h-40q-510 0 -510 516v994h182zM1020 1634h-197l-143 176l-143 -176h-197l219 256l244 -2z" />
    <glyph glyph-name="Udieresis" unicode="&#xdc;" horiz-adv-x="1388" 
d="M334 1520v-994q0 -340 328 -340h40q340 0 340 340v994h181v-994q0 -516 -521 -516h-40q-510 0 -510 516v994h182zM819 1675v199h203v-199h-203zM381 1675v199h203v-199h-203z" />
    <glyph glyph-name="Yacute" unicode="&#xdd;" horiz-adv-x="1146" 
d="M727 4h-190v485l-484 1027h211l365 -822h22l383 822h197l-504 -1027v-485zM629 1634h-191l232 256h245z" />
    <glyph glyph-name="Thorn" unicode="&#xde;" horiz-adv-x="1202" 
d="M508 432q387 0 387 340t-387 340h-156v-680h156zM352 1264h156q573 0 573 -494q0 -489 -573 -489h-156v-281h-178v1505h178v-241z" />
    <glyph glyph-name="germandbls" unicode="&#xdf;" horiz-adv-x="1193" 
d="M152 1122q0 406 401 406h41q369 0 369 -340q-1 -96 -97 -226t-96 -194q0 -80 171 -219t171 -258q0 -313 -387 -314h-125v164h125q188 0 188 156q0 98 -169 229t-169 228q-1 72 95 206t96 218q0 193 -172 192h-41q-209 0 -209 -252v-1108h-192v1112z" />
    <glyph glyph-name="agrave" unicode="&#xe0;" horiz-adv-x="1060" 
d="M938 721v-717h-156l-10 127q-227 -125 -377 -127q-307 0 -307 340q6 328 285 340h387v94q0 141 -156 166q-76 4 -151 4h-263v135q150 21 320 21q428 -18 428 -383zM760 524h-385q-98 -18 -109 -190q0 -186 129 -187q145 4 365 136v241zM156 1481h247l232 -256h-191z" />
    <glyph glyph-name="aacute" unicode="&#xe1;" horiz-adv-x="1030" 
d="M905 721v-717h-155l-11 127q-227 -125 -377 -127q-307 0 -307 340q6 328 285 340h387v94q0 141 -156 166q-76 4 -151 4h-262v135q149 21 319 21q428 -18 428 -383zM727 524h-385q-98 -18 -109 -190q0 -186 129 -187q145 4 365 136v241zM520 1225h-190l231 256h246z" />
    <glyph glyph-name="acircumflex" unicode="&#xe2;" horiz-adv-x="1028" 
d="M903 721v-717h-155l-11 127q-227 -125 -377 -127q-307 0 -307 340q6 328 285 340h387v94q0 141 -156 166q-76 4 -151 4h-262v135q149 21 319 21q428 -18 428 -383zM725 524h-385q-98 -18 -109 -190q0 -186 129 -187q145 4 365 136v241zM805 1225h-197l-143 176l-143 -176
h-197l219 256l244 -2z" />
    <glyph glyph-name="atilde" unicode="&#xe3;" horiz-adv-x="1060" 
d="M938 721v-717h-156l-10 127q-227 -125 -377 -127q-307 0 -307 340q6 328 285 340h387v94q0 141 -156 166q-76 4 -151 4h-263v135q150 21 320 21q428 -18 428 -383zM760 524h-385q-98 -18 -109 -190q0 -186 129 -187q145 4 365 136v241zM316 1438q56 0 100 -18
q45 -18 88 -36q43 -20 85 -37t89 -18q77 0 141 70l64 -113q-96 -96 -203 -96q-69 0 -179 52q-109 52 -178 52q-70 0 -137 -67l-63 110q29 31 83 66t110 35z" />
    <glyph glyph-name="adieresis" unicode="&#xe4;" horiz-adv-x="1060" 
d="M938 721v-717h-156l-10 127q-227 -125 -377 -127q-307 0 -307 340q6 328 285 340h387v94q0 141 -156 166q-76 4 -151 4h-263v135q150 21 320 21q428 -18 428 -383zM760 524h-385q-98 -18 -109 -190q0 -186 129 -187q145 4 365 136v241zM618 1245v199h203v-199h-203z
M180 1245v199h203v-199h-203z" />
    <glyph glyph-name="aring" unicode="&#xe5;" horiz-adv-x="1028" 
d="M903 721v-717h-155l-11 127q-227 -125 -377 -127q-307 0 -307 340q6 328 285 340h387v94q0 141 -156 166q-76 4 -151 4h-262v135q149 21 319 21q428 -18 428 -383zM725 524h-385q-98 -18 -109 -190q0 -186 129 -187q145 4 365 136v241zM352 1431q0 -59 29 -95t85 -36
t86 35t30 95t-30 95q-30 34 -86 34t-85 -34t-29 -94zM242 1431q0 99 62 160t162 61t162 -60q62 -62 62 -161t-62 -161t-162 -62t-162 62t-62 161z" />
    <glyph glyph-name="ae" unicode="&#xe6;" horiz-adv-x="1693" 
d="M1335 612q86 0 86 82q-2 244 -196 246h-144q-159 -2 -194 -278l2 -50h446zM705 684v94q0 141 -156 166q-76 4 -131 4h-262v135q150 20 299 21q248 -10 352 -139q90 133 264 133h178q338 0 348 -424q-10 -219 -161 -219h-539l6 -101q61 -199 291 -198q109 0 340 20
l20 -145q-146 -33 -376 -33t-347 139q-145 -143 -471 -133q-307 0 -307 340q6 328 285 340h367zM705 524h-365q-98 -18 -109 -190q0 -186 129 -187q125 4 263 34q137 30 82 343z" />
    <glyph glyph-name="ccedilla" unicode="&#xe7;" horiz-adv-x="960" 
d="M475 -197q-69 0 -119 -16l-6 8l74 203q-352 41 -352 549q0 555 417 555l394 -23v-153l-387 6q-246 0 -246 -386t246 -386l387 6v-150l-338 -18l-43 -111q33 8 61 9q99 0 153 -50t54 -139q0 -90 -83 -141t-203 -51t-173 20q7 83 27 109q59 -18 129 -19q156 0 156 94
q0 84 -148 84z" />
    <glyph glyph-name="egrave" unicode="&#xe8;" horiz-adv-x="1075" 
d="M717 612q86 0 86 82q-2 244 -197 246h-143q-174 -2 -201 -328h455zM575 156q109 0 340 20l21 -145q-147 -33 -367 -33q-473 0 -473 550t357 550h178q338 0 348 -424q-10 -219 -162 -219h-553q29 -299 311 -299zM154 1481h247l232 -256h-191z" />
    <glyph glyph-name="eacute" unicode="&#xe9;" horiz-adv-x="1054" 
d="M696 612q86 0 86 82q-2 244 -196 246h-144q-174 -2 -200 -328h454zM555 156q109 0 340 20l20 -145q-147 -33 -366 -33q-473 0 -473 550t356 550h178q338 0 348 -424q-10 -219 -161 -219h-553q29 -299 311 -299zM510 1225h-191l232 256h246z" />
    <glyph glyph-name="ecircumflex" unicode="&#xea;" horiz-adv-x="1071" 
d="M713 612q86 0 86 82q-2 244 -197 246h-143q-174 -2 -201 -328h455zM571 156q109 0 340 20l21 -145q-147 -33 -367 -33q-473 0 -473 550t357 550h178q338 0 348 -424q-10 -219 -162 -219h-553q29 -299 311 -299zM874 1225h-196l-143 176l-144 -176h-196l219 256l243 -2z
" />
    <glyph glyph-name="edieresis" unicode="&#xeb;" horiz-adv-x="1071" 
d="M713 612q86 0 86 82q-2 244 -197 246h-143q-174 -2 -201 -328h455zM571 156q109 0 340 20l21 -145q-147 -33 -367 -33q-473 0 -473 550t357 550h178q338 0 348 -424q-10 -219 -162 -219h-553q29 -299 311 -299zM653 1245v199h203v-199h-203zM215 1245v199h203v-199h-203z
" />
    <glyph glyph-name="igrave" unicode="&#xec;" horiz-adv-x="397" 
d="M-41 1542h248l231 -256h-190zM379 1106v-1106h-193v1106h193z" />
    <glyph glyph-name="iacute" unicode="&#xed;" horiz-adv-x="395" 
d="M150 1286h-191l231 256h246zM197 1098v-1090h-174v1090h174z" />
    <glyph glyph-name="icircumflex" unicode="&#xee;" horiz-adv-x="557" 
d="M618 1286h-196l-143 176l-144 -176h-196l219 256l243 -2zM367 1098v-1090h-174v1090h174z" />
    <glyph glyph-name="idieresis" unicode="&#xef;" horiz-adv-x="518" 
d="M377 1307v198h203v-198h-203zM-61 1307v198h202v-198h-202zM346 1098v-1090h-176v1090h176z" />
    <glyph glyph-name="eth" unicode="&#xf0;" horiz-adv-x="1255" 
d="M1098 817q0 -813 -617 -813q-410 0 -409 445v122q0 440 409 441h82q176 -8 357 -39q0 170 -60 276l-151 -141l-95 98l158 148q-106 80 -289 80v163q270 0 422 -120l113 106l92 -98l-115 -107q102 -152 103 -405v-156zM563 858h-82q-233 0 -233 -287v-122q0 -287 233 -287
q439 0 439 655q-180 41 -357 41z" />
    <glyph glyph-name="ntilde" unicode="&#xf1;" horiz-adv-x="1165" 
d="M317 4h-178v1100h162l18 -121q123 121 211 121h144q348 0 348 -486v-614h-176v614q0 328 -172 328h-144q-90 -4 -213 -121v-821zM334 1458q56 0 100 -17q45 -17 88 -37t85 -36q42 -18 89 -18q77 0 142 69l63 -112q-97 -97 -203 -97q-67 0 -176 52t-180 52q-71 1 -137 -67
l-64 111q29 32 83 66t110 34z" />
    <glyph glyph-name="ograve" unicode="&#xf2;" horiz-adv-x="1144" 
d="M496 940q-233 0 -234 -328v-123q0 -328 234 -327h122q233 0 234 327v123q0 328 -234 328h-122zM1028 612v-123q0 -481 -410 -481h-122q-403 0 -404 481v123q0 485 404 486h122q410 -1 410 -486zM190 1481h248l232 -256h-191z" />
    <glyph glyph-name="oacute" unicode="&#xf3;" horiz-adv-x="1124" 
d="M475 940q-233 0 -233 -328v-123q0 -328 233 -327h123q233 0 233 327v123q0 328 -233 328h-123zM1008 612v-123q0 -481 -410 -481h-123q-403 0 -403 481v123q0 485 403 486h123q410 -1 410 -486zM526 1225h-190l231 256h246z" />
    <glyph glyph-name="ocircumflex" unicode="&#xf4;" horiz-adv-x="1140" 
d="M492 940q-233 0 -234 -328v-123q0 -328 234 -327h122q233 0 234 327v123q0 328 -234 328h-122zM1024 612v-123q0 -481 -410 -481h-122q-403 0 -404 481v123q0 485 404 486h122q410 -1 410 -486zM891 1225h-197l-143 176l-143 -176h-197l219 256l244 -2z" />
    <glyph glyph-name="otilde" unicode="&#xf5;" horiz-adv-x="1140" 
d="M492 940q-233 0 -234 -328v-123q0 -328 234 -327h122q233 0 234 327v123q0 328 -234 328h-122zM1024 612v-123q0 -481 -410 -481h-122q-403 0 -404 481v123q0 485 404 486h122q410 -1 410 -486zM360 1450q56 0 101 -17t88 -37t85 -36q42 -18 89 -19q77 0 141 70l64 -113
q-96 -96 -203 -96q-64 0 -143 36q-78 36 -120 52t-85 17q-78 0 -146 -68l-63 111q29 32 83 66q53 34 109 34z" />
    <glyph glyph-name="odieresis" unicode="&#xf6;" horiz-adv-x="1140" 
d="M492 940q-233 0 -234 -328v-123q0 -328 234 -327h122q233 0 234 327v123q0 328 -234 328h-122zM1024 612v-123q0 -481 -410 -481h-122q-403 0 -404 481v123q0 485 404 486h122q410 -1 410 -486zM670 1245v199h202v-199h-202zM231 1245v199h203v-199h-203z" />
    <glyph glyph-name="divide" unicode="&#xf7;" horiz-adv-x="1107" 
d="M449 223v217h217v-217h-217zM449 1040v217h217v-217h-217zM1001 836v-179h-895v179h895z" />
    <glyph glyph-name="oslash" unicode="&#xf8;" horiz-adv-x="1155" 
d="M1038 489q0 -481 -409 -481h-123q-98 0 -172 29l-21 -33h-157l65 105q-119 119 -119 380v123q0 485 404 486h123q115 0 196 -47l23 36h158l-80 -124q94 -121 112 -351v-123zM506 162h123q233 0 233 327v123q0 123 -33 199l-407 -637q37 -12 84 -12zM629 940h-123
q-233 0 -234 -328v-123q0 -147 47 -229l418 655q-45 25 -108 25z" />
    <glyph glyph-name="ugrave" unicode="&#xf9;" horiz-adv-x="1140" 
d="M817 1104h178v-1100h-161l-19 121q-123 -121 -211 -121h-143q-348 0 -348 485v615h176v-615q0 -328 172 -327h143q90 4 213 121v821zM195 1481h247l232 -256h-191z" />
    <glyph glyph-name="uacute" unicode="&#xfa;" horiz-adv-x="1136" 
d="M813 1104h178v-1100h-162l-18 121q-123 -121 -211 -121h-143q-348 0 -348 485v615h176v-615q0 -328 172 -327h143q90 4 213 121v821zM567 1225h-190l231 256h246z" />
    <glyph glyph-name="ucircumflex" unicode="&#xfb;" horiz-adv-x="1114" 
d="M821 1104h178v-1100h-161l-19 121q-123 -121 -211 -121h-143q-348 0 -348 485v615h176v-615q0 -328 172 -327h143q90 4 213 121v821zM903 1225h-196l-144 176l-143 -176h-197l219 256l244 -2z" />
    <glyph glyph-name="udieresis" unicode="&#xfc;" horiz-adv-x="1144" 
d="M821 1104h178v-1100h-161l-19 121q-123 -121 -211 -121h-143q-348 0 -348 485v615h176v-615q0 -328 172 -327h143q90 4 213 121v821zM682 1245v199h203v-199h-203zM244 1245v199h202v-199h-202z" />
    <glyph glyph-name="yacute" unicode="&#xfd;" horiz-adv-x="1081" 
d="M518 0q-20 0 -41 51l-411 1053h194l318 -893q6 -23 16 -23h10l314 916h188l-377 -1104q-131 -391 -485 -395v131q219 20 295 264h-21zM526 1225h-190l231 256h246z" />
    <glyph glyph-name="thorn" unicode="&#xfe;" horiz-adv-x="1249" 
d="M348 170h213q373 0 373 408q0 369 -373 368h-213v-776zM172 1561h176v-443h213q561 0 561 -540q0 -580 -561 -580h-213v-483h-176v2046z" />
    <glyph glyph-name="ydieresis" unicode="&#xff;" horiz-adv-x="1087" 
d="M524 0q-20 0 -41 51l-411 1053h194l318 -893q6 -23 16 -23h10l314 916h188l-377 -1104q-131 -391 -485 -395v131q219 20 295 264h-21zM680 1245v199h203v-199h-203zM242 1245v199h202v-199h-202z" />
    <glyph glyph-name="Amacron" unicode="&#x100;" 
d="M922 545l-244 721h-37l-248 -721h529zM707 1518q68 0 98 -91l483 -1423h-178l-131 363h-643l-135 -363h-178l483 1423q31 90 98 91h103zM920 1831v-143h-564v143h564z" />
    <glyph glyph-name="amacron" unicode="&#x101;" horiz-adv-x="1060" 
d="M938 721v-717h-156l-10 127q-227 -125 -377 -127q-307 0 -307 340q6 328 285 340h387v94q0 141 -156 166q-76 4 -151 4h-263v135q150 21 320 21q428 -18 428 -383zM760 524h-385q-98 -18 -109 -190q0 -186 129 -187q145 4 365 136v241zM801 1421v-143h-563v143h563z" />
    <glyph glyph-name="Emacron" unicode="&#x112;" horiz-adv-x="1212" 
d="M1135 1339h-738q-92 0 -92 -92v-405h641v-164h-641v-406q0 -90 92 -90h733v-162l-733 -16q-272 0 -272 268v975q2 270 272 271l738 -17v-162zM895 1831v-143h-563v143h563z" />
    <glyph glyph-name="emacron" unicode="&#x113;" horiz-adv-x="1071" 
d="M713 612q86 0 86 82q-2 244 -197 246h-143q-174 -2 -201 -328h455zM571 156q109 0 340 20l21 -145q-147 -33 -367 -33q-473 0 -473 550t357 550h178q338 0 348 -424q-10 -219 -162 -219h-553q29 -299 311 -299zM815 1421v-143h-563v143h563z" />
    <glyph glyph-name="Imacron" unicode="&#x12a;" horiz-adv-x="526" 
d="M362 1518v-1514h-178v1514h178zM563 1831v-143h-563v143h563z" />
    <glyph glyph-name="imacron" unicode="&#x12b;" horiz-adv-x="548" 
d="M367 1098v-1090h-174v1090h174zM571 1421v-143h-563v143h563z" />
    <glyph glyph-name="dotlessi" unicode="&#x131;" horiz-adv-x="450" 
d="M305 1098v-1090h-174v1090h174z" />
    <glyph glyph-name="Omacron" unicode="&#x14c;" horiz-adv-x="1357" 
d="M567 1350q-309 0 -309 -490v-196q0 -492 309 -492h152q299 0 299 492v196q0 489 -299 490h-152zM1208 866v-207q0 -651 -497 -651h-142q-498 0 -497 651v207q0 653 497 654h142q497 -1 497 -654zM922 1831v-143h-564v143h564z" />
    <glyph glyph-name="omacron" unicode="&#x14d;" horiz-adv-x="1140" 
d="M492 940q-233 0 -234 -328v-123q0 -328 234 -327h122q233 0 234 327v123q0 328 -234 328h-122zM1024 612v-123q0 -481 -410 -481h-122q-403 0 -404 481v123q0 485 404 486h122q410 -1 410 -486zM836 1421v-143h-564v143h564z" />
    <glyph glyph-name="Umacron" unicode="&#x16a;" horiz-adv-x="1388" 
d="M334 1520v-994q0 -340 328 -340h40q340 0 340 340v994h181v-994q0 -516 -521 -516h-40q-510 0 -510 516v994h182zM975 1831v-143h-563v143h563z" />
    <glyph glyph-name="umacron" unicode="&#x16b;" horiz-adv-x="1140" 
d="M817 1104h178v-1100h-161l-19 121q-123 -121 -211 -121h-143q-348 0 -348 485v615h176v-615q0 -328 172 -327h143q90 4 213 121v821zM782 1421v-143h-563v143h563z" />
    <glyph glyph-name="florin" unicode="&#x192;" horiz-adv-x="819" 
d="M391 1104h303v-150h-303v-966q0 -324 -375 -324l-8 158q203 0 203 172v960h-148v150h148v133q0 324 375 324l180 -23v-141l-172 6q-203 0 -203 -172v-127z" />
    <glyph glyph-name="circumflex" unicode="&#x2c6;" horiz-adv-x="903" 
d="M793 1225h-197l-143 176l-144 -176h-196l219 256l243 -2z" />
    <glyph glyph-name="caron" unicode="&#x2c7;" horiz-adv-x="903" 
d="M575 1227l-243 -2l-219 256h196l144 -176l143 176h197z" />
    <glyph glyph-name="uni02C9" unicode="&#x2c9;" horiz-adv-x="776" 
d="M670 1421v-143h-564v143h564z" />
    <glyph glyph-name="breve" unicode="&#x2d8;" horiz-adv-x="903" 
d="M453 1208q-49 0 -105 12t-107 43q-50 30 -87 86t-48 132h175q9 -86 94 -129q29 -14 93 -15t106 43q41 43 49 101h174q-8 -76 -46 -132q-69 -101 -194 -128q-55 -13 -104 -13z" />
    <glyph glyph-name="dotaccent" unicode="&#x2d9;" horiz-adv-x="526" 
 />
    <glyph glyph-name="ring" unicode="&#x2da;" horiz-adv-x="661" 
d="M330 1559q-55 0 -84 -34t-29 -94q0 -59 29 -95t85 -36t86 35t29 95q0 129 -116 129zM106 1431q0 99 62 160t162 61t162 -60q62 -62 63 -161q0 -99 -62 -161q-61 -62 -161 -62t-163 62t-63 161z" />
    <glyph glyph-name="ogonek" unicode="&#x2db;" horiz-adv-x="647" 
d="M402 -487q-296 -1 -296 215q0 62 50 147q49 84 129 141h155q-49 -38 -102 -110t-53 -136q0 -134 127 -132q46 0 102 12l27 -117q-57 -20 -139 -20z" />
    <glyph glyph-name="tilde" unicode="&#x2dc;" horiz-adv-x="976" 
d="M315 1868q52 0 134 -36q83 -36 125 -54t104 -18t127 69l63 -113q-96 -96 -202 -96q-70 0 -180 52q-109 52 -178 52t-136 -67l-63 110q94 101 206 101z" />
    <glyph glyph-name="hungarumlaut" unicode="&#x2dd;" horiz-adv-x="1097" 
d="M715 1225h-189l228 256h229zM303 1225h-190l225 256h233z" />
    <glyph glyph-name="endash" unicode="&#x2013;" horiz-adv-x="1271" 
d="M1165 668v-179h-1059v179h1059z" />
    <glyph glyph-name="emdash" unicode="&#x2014;" horiz-adv-x="2347" 
d="M2241 668v-179h-2135v179h2135z" />
    <glyph glyph-name="quoteleft" unicode="&#x2018;" horiz-adv-x="509" 
d="M401 1016h-174l-118 483h178z" />
    <glyph glyph-name="quoteright" unicode="&#x2019;" horiz-adv-x="509" 
d="M223 1499h178l-118 -483h-174z" />
    <glyph glyph-name="quotesinglbase" unicode="&#x201a;" horiz-adv-x="509" 
d="M223 250h178l-118 -483h-174z" />
    <glyph glyph-name="quotedblleft" unicode="&#x201c;" horiz-adv-x="837" 
d="M401 1016h-174l-118 483h178zM729 1016h-174l-119 483h178z" />
    <glyph glyph-name="quotedblright" unicode="&#x201d;" horiz-adv-x="837" 
d="M551 1499h178l-119 -483h-174zM223 1499h178l-118 -483h-174z" />
    <glyph glyph-name="quotedblbase" unicode="&#x201e;" horiz-adv-x="837" 
d="M551 276h178l-119 -483h-174zM223 276h178l-118 -483h-174z" />
    <glyph glyph-name="dagger" unicode="&#x2020;" horiz-adv-x="1019" 
d="M416 819h-310v172h310v563h190v-563h307v-172h-307v-1161h-190v1161z" />
    <glyph glyph-name="daggerdbl" unicode="&#x2021;" horiz-adv-x="1019" 
d="M416 182h-310v174h310v545h-310v174h310v479h190v-479h307v-174h-307v-545h307v-174h-307v-524h-190v524z" />
    <glyph glyph-name="bullet" unicode="&#x2022;" horiz-adv-x="749" 
d="M185 589q-79 79 -79 189t79 191q79 80 188 80t191 -79q81 -81 80 -191q-1 -111 -81 -191t-189 -79q-110 1 -189 80z" />
    <glyph glyph-name="ellipsis" unicode="&#x2026;" horiz-adv-x="1210" 
d="M285 186v-178h-179v178h179zM694 186v-178h-178v178h178zM1104 186v-178h-178v178h178z" />
    <glyph glyph-name="perthousand" unicode="&#x2030;" horiz-adv-x="2408" 
d="M1800 301q0 -166 182 -166t183 166v102q0 195 -191 195q-174 0 -174 -195v-102zM1657 408q0 328 323 327q326 0 326 -327v-103q0 -307 -325 -307t-324 307v103zM1124 301q0 -166 182 -166t183 166v102q0 195 -191 195q-174 0 -174 -195v-102zM981 408q0 328 324 327
q326 0 325 -327v-103q0 -307 -324 -307t-325 307v103zM256 2l1024 1516h193l-1024 -1516h-193zM246 1079q0 -166 182 -166t182 166v103q0 195 -190 194q-174 0 -174 -194v-103zM102 1186q0 328 324 327q326 0 326 -327v-103q0 -307 -325 -307t-325 307v103z" />
    <glyph glyph-name="guilsinglleft" unicode="&#x2039;" horiz-adv-x="776" 
d="M109 569l348 467h209l-347 -465l347 -471h-205z" />
    <glyph glyph-name="guilsinglright" unicode="&#x203a;" horiz-adv-x="776" 
d="M317 100h-206l346 471l-346 465h208l349 -467z" />
    <glyph glyph-name="exclamdbl" unicode="&#x203c;" horiz-adv-x="903" 
d="M797 1524l-13 -1084h-174l-12 1084h199zM797 201v-193h-199v193h199zM305 1524l-12 -1084h-174l-13 1084h199zM305 201v-193h-199v193h199z" />
    <glyph glyph-name="fraction" unicode="&#x2044;" horiz-adv-x="1411" 
d="M104 2l1024 1516h172l-1024 -1516h-172z" />
    <glyph glyph-name="fraction" unicode="&#x2215;" horiz-adv-x="1411" 
d="M104 2l1024 1516h172l-1024 -1516h-172z" />
    <glyph glyph-name="franc" unicode="&#x20a3;" horiz-adv-x="1275" 
d="M340 356h299v-75h-299v-277h-178v277h-117v75h117v891q0 270 270 271l737 -17v-162h-737q-92 0 -92 -92v-401h641v-178h-641v-312z" />
    <glyph glyph-name="lira" unicode="&#x20a4;" horiz-adv-x="1130" 
d="M496 569v-106q-6 -170 -148 -287h656v-160h-889v172q174 121 192 279v102h-186v136h186v110h-186v135h186v109q0 453 398 452h278v-151h-266q-221 0 -221 -301v-109h372v-135h-372v-110h372v-136h-372z" />
    <glyph glyph-name="peseta" unicode="&#x20a7;" horiz-adv-x="1974" 
d="M1554 1358v-262h308v-150h-308v-659q6 -125 101 -129l213 6v-141l-246 -23q-246 0 -246 307v639h-164v150h164v262h178zM713 750q279 0 278 299q0 293 -295 292h-411v-591h428zM106 8v1512h654q422 0 422 -474t-422 -475h-475v-563h-179z" />
    <glyph glyph-name="Euro" unicode="&#x20ac;" horiz-adv-x="1402" 
d="M1087 698v-145h-632q57 -371 342 -371q281 4 497 27v-160q-221 -31 -506 -41q-449 0 -514 545h-168v145h156v64q0 47 2 92h-158v145h173q74 520 509 521q285 -8 508 -39v-164q-219 25 -499 26q-274 0 -338 -344h628v-145h-645q-2 -45 -2 -85t2 -71h645z" />
    <glyph glyph-name="uni2116" unicode="&#x2116;" horiz-adv-x="2433" 
d="M1794 1354q-233 0 -233 -328v-123q0 -328 233 -328h123q233 0 233 328v123q0 328 -233 328h-123zM2327 1026v-123q0 -481 -410 -481h-123q-403 0 -403 481v123q0 485 403 485h123q410 0 410 -485zM106 8v1465q0 49 52 49h192q45 0 68 -52l659 -1282h23l-4 1330h178
l-2 -1465q0 -45 -49 -45h-189q-47 0 -78 66l-645 1208h-26v-1274h-179zM2281 391v-168h-837v168h837z" />
    <glyph glyph-name="trademark" unicode="&#x2122;" horiz-adv-x="1736" 
d="M762 694v801q0 33 35 33h125q29 0 43 -31l223 -526l24 -2l220 528q12 29 38 29h129q31 0 31 -31v-801h-110v670h-23l-209 -494q-16 -39 -43 -39h-84q-31 0 -49 39l-215 494h-25v-670h-110zM727 1526v-109h-246v-725h-110v725h-265v109h621z" />
    <glyph glyph-name="estimated" unicode="&#x212e;" horiz-adv-x="1218" 
d="M623 1012q-153 0 -269 -121v-273h533v283q-111 111 -264 111zM1112 571v-47h-758v-323q113 -109 269 -109q195 0 364 121l2 -102q-179 -113 -378 -113t-351 161q-151 161 -152 387q-2 226 157 391q159 164 362 165q202 2 344 -152q141 -154 141 -379z" />
    <glyph glyph-name="partialdiff" unicode="&#x2202;" horiz-adv-x="1914" 
d="M555 1360h-346v139q192 6 397 6q457 -14 475 -489q1 -127 -29 -376t-146 -421t-429 -201q-410 0 -409 455q8 532 378 549q207 0 461 -141q20 156 -25 297q-46 141 -227 178q-23 4 -100 4zM903 741q-242 109 -457 109q-188 -27 -202 -391q0 -272 233 -273q221 2 313 171
q90 169 113 384z" />
    <glyph glyph-name="Delta" unicode="&#x2206;" horiz-adv-x="1449" 
d="M1077 182l-360 1139l-352 -1139h712zM606 1511h240l495 -1503h-1232z" />
    <glyph glyph-name="product" unicode="&#x220f;" horiz-adv-x="1683" 
d="M354 1356h-248v174h1471v-174h-244v-1716h-203v1716h-573v-1716h-203v1716z" />
    <glyph glyph-name="summation" unicode="&#x2211;" horiz-adv-x="1259" 
d="M1147 1530v-174h-703l383 -742l-419 -800h745v-174h-1044l497 978l-469 912h1010z" />
    <glyph glyph-name="minus" unicode="&#x2212;" horiz-adv-x="1107" 
d="M1001 815v-178h-895v178h895z" />
    <glyph glyph-name="radical" unicode="&#x221a;" horiz-adv-x="1406" 
d="M328 647l-219 -67v153l329 141l230 -684l440 1512h190l-526 -1694h-221z" />
    <glyph glyph-name="infinity" unicode="&#x221e;" horiz-adv-x="1677" 
d="M457 195q-157 0 -254 107t-97 270q0 162 101 272t250 108q86 0 180 -56t205 -200q117 146 208 200t170 54q157 0 254 -107t97 -269t-100 -272q-100 -111 -250 -109q-184 0 -385 258q-117 -152 -209 -204t-170 -52zM1401 572q0 94 -51 152t-128 58t-115 -30
q-79 -62 -167 -183q139 -185 221 -203q29 -7 56 -8q82 0 133 60t51 154zM461 786q-80 0 -132 -59q-53 -59 -53 -155t52 -152q52 -58 127 -58q74 0 115 29q74 51 167 184q-134 179 -221 203q-29 8 -55 8z" />
    <glyph glyph-name="integral" unicode="&#x222b;" horiz-adv-x="1126" 
d="M467 1192q0 178 94 272q106 98 299 99h162v-162h-143q-170 0 -207 -125q-10 -41 -10 -94v-1260q2 -20 2 -72t-27 -122q-82 -218 -387 -215h-144v163h144q112 0 164 52t51 168v32l2 1227v37z" />
    <glyph glyph-name="approxequal" unicode="&#x2248;" horiz-adv-x="1144" 
d="M393 506q-116 0 -196 -80l-84 125q37 47 115 84t142 37t111 -14t136 -44q89 -28 155 -28q108 0 182 76l82 -134q-103 -108 -262 -108q-67 0 -152 28q-86 28 -134 44q-48 14 -95 14zM366 1053q64 -1 111 -15t136 -42t153 -29q110 0 182 75l84 -137q-109 -104 -262 -104
q-74 0 -198 42t-183 44q-116 0 -196 -80l-84 125q37 45 115 83t142 38z" />
    <glyph glyph-name="notequal" unicode="&#x2260;" horiz-adv-x="1120" 
d="M997 610v-178h-495l-129 -287l-133 60l102 227h-240v178h320l102 232h-422v178h502l123 274l133 -59l-96 -215h233v-178h-313l-102 -232h415z" />
    <glyph glyph-name="lessequal" unicode="&#x2264;" horiz-adv-x="1107" 
d="M1001 188v-178h-895v178h895zM987 1255l2 -186l-721 -278l721 -267l-2 -198l-878 356v219z" />
    <glyph glyph-name="greaterequal" unicode="&#x2265;" horiz-adv-x="1107" 
d="M1001 188v-178h-895v178h895zM999 901v-219l-878 -356l-2 198l721 267l-721 278l2 186z" />
    <glyph glyph-name="lozenge" unicode="&#x25ca;" horiz-adv-x="1198" 
d="M596 1307l-291 -549l297 -549l291 549zM524 1518h146l422 -760l-418 -758h-146l-422 758z" />
    <glyph glyph-name="uniFFFC" unicode="&#xfffc;" horiz-adv-x="2074" 
d="M1653 938v-444q-10 -168 -178 -175h-64v74h64q98 0 104 101v444h74zM1145 399q119 -1 119 105t-105 106h-164v-211h150zM1135 678q117 0 116 92q0 102 -116 102h-140v-194h140zM922 328v618h223q186 0 186 -172q0 -111 -102 -129q119 -20 119 -139q-4 -172 -207 -178
h-219zM600 870q-127 0 -127 -200v-82q0 -201 127 -201h62q123 0 122 201v82q0 201 -122 200h-62zM862 672v-84q0 -268 -203 -269h-57q-205 0 -205 269v84q0 268 205 268h57q203 0 203 -268zM1978 156h-127v258h127v-258zM1978 879h-127v260h127v-260zM1978 516h-127v262h127
v-262zM225 156h-129v258h129v-258zM225 879h-129v260h129v-260zM225 516h-129v262h129v-262zM510 -266v129h287v-129h-287zM893 -266v129h287v-129h-287zM1276 -266v129h289v-129h-289zM510 1401v131h287v-131h-287zM893 1401v131h287v-131h-287zM1276 1401v131h289v-131
h-289zM1659 1401v131h319v-295h-127v164h-192zM96 1237v295h318v-131h-189v-164h-129zM1659 -266v129h192v194h127v-323h-319zM96 -266v323h129v-194h189v-129h-318z" />
    <glyph glyph-name="uniFFFD" unicode="&#xfffd;" horiz-adv-x="2170" 
d="M1083 1755l981 -997l-981 -998l-977 998zM997 424v-162h162v162h-162zM1104 1024q119 0 119 -57v-41q0 -43 -80 -84q-150 -90 -150 -240v-106h166v102q0 84 84 121q145 78 146 207v41q0 225 -273 227q-131 0 -289 -27v-157q158 14 277 14z" />
    <glyph glyph-name="alt.g" horiz-adv-x="1163" 
d="M522 942q-209 0 -209 -223v-375q0 -162 209 -160h41l297 47l-2 582q-131 121 -280 129h-56zM522 1118h53q174 -12 281 -127l18 119h162v-1200q0 -199 -145 -272q-119 -59 -348 -60q-117 0 -299 21l28 163q141 -20 258 -20t207 22q123 33 123 160v135l-297 -49h-41
q-395 0 -395 334v371q0 403 395 403z" />
    </font>
</defs>
</svg>
